<?xml version="1.0" encoding="UTF-8" standalone="no"?>
<!DOCTYPE svg PUBLIC "-//W3C//DTD SVG 1.1//EN" "http://www.w3.org/Graphics/SVG/1.1/DTD/svg11.dtd">
<svg width="100%" height="100%" viewBox="0 0 512 512" version="1.1" xmlns="http://www.w3.org/2000/svg" xmlns:xlink="http://www.w3.org/1999/xlink" xml:space="preserve" xmlns:serif="http://www.serif.com/" style="fill-rule:evenodd;clip-rule:evenodd;stroke-linejoin:round;stroke-miterlimit:2;">
    <g transform="matrix(11.4086,0,0,12.0916,-343.939,-652.063)">
        <text x="35.511px" y="74.626px" style="font-family:'Antartida-Bold', 'Antartida';font-weight:700;font-size:12px;fill:rgb(89,81,137);">16</text>
        <path d="M49.947,70.33C49.947,69.478 50.199,69.106 50.895,69.106C51.339,69.106 51.831,69.394 52.131,69.742L52.131,72.79C51.831,73.138 51.351,73.426 50.895,73.426C50.199,73.426 49.947,73.054 49.947,72.202L49.947,70.33ZM48.351,72.322C48.351,73.906 48.963,74.746 50.535,74.746C51.219,74.746 51.855,74.398 52.239,73.99L52.335,74.626L53.727,74.626L53.727,67.906L52.347,67.906L52.239,68.542C51.819,68.086 51.159,67.786 50.535,67.786C48.963,67.786 48.351,68.626 48.351,70.21L48.351,72.322Z" style="fill:rgb(89,81,137);"/>
        <text x="56.763px" y="74.626px" style="font-family:'Antartida-Bold', 'Antartida';font-weight:700;font-size:12px;fill:rgb(89,81,137);">5</text>
        <text x="63.159px" y="74.626px" style="font-family:'Antartida-Bold', 'Antartida';font-weight:700;font-size:12px;fill:rgb(89,81,137);">0</text>
    </g>
    <g transform="matrix(7.41438,0,0,7.85827,-221.059,-246.287)">
        <path d="M41.229,70.33C41.229,69.478 41.481,69.106 42.177,69.106C42.621,69.106 43.113,69.394 43.413,69.742L43.413,72.79C43.113,73.138 42.633,73.426 42.177,73.426C41.481,73.426 41.229,73.054 41.229,72.202L41.229,70.33ZM39.633,72.322C39.633,73.906 40.245,74.746 41.817,74.746C42.501,74.746 43.137,74.398 43.521,73.99L43.617,74.626L45.009,74.626L45.009,67.906L43.629,67.906L43.521,68.542C43.101,68.086 42.441,67.786 41.817,67.786C40.245,67.786 39.633,68.626 39.633,70.21L39.633,72.322Z" style="fill:rgb(89,81,137);"/>
        <path d="M54.525,70.33C54.525,69.478 54.777,69.106 55.473,69.106C55.917,69.106 56.409,69.394 56.709,69.742L56.709,72.79C56.409,73.138 55.929,73.426 55.473,73.426C54.777,73.426 54.525,73.054 54.525,72.202L54.525,70.33ZM52.929,72.322C52.929,73.906 53.541,74.746 55.113,74.746C55.797,74.746 56.433,74.398 56.817,73.99L56.913,74.626L58.305,74.626L58.305,67.906L56.925,67.906L56.817,68.542C56.397,68.086 55.737,67.786 55.113,67.786C53.541,67.786 52.929,68.626 52.929,70.21L52.929,72.322Z" style="fill:rgb(89,81,137);"/>
        <path d="M58.233,76.546C60.165,76.546 61.245,75.718 61.245,74.158L61.245,67.906L59.121,67.906L59.121,69.034L59.649,69.094L59.649,74.038C59.649,74.95 59.265,75.334 58.233,75.358L58.233,76.546ZM60.381,67.174C60.945,67.174 61.317,66.958 61.317,66.37C61.317,65.77 60.945,65.542 60.381,65.542C59.841,65.542 59.481,65.77 59.481,66.37C59.481,66.958 59.841,67.174 60.381,67.174Z" style="fill:rgb(89,81,137);"/>
        <path d="M64.101,70.33C64.101,69.478 64.353,69.106 65.049,69.106C65.493,69.106 65.985,69.394 66.285,69.742L66.285,72.79C65.985,73.138 65.505,73.426 65.049,73.426C64.353,73.426 64.101,73.054 64.101,72.202L64.101,70.33ZM62.505,72.322C62.505,73.906 63.117,74.746 64.689,74.746C65.373,74.746 66.009,74.398 66.393,73.99L66.489,74.626L67.881,74.626L67.881,67.906L66.501,67.906L66.393,68.542C65.973,68.086 65.313,67.786 64.689,67.786C63.117,67.786 62.505,68.626 62.505,70.21L62.505,72.322Z" style="fill:rgb(89,81,137);"/>
        <text x="30.705px" y="74.626px" style="font-family:'Antartida-Bold', 'Antartida';font-weight:700;font-size:12px;fill:rgb(89,81,137);">tr<tspan x="45.669px 68.541px " y="74.626px 74.626px ">bd</tspan>or<tspan x="85.581px 92.169px " y="74.626px 74.626px ">es</tspan></text>
    </g>
</svg>
