<?xml version="1.0" encoding="UTF-8" standalone="no"?><!DOCTYPE svg PUBLIC "-//W3C//DTD SVG 1.1//EN" "http://www.w3.org/Graphics/SVG/1.1/DTD/svg11.dtd"><svg width="100%" height="100%" viewBox="0 0 2134 2134" version="1.1" xmlns="http://www.w3.org/2000/svg" xmlns:xlink="http://www.w3.org/1999/xlink" xml:space="preserve" xmlns:serif="http://www.serif.com/" style="fill-rule:evenodd;clip-rule:evenodd;stroke-linejoin:round;stroke-miterlimit:2;"><g transform="matrix(47.5358,0,0,50.3817,-1433.08,-2716.93)"><text x="30.705px" y="74.626px" style="font-family:'Antartida-Bold', 'Antartida';font-weight:700;font-size:12px;fill:#595189;">1</text><text x="34.125px" y="74.626px" style="font-family:'Antartida-Bold', 'Antartida';font-weight:700;font-size:12px;fill:#595189;">0<tspan x="40.677px " y="74.626px ">1</tspan></text><path d="M48.081,70.33c0,-0.852 0.252,-1.224 0.948,-1.224c0.444,0 0.936,0.288 1.236,0.636l0,3.048c-0.3,0.348 -0.78,0.636 -1.236,0.636c-0.696,0 -0.948,-0.372 -0.948,-1.224l0,-1.872Zm-1.596,1.992c0,1.584 0.612,2.424 2.184,2.424c0.684,0 1.32,-0.348 1.704,-0.756l0.096,0.636l1.392,0l0,-6.72l-1.38,0l-0.108,0.636c-0.42,-0.456 -1.08,-0.756 -1.704,-0.756c-1.572,0 -2.184,0.84 -2.184,2.424l0,2.112Z" style="fill:#595189;"/><text x="54.897px" y="74.626px" style="font-family:'Antartida-Bold', 'Antartida';font-weight:700;font-size:12px;fill:#595189;">5<tspan x="61.293px " y="74.626px ">0</tspan></text><text x="67.965px" y="74.626px" style="font-family:'Antartida-Bold', 'Antartida';font-weight:700;font-size:12px;fill:#595189;">0</text></g><path d="M356.691,1276.62c0,-27.897 8.251,-40.078 31.04,-40.078c14.538,0 30.647,9.43 40.47,20.825l0,99.8c-9.823,11.394 -25.539,20.824 -40.47,20.824c-22.789,0 -31.04,-12.18 -31.04,-40.077l0,-61.294Zm-52.257,65.223c0,51.865 20.038,79.369 71.51,79.369c22.396,0 43.22,-11.395 55.793,-24.754l3.144,20.825l45.578,0l0,-220.032l-45.185,0l-3.537,20.825c-13.751,-14.931 -35.362,-24.754 -55.793,-24.754c-51.472,0 -71.51,27.504 -71.51,79.369l0,69.152Z" style="fill:#595189;"/><path d="M767.448,1276.62c0,-27.897 8.251,-40.078 31.04,-40.078c14.538,0 30.647,9.43 40.47,20.825l0,99.8c-9.823,11.394 -25.54,20.824 -40.47,20.824c-22.789,0 -31.04,-12.18 -31.04,-40.077l0,-61.294Zm-52.258,65.223c0,51.865 20.039,79.369 71.51,79.369c22.396,0 43.221,-11.395 55.794,-24.754l3.143,20.825l45.578,0l0,-220.032l-45.185,0l-3.536,20.825c-13.752,-14.931 -35.362,-24.754 -55.794,-24.754c-51.471,0 -71.51,27.504 -71.51,79.369l0,69.152Z" style="fill:#595189;"/><path d="M876.562,1480.15c63.259,0 98.621,-27.111 98.621,-78.19l0,-204.708l-69.545,0l0,36.934l17.288,1.965l0,161.88c0,29.861 -12.573,42.435 -46.364,43.22l0,38.899Zm70.332,-306.866c18.467,0 30.647,-7.072 30.647,-26.325c0,-19.645 -12.18,-27.111 -30.647,-27.111c-17.681,0 -29.469,7.466 -29.469,27.111c0,19.253 11.788,26.325 29.469,26.325Z" style="fill:#595189;"/><path d="M1063.28,1276.62c0,-27.897 8.252,-40.078 31.041,-40.078c14.537,0 30.647,9.43 40.47,20.825l0,99.8c-9.823,11.394 -25.54,20.824 -40.47,20.824c-22.789,0 -31.041,-12.18 -31.041,-40.077l0,-61.294Zm-52.257,65.223c0,51.865 20.038,79.369 71.51,79.369c22.396,0 43.221,-11.395 55.794,-24.754l3.143,20.825l45.578,0l0,-220.032l-45.185,0l-3.536,20.825c-13.752,-14.931 -35.362,-24.754 -55.794,-24.754c-51.472,0 -71.51,27.504 -71.51,79.369l0,69.152Z" style="fill:#595189;"/><text x="27.487px" y="1417.29px" style="font-family:'Antartida-Bold', 'Antartida';font-weight:700;font-size:392.913px;fill:#595189;">t<tspan x="157.98px 489.773px 1196.36px 1401.74px 1606.01px 1722.78px 1926.31px " y="1417.29px 1417.29px 1417.29px 1417.29px 1417.29px 1417.29px 1417.29px ">rbdores</tspan></text></svg>