<?xml version="1.0" encoding="UTF-8" standalone="no"?><!DOCTYPE svg PUBLIC "-//W3C//DTD SVG 1.1//EN" "http://www.w3.org/Graphics/SVG/1.1/DTD/svg11.dtd"><svg width="100%" height="100%" viewBox="0 0 512 512" version="1.1" xmlns="http://www.w3.org/2000/svg" xmlns:xlink="http://www.w3.org/1999/xlink" xml:space="preserve" xmlns:serif="http://www.serif.com/" style="fill-rule:evenodd;clip-rule:evenodd;stroke-linejoin:round;stroke-miterlimit:2;"><g transform="matrix(11.4086,0,0,12.0916,-343.939,-652.063)"><text x="33.945px" y="74.626px" style="font-family:'Antartida-Bold', 'Antartida';font-weight:700;font-size:12px;fill:#595189;">5<tspan x="40.293px " y="74.626px ">1</tspan></text><path d="M47.697,70.33c0,-0.852 0.252,-1.224 0.948,-1.224c0.444,0 0.936,0.288 1.236,0.636l0,3.048c-0.3,0.348 -0.78,0.636 -1.236,0.636c-0.696,0 -0.948,-0.372 -0.948,-1.224l0,-1.872Zm-1.596,1.992c0,1.584 0.612,2.424 2.184,2.424c0.684,0 1.32,-0.348 1.704,-0.756l0.096,0.636l1.392,0l0,-6.72l-1.38,0l-0.108,0.636c-0.42,-0.456 -1.08,-0.756 -1.704,-0.756c-1.572,0 -2.184,0.84 -2.184,2.424l0,2.112Z" style="fill:#595189;"/><text x="54.513px" y="74.626px" style="font-family:'Antartida-Bold', 'Antartida';font-weight:700;font-size:12px;fill:#595189;">1</text><text x="58.053px" y="74.626px" style="font-family:'Antartida-Bold', 'Antartida';font-weight:700;font-size:12px;fill:#595189;">0</text><text x="64.725px" y="74.626px" style="font-family:'Antartida-Bold', 'Antartida';font-weight:700;font-size:12px;fill:#595189;">0</text></g><path d="M85.606,306.389c0,-6.695 1.98,-9.618 7.449,-9.618c3.49,0 7.356,2.263 9.713,4.998l0,23.952c-2.357,2.734 -6.129,4.997 -9.713,4.997c-5.469,0 -7.449,-2.923 -7.449,-9.618l0,-14.711Zm-12.542,15.654c0,12.447 4.809,19.048 17.163,19.048c5.375,0 10.372,-2.734 13.39,-5.941l0.754,4.998l10.939,0l0,-52.807l-10.844,0l-0.849,4.998c-3.3,-3.584 -8.487,-5.941 -13.39,-5.941c-12.354,0 -17.163,6.601 -17.163,19.048l0,16.597Z" style="fill:#595189;"/><path d="M184.187,306.389c0,-6.695 1.981,-9.618 7.45,-9.618c3.489,0 7.355,2.263 9.713,4.998l0,23.952c-2.358,2.734 -6.13,4.997 -9.713,4.997c-5.469,0 -7.45,-2.923 -7.45,-9.618l0,-14.711Zm-12.541,15.654c0,12.447 4.809,19.048 17.162,19.048c5.375,0 10.373,-2.734 13.391,-5.941l0.754,4.998l10.939,0l0,-52.807l-10.845,0l-0.848,4.998c-3.301,-3.584 -8.487,-5.941 -13.391,-5.941c-12.353,0 -17.162,6.601 -17.162,19.048l0,16.597Z" style="fill:#595189;"/><path d="M210.375,355.236c15.182,0 23.669,-6.506 23.669,-18.765l0,-49.13l-16.691,0l0,8.864l4.149,0.471l0,38.852c0,7.166 -3.017,10.184 -11.127,10.373l0,9.335Zm16.879,-73.647c4.433,0 7.356,-1.698 7.356,-6.319c0,-4.715 -2.923,-6.506 -7.356,-6.506c-4.243,0 -7.072,1.791 -7.072,6.506c0,4.621 2.829,6.319 7.072,6.319Z" style="fill:#595189;"/><path d="M255.188,306.389c0,-6.695 1.98,-9.618 7.449,-9.618c3.489,0 7.356,2.263 9.713,4.998l0,23.952c-2.357,2.734 -6.129,4.997 -9.713,4.997c-5.469,0 -7.449,-2.923 -7.449,-9.618l0,-14.711Zm-12.542,15.654c0,12.447 4.809,19.048 17.162,19.048c5.375,0 10.373,-2.734 13.391,-5.941l0.754,4.998l10.939,0l0,-52.807l-10.845,0l-0.848,4.998c-3.301,-3.584 -8.487,-5.941 -13.391,-5.941c-12.353,0 -17.162,6.601 -17.162,19.048l0,16.597Z" style="fill:#595189;"/><text x="6.597px" y="340.148px" style="font-family:'Antartida-Bold', 'Antartida';font-weight:700;font-size:94.299px;fill:#595189;">t<tspan x="37.915px 117.546px 287.127px 336.418px 385.442px 413.468px 462.314px " y="340.148px 340.148px 340.148px 340.148px 340.148px 340.148px 340.148px ">rbdores</tspan></text></svg>