<?xml version="1.0" encoding="utf-8"?>
<!-- Generator: Adobe Illustrator 23.0.4, SVG Export Plug-In . SVG Version: 6.00 Build 0)  -->
<svg version="1.1" xmlns="http://www.w3.org/2000/svg" xmlns:xlink="http://www.w3.org/1999/xlink" x="0px" y="0px"
	 viewBox="0 0 83 87" style="enable-background:new 0 0 83 87;" xml:space="preserve">
<style type="text/css">
	.st0{fill:#9FC3ED;}
	.st1{fill:url(#SVGID_1_);}
	.st2{fill:#FD792A;}
</style>
<g id="Layer_3">
</g>
<g id="Layer_4">
	<path class="st0" d="M10.7,26.8h-8V6.7c0-2.2,1.8-4,4-4s4,1.8,4,4V26.8z"/>
	<path class="st0" d="M22.7,66.9c0.9-1.1,1.4-2.5,1.4-4v-4h18.7v8H22.7z"/>
	<path class="st0" d="M42.8,33.5v22.8H21.4v6.7c0,2.2-1.8,4-4,4s-4-1.8-4-4V6.7c0-1.5-0.5-2.9-1.4-4h40.2c2.2,0,4,1.8,4,4v20.1h-6.7
		C45.8,26.8,42.8,29.8,42.8,33.5z"/>
</g>
<g id="Layer_1">
	
		<linearGradient id="SVGID_1_" gradientUnits="userSpaceOnUse" x1="-1218.0625" y1="826.625" x2="-1218.0625" y2="837" gradientTransform="matrix(8 0 0 -8 9786 6696)">
		<stop  offset="0" style="stop-color:#9B6A99"/>
		<stop  offset="1" style="stop-color:#043175"/>
	</linearGradient>
	<path class="st1" d="M53.5,69.6h-2.7c-1.5,0-2.7,1.2-2.7,2.7V75c0,1.5,1.2,2.7,2.7,2.7h2.7c1.5,0,2.7-1.2,2.7-2.7v-2.7
		C56.2,70.8,55,69.6,53.5,69.6z M53.5,75h-2.7v-2.7h2.7V75z M64.3,69.6h-2.7c-1.5,0-2.7,1.2-2.7,2.7V75c0,1.5,1.2,2.7,2.7,2.7h2.7
		c1.5,0,2.7-1.2,2.7-2.7v-2.7C66.9,70.8,65.7,69.6,64.3,69.6z M64.3,75h-2.7v-2.7h2.7V75z M53.5,58.9h-2.7c-1.5,0-2.7,1.2-2.7,2.7
		v2.7c0,1.5,1.2,2.7,2.7,2.7h2.7c1.5,0,2.7-1.2,2.7-2.7v-2.7C56.2,60.1,55,58.9,53.5,58.9z M53.5,64.3h-2.7v-2.7h2.7V64.3z
		 M64.3,58.9h-2.7c-1.5,0-2.7,1.2-2.7,2.7v2.7c0,1.5,1.2,2.7,2.7,2.7h2.7c1.5,0,2.7-1.2,2.7-2.7v-2.7C66.9,60.1,65.7,58.9,64.3,58.9
		z M64.3,64.3h-2.7v-2.7h2.7V64.3z M75,58.9h-2.7c-1.5,0-2.7,1.2-2.7,2.7v2.7c0,1.5,1.2,2.7,2.7,2.7H75c1.5,0,2.7-1.2,2.7-2.7v-2.7
		C77.6,60.1,76.4,58.9,75,58.9z M75,64.3h-2.7v-2.7H75V64.3z M53.5,48.2h-2.7c-1.5,0-2.7,1.2-2.7,2.7v2.7c0,1.5,1.2,2.7,2.7,2.7h2.7
		c1.5,0,2.7-1.2,2.7-2.7v-2.7C56.2,49.4,55,48.2,53.5,48.2z M53.5,53.5h-2.7v-2.7h2.7V53.5z M64.3,48.2h-2.7c-1.5,0-2.7,1.2-2.7,2.7
		v2.7c0,1.5,1.2,2.7,2.7,2.7h2.7c1.5,0,2.7-1.2,2.7-2.7v-2.7C66.9,49.4,65.7,48.2,64.3,48.2z M64.3,53.5h-2.7v-2.7h2.7V53.5z
		 M75,48.2h-2.7c-1.5,0-2.7,1.2-2.7,2.7v2.7c0,1.5,1.2,2.7,2.7,2.7H75c1.5,0,2.7-1.2,2.7-2.7v-2.7C77.6,49.4,76.4,48.2,75,48.2z
		 M75,53.5h-2.7v-2.7H75V53.5z M76.3,26.8H58.9V6.7c0-3.7-3-6.7-6.7-6.7H6.7C3,0,0,3,0,6.7v22.8h10.7v33.5c0,3.7,3,6.7,6.7,6.7h25.4
		v6.7c0,3.7,3,6.7,6.7,6.7h26.8c3.7,0,6.7-3,6.7-6.7V33.5C83,29.8,80,26.8,76.3,26.8z M10.7,26.8h-8V6.7c0-2.2,1.8-4,4-4s4,1.8,4,4
		V26.8z M22.7,66.9c0.9-1.1,1.4-2.5,1.4-4v-4h18.7v8H22.7z M42.8,33.5v22.8H21.4v6.7c0,2.2-1.8,4-4,4s-4-1.8-4-4V6.7
		c0-1.5-0.5-2.9-1.4-4h40.2c2.2,0,4,1.8,4,4v20.1h-6.7C45.8,26.8,42.8,29.8,42.8,33.5z M80.3,76.3c0,2.2-1.8,4-4,4H49.5
		c-2.2,0-4-1.8-4-4V33.5c0-2.2,1.8-4,4-4h26.8c2.2,0,4,1.8,4,4V76.3z M48.2,45.5h29.5V32.1H48.2V45.5z M50.9,34.8H75v8H50.9V34.8z
		 M34.8,5.4h-1.3v14.7h14.7v-1.3C48.2,11.4,42.2,5.4,34.8,5.4z M36.1,17.4V8.1c4.8,0.6,8.7,4.5,9.3,9.3H36.1z M30.8,10.7h-1.3
		c-7.4,0-13.4,6-13.4,13.4s6,13.4,13.4,13.4s13.4-6,13.4-13.4v-1.3h-12V10.7z M28.1,13.5v10.1L21,30.7c-1.4-1.8-2.3-4.1-2.3-6.6
		C18.7,18.6,22.8,14.1,28.1,13.5z M40.1,25.4c-0.7,5.3-5.2,9.4-10.6,9.4c-2.5,0-4.7-0.8-6.6-2.3l7.1-7.1H40.1z M53.5,8h-2.7V5.4h2.7
		V8z M53.5,13.4h-2.7v-2.7h2.7V13.4z M53.5,18.7h-2.7v-2.7h2.7V18.7z M16.1,40.2h24.1v2.7H16.1V40.2z M16.1,45.5h24.1v2.7H16.1V45.5
		z M37.5,50.9h2.7v2.7h-2.7V50.9z M32.1,50.9h2.7v2.7h-2.7V50.9z M26.8,50.9h2.7v2.7h-2.7V50.9z M16.1,50.9h8v2.7h-8V50.9z
		 M5.4,21.4H8v2.7H5.4V21.4z M5.4,16.1H8v2.7H5.4V16.1z M5.4,10.7H8v2.7H5.4V10.7z"/>
</g>
<g id="Layer_2">
	<path class="st2" d="M75,69.6h-2.7c-1.5,0-2.7,1.2-2.7,2.7V75c0,1.5,1.2,2.7,2.7,2.7H75c1.5,0,2.7-1.2,2.7-2.7v-2.7
		C77.6,70.8,76.4,69.6,75,69.6z M75,75h-2.7v-2.7H75V75z"/>
</g>
</svg>
