<?xml version="1.0" encoding="utf-8"?>
<!-- Generator: Adobe Illustrator 23.0.4, SVG Export Plug-In . SVG Version: 6.00 Build 0)  -->
<svg version="1.1" id="Layer_1" xmlns="http://www.w3.org/2000/svg" xmlns:xlink="http://www.w3.org/1999/xlink" x="0px" y="0px"
	 viewBox="0 0 87 86" style="enable-background:new 0 0 87 86;" xml:space="preserve">
<style type="text/css">
	.st0{fill:#9FC3ED;}
	.st1{fill:#FD792A;}
	.st2{fill:url(#SVGID_1_);}
</style>
<g>
	<path class="st0" d="M12.5,40.2c0-8.4,6.8-15.3,15.3-15.3S43,31.8,43,40.2v20c-1.2,0.5-4.2,1.6-9.7,2v-0.8
		c4.2-2.9,6.9-7.8,6.9-13.2v-6.6h-2.7c-1.5,0-3-0.5-4.2-1.5l-2.5-2c-1.7-1.3-3.8-2.1-5.9-2.1c-2,0-4.1,0.7-5.7,1.9l-3.9,3v7.3
		c0,5.4,2.7,10.3,6.9,13.2v0.8c-5.5-0.4-8.5-1.5-9.7-2V40.2z"/>
	<rect x="74.9" y="41.6" class="st1" width="2.8" height="30.5"/>
</g>
<linearGradient id="SVGID_1_" gradientUnits="userSpaceOnUse" x1="78.9115" y1="86.7993" x2="1.9356" y2="-7.0839">
	<stop  offset="0" style="stop-color:#9B6A99"/>
	<stop  offset="1" style="stop-color:#043175"/>
</linearGradient>
<path class="st2" d="M49.9,20.8c0,8.4,6.8,15.3,15.3,15.3s15.3-6.8,15.3-15.3S73.6,5.5,65.2,5.5S49.9,12.4,49.9,20.8z M65.2,8.3
	c6.9,0,12.5,5.6,12.5,12.5s-5.6,12.5-12.5,12.5c-6.9,0-12.5-5.6-12.5-12.5S58.3,8.3,65.2,8.3z M66.6,25v-1.4c0-0.8-0.6-1.4-1.4-1.4
	c-2.3,0-4.2-1.9-4.2-4.2v-4.2h2.8v-2.8h2.8v3c1.6,0.6,2.8,2.1,2.8,3.9h-2.8c0-0.8-0.6-1.4-1.4-1.4h-1.4V18c0,0.8,0.6,1.4,1.4,1.4
	c2.3,0,4.2,1.9,4.2,4.2v4.2h-2.8v2.8h-2.8v-3c-1.6-0.6-2.8-2.1-2.8-3.9h2.8c0,0.8,0.6,1.4,1.4,1.4H66.6z M55.5,20.8
	c0-0.8,0.6-1.4,1.4-1.4s1.4,0.6,1.4,1.4c0,0.8-0.6,1.4-1.4,1.4S55.5,21.6,55.5,20.8z M72.1,20.8c0-0.8,0.6-1.4,1.4-1.4
	c0.8,0,1.4,0.6,1.4,1.4c0,0.8-0.6,1.4-1.4,1.4C72.8,22.2,72.1,21.6,72.1,20.8z M22.2,14.7v8.4C15,25.4,9.7,32.2,9.7,40.2v21.5
	l0.6,0.4c0.1,0.1,3,1.9,10.4,2.7c-0.1,0-0.2,0.1-0.2,0.2L9.7,69.7C3.8,72.3,0,78.2,0,84.6V86h55.5v-1.4c0-1.4-0.2-2.8-0.6-4.2H86V0
	H36.9L22.2,14.7z M36.1,4.7v9.1h-9.1L36.1,4.7z M12.5,40.2c0-8.4,6.8-15.3,15.3-15.3S43,31.8,43,40.2v20c-1.2,0.5-4.2,1.6-9.7,2
	v-0.8c4.2-2.9,6.9-7.8,6.9-13.2v-6.6h-2.7c-1.5,0-3-0.5-4.2-1.5l-2.5-2c-1.7-1.3-3.8-2.1-5.9-2.1c-2,0-4.1,0.7-5.7,1.9l-3.9,3v7.3
	c0,5.4,2.7,10.3,6.9,13.2v0.8c-5.5-0.4-8.5-1.5-9.7-2V40.2z M44.4,83.2h-2.8V71l2.8,1.2V83.2z M11.1,72.2l2.8-1.2v12.3h-2.8V72.2z
	 M27.7,61C22,59.4,18,54.2,18,48.2v-5.9l2.8-2.1c2.4-1.8,5.9-1.7,8.2,0.1l2.5,2c1.7,1.3,3.7,2.1,5.9,2.1v3.8
	C37.5,54.2,33.5,59.4,27.7,61L27.7,61z M24.9,62.9c0.8,0.3,1.6,0.6,2.5,0.8l0.3,0.1l0.3-0.1c0.9-0.2,1.7-0.5,2.5-0.8
	c0.1,0.9,0.3,1.7,0.8,2.4c-0.6,0.6-1.8,1.2-3.6,1.2s-3-0.6-3.6-1.2C24.6,64.6,24.9,63.8,24.9,62.9z M33.3,73.5c2.1,0,4-0.8,5.5-2.2
	v6.3H16.6v-6.3c1.5,1.4,3.5,2.2,5.5,2.2c2.1,0,4-0.8,5.5-2.1C29.3,72.8,31.2,73.5,33.3,73.5z M16.6,80.5h22.2v2.8H16.6V80.5z
	 M33.3,70.7c-1.4,0-2.7-0.6-3.8-1.5c1.8-0.3,3-1.1,3.8-1.9c0.2,0.1,0.3,0.2,0.5,0.3l3.4,1.5C36.2,70.1,34.8,70.7,33.3,70.7
	L33.3,70.7z M21.6,67.6c0.2-0.1,0.3-0.2,0.5-0.3c0.8,0.7,2,1.6,3.8,1.9c-1,1-2.3,1.5-3.8,1.5c-1.5,0-2.9-0.6-4-1.7L21.6,67.6z
	 M8.3,73.8v9.5H2.8C3.2,79.4,5.3,76,8.3,73.8z M47.2,83.2v-9.5c3.1,2.2,5.1,5.7,5.5,9.5H47.2z M66.6,72.1h-2.8V52.7h2.8V72.1z
	 M61,72.1h-2.8V58.3H61V72.1z M55.5,72.1h-2.8v-8.3h2.8V72.1z M83.2,77.7H53.9c-0.4-0.7-0.8-1.5-1.2-2.1v-0.6h27.7V38.8h-8.3v5.5
	h-5.5v5.5H61v5.5h-5.5V61h-5.5v11.4c-1.2-1.1-2.6-2-4.2-2.7L35,65c-0.1,0-0.2-0.1-0.2-0.2c7.5-0.8,10.3-2.6,10.4-2.7l0.6-0.4V40.2
	c0-9.9-8.1-18-18-18c-0.9,0-1.9,0.1-2.8,0.2v-5.8h13.9V2.8h44.4V77.7z M69.4,72.1v-25h2.8v25H69.4z M74.9,72.1V41.6h2.8v30.5H74.9z
	 M77.7,6.9c0-0.8,0.6-1.4,1.4-1.4c0.8,0,1.4,0.6,1.4,1.4s-0.6,1.4-1.4,1.4C78.3,8.3,77.7,7.7,77.7,6.9z M44.4,8.3h-2.8V5.5h2.8V8.3z
	 M49.9,8.3h-2.8V5.5h2.8V8.3z M55.5,8.3h-2.8V5.5h2.8V8.3z"/>
</svg>
