<?xml version="1.0" encoding="utf-8"?>
<!-- Generator: Adobe Illustrator 23.0.4, SVG Export Plug-In . SVG Version: 6.00 Build 0)  -->
<svg version="1.1" baseProfile="tiny" xmlns="http://www.w3.org/2000/svg" xmlns:xlink="http://www.w3.org/1999/xlink" x="0px"
	 y="0px" viewBox="0 0 87 87" xml:space="preserve">
<g id="Layer_1">
	<linearGradient id="SVGID_1_" gradientUnits="userSpaceOnUse" x1="-3.2356" y1="-1.2298" x2="129.3581" y2="125.661">
		<stop  offset="0" style="stop-color:#477B98"/>
		<stop  offset="0.9899" style="stop-color:#501F6F"/>
	</linearGradient>
	<path fill="url(#SVGID_1_)" d="M74.8,86.8H12c-6.6,0-12-5.4-12-12V12C0,5.4,5.4,0,12,0h62.8c6.6,0,12,5.4,12,12v62.8
		C86.8,81.4,81.4,86.8,74.8,86.8z"/>
</g>
<g id="Layer_2">
	<g>
		<path fill="#293B86" d="M79.9,33.9h-3.6c-0.2-1.6-0.7-3.2-1.3-4.7l3.1-1.8c0.6-0.4,0.9-1.2,0.5-1.8l-2-3.5
			c-0.4-0.6-1.2-0.9-1.8-0.5l-3.2,1.8c-1-1.3-2.2-2.4-3.4-3.4l1.8-3.2c0.4-0.6,0.2-1.5-0.5-1.8l-3.5-2c-0.6-0.4-1.5-0.2-1.8,0.5
			l-1.8,3.1c-1.5-0.6-3.1-1-4.7-1.3v-3.6c0-0.7-0.6-1.4-1.4-1.4h-4.1c-0.7,0-1.4,0.6-1.4,1.4v3.6c-1.6,0.2-3.2,0.7-4.7,1.3l-1.8-3.1
			c-0.4-0.6-1.2-0.9-1.8-0.5l-3.5,2c-0.6,0.4-0.9,1.2-0.5,1.8l1.8,3.2c-1.3,1-2.4,2.2-3.4,3.4l-3.2-1.8c-0.6-0.4-1.5-0.2-1.8,0.5
			l-2,3.5c-0.4,0.6-0.2,1.5,0.5,1.8l3.1,1.8c-0.6,1.5-1,3.1-1.3,4.7h-3.6c-0.7,0-1.3,0.6-1.3,1.4v4.1c0,0.7,0.6,1.4,1.3,1.4h3.6
			c0.2,1.6,0.7,3.2,1.3,4.7l-3.1,1.8c-0.6,0.4-0.9,1.2-0.5,1.8l2,3.5c0.4,0.6,1.2,0.9,1.8,0.5l3.2-1.8c1,1.3,2.2,2.4,3.4,3.4
			l-1.8,3.2c-0.4,0.6-0.2,1.5,0.5,1.8l3.5,2c0.6,0.4,1.5,0.2,1.8-0.5l1.8-3.2c1.5,0.6,3.1,1,4.7,1.3v3.6c0,0.7,0.6,1.4,1.4,1.4h4.1
			c0.7,0,1.4-0.6,1.4-1.4v-3.6c1.6-0.2,3.2-0.7,4.7-1.3l1.8,3.2c0.4,0.6,1.2,0.9,1.8,0.5l3.5-2c0.6-0.4,0.9-1.2,0.5-1.8l-1.8-3.2
			c1.3-1,2.4-2.2,3.4-3.4l3.2,1.8c0.6,0.4,1.5,0.2,1.8-0.5l2-3.5c0.4-0.6,0.2-1.5-0.5-1.8L75,45.4c0.6-1.5,1-3.1,1.3-4.7h3.6
			c0.7,0,1.4-0.6,1.4-1.4v-4.1C81.3,34.5,80.7,33.9,79.9,33.9z"/>
		<circle fill="#556DD3" cx="54.3" cy="37.3" r="15.7"/>
		<path fill="#8098FF" d="M60.6,41.6c0-3.6-2.5-5.9-6.3-5.9c-2.2,0-3.3-0.9-3.3-2.9c0-1.6,1.5-2.9,3.3-2.9c1.4,0,2.6,0.8,3.1,1.9
			c0.3,0.8,1.2,1.1,2,0.8c0.8-0.3,1.1-1.2,0.8-2c-0.8-1.8-2.4-3.1-4.4-3.6V26c0-0.8-0.7-1.5-1.5-1.5c-0.8,0-1.5,0.7-1.5,1.5v1.1
			c-2.8,0.6-4.8,2.9-4.8,5.7c0,2.8,1.7,5.9,6.3,5.9c2.2,0,3.3,1,3.3,2.9c0,1.6-1.5,2.9-3.3,2.9c-1.4,0-2.6-0.8-3.1-1.9
			c-0.3-0.8-1.2-1.1-2-0.8c-0.8,0.3-1.1,1.2-0.8,2c0.8,1.8,2.4,3.1,4.4,3.6v1.1c0,0.8,0.7,1.5,1.5,1.5c0.8,0,1.5-0.7,1.5-1.5v-1.1
			C58.5,46.7,60.6,44.3,60.6,41.6z"/>
	</g>
	<g>
		<g>
			<linearGradient id="SVGID_2_" gradientUnits="userSpaceOnUse" x1="5.1425" y1="71.2401" x2="-6.9763" y2="98.3291">
				<stop  offset="1.255536e-03" style="stop-color:#4F2A45"/>
				<stop  offset="0.9974" style="stop-color:#2E2229"/>
			</linearGradient>
			<path fill="url(#SVGID_2_)" d="M-9,50.1l-43.5,25.1l63.1,36.7l43.5-25.1L-9,50.1z M0.3,84.3l-4.8-0.2L0.3,84.3L0.3,84.3z"/>
			<g>
				<g>
					<polygon fill="#FFBD59" points="-52.6,75.2 -52.6,79.1 10.6,115.8 10.6,111.9 					"/>
				</g>
			</g>
			<g>
				<g>
					<linearGradient id="SVGID_3_" gradientUnits="userSpaceOnUse" x1="31.9379" y1="101.5931" x2="60.0963" y2="82.3456">
						<stop  offset="0" style="stop-color:#552E4A"/>
						<stop  offset="0.9899" style="stop-color:#D294AE"/>
					</linearGradient>
					<polygon fill="url(#SVGID_3_)" points="10.6,111.9 10.6,115.8 54.1,90.7 54.1,86.8 					"/>
				</g>
			</g>
		</g>
		<g>
			<g>
				<g>
					<path fill="#BC4274" d="M25,63c-1.6-1.1-5.4-4.6-5.4-4.6L18.8,65c-4.6,4.3-10.6-1.7-10.6-1.7l0,0c0,0-3.8,6.1,1.8,11.2
						c5.6,5,12.1,2.3,18.9-3.4C28.9,71.1,30.2,66.6,25,63z"/>
				</g>
			</g>
		</g>
		<g>
			<g>
				<g>
					<g>
						<path fill="#D1DDFF" d="M26,63.5l-2.3-1.4c-0.2-0.1-0.5-0.1-0.6,0l-1.8,1.1c-0.2,0.1-0.2,0.3,0,0.4l2.3,1.4
							c0.2,0.1,0.5,0.1,0.6,0l1.8-1.1C26.1,63.8,26.1,63.6,26,63.5z"/>
					</g>
				</g>
			</g>
			<g>
				<g>
					<path fill="#FFFFFF" d="M38.5,62.8l-13.3-8.1c-0.2-0.1-0.5-0.1-0.7,0L15,60.2c-0.2,0.1-0.2,0.3,0,0.4l13.3,8.1
						c0.2,0.1,0.5,0.1,0.7,0l9.5-5.5C38.7,63.1,38.7,62.9,38.5,62.8z M25.9,63.9L24.1,65c-0.2,0.1-0.5,0.1-0.6,0l-2.3-1.4
						c-0.2-0.1-0.2-0.3,0-0.4l1.8-1.1c0.2-0.1,0.5-0.1,0.6,0l2.3,1.4C26.1,63.6,26.1,63.8,25.9,63.9z M31.8,66.1l-12.4-7.5l5-2.9
						l12.4,7.5L31.8,66.1z"/>
				</g>
			</g>
			<g>
				<g>
					<path fill="#D1DDFF" d="M38.5,63.2L29,68.7c0,0,0,0-0.1,0c0,0,0,0,0,0c0,0,0,0-0.1,0c0,0,0,0,0,0c0,0-0.1,0-0.1,0c0,0,0,0,0,0
						c0,0-0.1,0-0.1,0c0,0,0,0,0,0c0,0-0.1,0-0.1,0c0,0,0,0,0,0c0,0,0,0-0.1,0c0,0,0,0,0,0c0,0,0,0,0,0c0,0-0.1,0-0.1,0L15,60.6
						c0,0,0,0,0,0c0,0,0,0,0,0c0,0,0,0,0,0c0,0,0,0,0,0c0,0,0,0,0,0c0,0,0,0,0,0c0,0,0,0,0-0.1l0,0.7v0c0,0,0,0,0,0c0,0,0,0,0,0
						c0,0,0,0,0,0c0,0,0,0,0,0c0,0,0,0,0,0c0,0,0,0,0,0c0,0,0,0,0,0c0,0,0,0,0,0c0,0,0,0,0,0c0,0,0,0,0,0c0,0,0,0,0,0c0,0,0,0,0,0
						c0,0,0,0,0,0l13.3,8.1c0,0,0.1,0,0.1,0c0,0,0,0,0,0c0,0,0,0,0,0c0,0,0,0,0,0c0,0,0,0,0,0c0,0,0,0,0,0c0,0,0,0,0,0l0,0
						c0,0,0,0,0.1,0c0,0,0,0,0,0c0,0,0,0,0,0c0,0,0,0,0,0c0,0,0,0,0,0c0,0,0,0,0,0c0,0,0,0,0,0c0,0,0,0,0,0c0,0,0,0,0,0c0,0,0,0,0,0
						c0,0,0,0,0,0c0,0,0,0,0,0c0,0,0,0,0,0c0,0,0,0,0,0c0,0,0,0,0,0c0,0,0,0,0.1,0l9.5-5.5c0.1-0.1,0.2-0.1,0.2-0.2l0-0.7
						C38.6,63.1,38.6,63.2,38.5,63.2z"/>
				</g>
			</g>
			<g>
				<g>
					<g>
						<polygon fill="#D1DDFF" points="19.1,58.5 32,66.3 37.1,63.3 24.3,55.5 						"/>
					</g>
				</g>
			</g>
			<g>
				<g>
					<g>
						<path fill="#4C4DC3" d="M36.3,63.4C36.3,63.4,36.3,63.4,36.3,63.4L36.3,63.4C36.2,63.4,36.2,63.4,36.3,63.4L36.3,63.4
							c-0.1,0-0.1,0-0.1,0c0,0,0,0,0,0c0,0,0,0,0,0L35.5,63c0,0,0,0,0,0l0.4-0.2c0,0,0,0,0-0.1l0-0.2c0,0,0,0,0,0.1l-0.5,0.3
							c0,0,0,0,0,0l0,0c0,0,0,0,0,0l0,0c0,0,0,0,0,0c0,0,0,0,0,0c0,0,0,0,0,0l-0.6-0.4c0,0,0,0,0,0l0.4-0.2c0,0,0,0,0,0l0-0.2
							c0,0,0,0,0,0.1l-0.5,0.3c0,0,0,0,0,0h0c0,0,0,0,0,0h0c0,0,0,0,0,0c0,0,0,0,0,0c0,0,0,0,0,0L33.9,62c0,0,0,0,0,0l0.4-0.2
							c0,0,0,0,0-0.1l0-0.2c0,0,0,0,0,0.1l-0.5,0.3c0,0,0,0,0,0h0c0,0,0,0,0,0l0,0c0,0,0,0,0,0c0,0,0,0,0,0c0,0,0,0,0,0L33,61.5
							c0,0,0,0,0,0l0.4-0.2c0,0,0,0,0-0.1l0-0.2c0,0,0,0,0,0c0,0,0,0,0,0L33,61.3c0,0,0,0,0,0c0,0,0,0,0,0c0,0,0,0,0,0h0
							c0,0,0,0,0,0h0c0,0,0,0,0,0L32.2,61c0,0,0,0,0,0l0.4-0.2c0,0,0,0,0-0.1l0-0.2c0,0,0,0,0,0s0,0,0,0l-0.5,0.3c0,0,0,0,0,0
							c0,0,0,0,0,0c0,0,0,0,0,0h0c0,0,0,0,0,0c0,0,0,0,0,0c0,0,0,0,0,0l-0.6-0.4c0,0,0,0,0,0l0.4-0.2c0,0,0,0,0-0.1l0-0.2
							c0,0,0,0,0,0.1l-0.5,0.3c0,0,0,0,0,0h0c0,0,0,0,0,0h0c0,0,0,0,0,0c0,0,0,0,0,0c0,0,0,0,0,0L30.5,60c0,0,0,0,0,0l0.4-0.2
							c0,0,0,0,0-0.1l0-0.2c0,0,0,0,0,0.1l-0.5,0.3c0,0,0,0,0,0h0c0,0,0,0,0,0h0c0,0,0,0,0,0c0,0,0,0,0,0c0,0,0,0,0,0l-0.6-0.4
							c0,0,0,0,0,0l0.4-0.2c0,0,0,0,0-0.1l0-0.2c0,0,0,0,0,0.1l-0.5,0.3c0,0,0,0,0,0h0c0,0,0,0,0,0h0c0,0,0,0,0,0c0,0,0,0,0,0
							c0,0,0,0,0,0L28.9,59c0,0,0,0,0,0l0.4-0.2c0,0,0,0,0-0.1l0-0.2c0,0,0,0,0,0.1l-0.5,0.3c0,0,0,0,0,0h0c0,0,0,0,0,0l0,0
							c0,0,0,0,0,0c0,0,0,0,0,0c0,0,0,0,0,0L28,58.5c0,0,0,0,0,0l0.4-0.2c0,0,0,0,0-0.1l0-0.2c0,0,0,0,0,0.1L28,58.3c0,0,0,0,0,0
							l0,0c0,0,0,0,0,0h0c0,0,0,0,0,0c0,0,0,0,0,0c0,0,0,0,0,0L27.2,58c0,0,0,0,0,0l0.4-0.2c0,0,0,0,0-0.1l0-0.2c0,0,0,0,0,0.1
							l-0.5,0.3c0,0,0,0,0,0c0,0,0,0,0,0c0,0,0,0,0,0l0,0c0,0,0,0,0,0l0,0c0,0,0,0,0,0l-0.6-0.4c0,0,0,0,0,0v0c0,0,0,0,0,0l0.4-0.2
							c0,0,0,0,0-0.1l0-0.2c0,0,0,0,0,0l-0.5,0.3c0,0,0,0,0,0v0c0,0,0,0,0,0h0c0,0,0,0,0,0c0,0,0,0,0,0c0,0,0,0,0,0l-0.6-0.4
							c0,0,0,0,0,0l0.4-0.2c0,0,0,0,0-0.1l0-0.2c0,0,0,0,0,0.1l-0.5,0.3c0,0,0,0,0,0l0,0c0,0,0,0,0,0h0c0,0,0,0,0,0c0,0,0,0,0,0
							c0,0,0,0,0,0l-0.6-0.4c0,0,0,0,0,0l0.4-0.2c0,0,0,0,0,0l0-0.2c0,0,0,0,0,0.1l-0.5,0.3c0,0,0,0,0,0l0,0c0,0,0,0,0,0h0
							c0,0,0,0,0,0c0,0,0,0,0,0c0,0,0,0,0,0l-0.6-0.4c0,0,0,0,0,0c0,0,0,0,0,0c0,0,0,0,0,0l0,0.2v0l0,0c0,0,0,0,0,0c0,0,0,0,0,0
							c0,0,0,0,0,0l0,0c0,0,0,0,0,0c0,0,0,0,0,0c0,0,0,0,0,0h0l0.6,0.4c0,0,0,0,0,0c0,0,0,0,0,0c0,0,0,0,0,0c0,0,0,0,0,0
							c0,0,0,0,0,0c0,0,0,0,0,0h0c0,0,0,0,0,0s0,0,0,0c0,0,0,0,0,0c0,0,0,0,0,0c0,0,0,0,0,0c0,0,0,0,0,0c0,0,0,0,0,0c0,0,0,0,0,0
							l0,0l0,0.1v0c0,0,0,0,0,0l0,0c0,0,0,0,0,0c0,0,0,0,0,0l0,0c0,0,0,0,0,0c0,0,0,0,0,0c0,0,0,0,0,0l0,0l0.6,0.4c0,0,0,0,0,0
							c0,0,0,0,0,0c0,0,0,0,0,0c0,0,0,0,0,0c0,0,0,0,0,0c0,0,0,0,0,0h0h0h0c0,0,0,0,0,0c0,0,0,0,0,0c0,0,0,0,0,0c0,0,0,0,0,0l0,0
							c0,0,0,0,0,0c0,0,0,0,0,0c0,0,0,0,0,0l0,0l0,0.1v0c0,0,0,0,0,0c0,0,0,0,0,0c0,0,0,0,0,0c0,0,0,0,0,0v0l0,0c0,0,0,0,0,0
							c0,0,0,0,0,0v0l0.3,0.2c0,0,0,0,0,0l-0.5,0.3c0,0,0,0,0,0h0c0,0,0,0,0,0h0c0,0,0,0,0,0c0,0,0,0,0,0c0,0,0,0,0,0l-2-1.2
							c0,0,0,0,0,0v0c0,0,0,0,0,0l0,0.2v0c0,0,0,0,0,0l0,0c0,0,0,0,0,0c0,0,0,0,0,0v0l0,0c0,0,0,0,0,0c0,0,0,0,0,0l0,0l0.6,0.3
							c0,0,0,0,0,0l-0.5,0.3c0,0,0,0,0,0c0,0,0,0,0,0c0,0,0,0,0,0c0,0,0,0,0,0c0,0,0,0,0,0c0,0,0,0,0,0c0,0,0,0,0,0l-0.6-0.4
							c0,0,0,0,0,0h0c0,0,0,0,0,0l0,0.2v0c0,0,0,0,0,0c0,0,0,0,0,0c0,0,0,0,0,0c0,0,0,0,0,0c0,0,0,0,0,0c0,0,0,0,0,0c0,0,0,0,0,0
							l0,0l0.4,0.2c0,0,0,0,0,0l-1.2,0.7c0,0,0,0,0,0l0,0c0,0,0,0,0,0h0c0,0,0,0,0,0c0,0,0,0,0,0c0,0,0,0,0,0L21,57.6c0,0,0,0,0,0v0
							c0,0,0,0,0,0l0,0.2c0,0,0,0,0,0v0c0,0,0,0,0,0c0,0,0,0,0,0l0,0v0c0,0,0,0,0,0c0,0,0,0,0,0c0,0,0,0,0,0l0.4,0.2c0,0,0,0,0,0
							l-1.2,0.7c0,0,0,0,0,0l0,0c0,0,0,0,0,0h0c0,0,0,0,0,0c0,0,0,0,0,0c0,0,0,0,0,0l-0.4-0.3c0,0,0,0,0,0l0,0c0,0,0,0,0,0l0,0.2v0
							c0,0,0,0,0,0s0,0,0,0l0,0v0v0c0,0,0,0,0,0c0,0,0,0,0,0c0,0,0,0,0,0l0.4,0.3c0,0,0,0,0,0c0,0,0,0,0,0c0,0,0,0,0,0c0,0,0,0,0,0
							c0,0,0,0,0,0c0,0,0,0,0,0h0c0,0,0,0,0,0c0,0,0,0,0,0c0,0,0,0,0,0h0c0,0,0,0,0,0c0,0,0,0,0,0c0,0,0,0,0,0l0.8-0.4l0,0.1v0
							c0,0,0,0,0,0c0,0,0,0,0,0c0,0,0,0,0,0c0,0,0,0,0,0v0l0,0c0,0,0,0,0,0c0,0,0,0,0,0l0,0l0.7,0.4c0,0,0,0,0,0c0,0,0,0,0,0
							c0,0,0,0,0,0c0,0,0,0,0,0c0,0,0,0,0,0c0,0,0,0,0,0h0h0h0c0,0,0,0,0,0s0,0,0,0c0,0,0,0,0,0l0,0l0,0c0,0,0,0,0,0c0,0,0,0,0,0
							c0,0,0,0,0,0l0.1,0l0,0.1v0l0,0c0,0,0,0,0,0c0,0,0,0,0,0s0,0,0,0c0,0,0,0,0,0c0,0,0,0,0,0c0,0,0,0,0,0c0,0,0,0,0,0l0,0
							l0.3,0.2c0,0,0,0,0,0c0,0,0,0,0,0c0,0,0,0,0,0c0,0,0,0,0,0c0,0,0,0,0,0c0,0,0,0,0,0h0c0,0,0,0,0,0c0,0,0,0,0,0c0,0,0,0,0,0
							c0,0,0,0,0,0c0,0,0,0,0,0c0,0,0,0,0,0c0,0,0,0,0,0c0,0,0,0,0,0l0.1,0l0,0.2v0c0,0,0,0,0,0c0,0,0,0,0,0c0,0,0,0,0,0
							c0,0,0,0,0,0l0,0l0,0c0,0,0,0,0,0c0,0,0,0,0,0h0l0.1,0.1c0,0,0,0,0,0l-0.5,0.3c0,0,0,0,0,0c0,0,0,0,0,0c0,0,0,0,0,0h0
							c0,0,0,0,0,0c0,0,0,0,0,0c0,0,0,0,0,0l-0.6-0.4c0,0,0,0,0,0l0.4-0.2c0,0,0,0,0-0.1l0-0.2c0,0,0,0,0,0.1l-0.5,0.3c0,0,0,0,0,0
							l0,0c0,0,0,0,0,0h0c0,0,0,0,0,0c0,0,0,0,0,0c0,0,0,0,0,0L20.5,59c0,0,0,0,0,0c0,0,0,0,0,0c0,0,0,0,0,0l0,0.2l0,0c0,0,0,0,0,0
							c0,0,0,0,0,0c0,0,0,0,0,0c0,0,0,0,0,0c0,0,0,0,0,0c0,0,0,0,0,0c0,0,0,0,0,0h0l0.6,0.4c0,0,0,0,0,0c0,0,0,0,0,0c0,0,0,0,0,0
							c0,0,0,0,0,0c0,0,0,0,0,0c0,0,0,0,0,0h0c0,0,0,0,0,0c0,0,0,0,0,0c0,0,0,0,0,0l0,0c0,0,0,0,0,0c0,0,0,0,0,0c0,0,0,0,0,0
							c0,0,0,0,0,0l0,0l0,0.1v0v0c0,0,0,0,0,0c0,0,0,0,0,0s0,0,0,0h0v0c0,0,0,0,0,0c0,0,0,0,0,0l0,0l0.6,0.4c0,0,0,0,0,0
							c0,0,0,0,0,0c0,0,0,0,0,0c0,0,0,0,0,0c0,0,0,0,0,0c0,0,0,0,0,0h0h0h0c0,0,0,0,0,0c0,0,0,0,0,0c0,0,0,0,0,0l0,0l0,0
							c0,0,0,0,0,0c0,0,0,0,0,0c0,0,0,0,0,0l0.1,0l0,0.1l0,0c0,0,0,0,0,0c0,0,0,0,0,0s0,0,0,0v0c0,0,0,0,0,0c0,0,0,0,0,0
							c0,0,0,0,0,0c0,0,0,0,0,0l0.6,0.4c0,0,0,0,0,0c0,0,0,0,0,0c0,0,0,0,0,0c0,0,0,0,0,0c0,0,0,0,0,0s0,0,0,0h0c0,0,0,0,0,0
							c0,0,0,0,0,0c0,0,0,0,0,0c0,0,0,0,0,0h0c0,0,0,0,0,0c0,0,0,0,0,0c0,0,0,0,0,0l0,0l0,0.1v0c0,0,0,0,0,0c0,0,0,0,0,0
							c0,0,0,0,0,0l0,0l0,0v0c0,0,0,0,0,0c0,0,0,0,0,0h0l0.6,0.4c0,0,0,0,0,0c0,0,0,0,0,0c0,0,0,0,0,0c0,0,0,0,0,0c0,0,0,0,0,0
							c0,0,0,0,0,0h0h0h0c0,0,0,0,0,0c0,0,0,0,0,0c0,0,0,0,0,0c0,0,0,0,0,0h0c0,0,0,0,0,0c0,0,0,0,0,0c0,0,0,0,0,0l0,0l0,0.1l0,0v0
							c0,0,0,0,0,0c0,0,0,0,0,0c0,0,0,0,0,0v0c0,0,0,0,0,0c0,0,0,0,0,0c0,0,0,0,0,0v0l3.9,2.4c0,0,0,0,0,0c0,0,0,0,0,0c0,0,0,0,0,0
							c0,0,0,0,0,0c0,0,0,0,0,0c0,0,0,0,0,0h0c0,0,0,0,0,0c0,0,0,0,0,0c0,0,0,0,0,0l0,0c0,0,0,0,0,0c0,0,0,0,0,0c0,0,0,0,0,0
							c0,0,0,0,0,0l0,0l0,0.1c0,0,0,0,0,0c0,0,0,0,0,0c0,0,0,0,0,0c0,0,0,0,0,0v0l0,0l0,0c0,0,0,0,0,0l0,0l0.6,0.4c0,0,0,0,0,0
							c0,0,0,0,0,0c0,0,0,0,0,0c0,0,0,0,0,0c0,0,0,0,0,0c0,0,0,0,0,0h0c0,0,0,0,0,0h0c0,0,0,0,0,0c0,0,0,0,0,0c0,0,0,0,0,0
							c0,0,0,0,0,0c0,0,0,0,0,0c0,0,0,0,0,0c0,0,0,0,0,0l0,0l0,0.1v0c0,0,0,0,0,0c0,0,0,0,0,0c0,0,0,0,0,0c0,0,0,0,0,0v0l0,0
							c0,0,0,0,0,0c0,0,0,0,0,0v0l0.6,0.4c0,0,0,0,0,0c0,0,0,0,0,0c0,0,0,0,0,0c0,0,0,0,0,0c0,0,0,0,0,0c0,0,0,0,0,0h0h0h0
							c0,0,0,0,0,0s0,0,0,0c0,0,0,0,0,0c0,0,0,0,0,0l0,0c0,0,0,0,0,0c0,0,0,0,0,0s0,0,0,0l0,0l0,0.1v0v0c0,0,0,0,0,0c0,0,0,0,0,0
							c0,0,0,0,0,0v0c0,0,0,0,0,0c0,0,0,0,0,0c0,0,0,0,0,0c0,0,0,0,0,0l0.6,0.4c0,0,0,0,0,0c0,0,0,0,0,0c0,0,0,0,0,0c0,0,0,0,0,0
							c0,0,0,0,0,0c0,0,0,0,0,0h0c0,0,0,0,0,0c0,0,0,0,0,0c0,0,0,0,0,0l0,0h0c0,0,0,0,0,0c0,0,0,0,0,0c0,0,0,0,0,0l0,0l0,0.1
							c0,0,0,0,0,0c0,0,0,0,0,0s0,0,0,0c0,0,0,0,0,0v0c0,0,0,0,0,0c0,0,0,0,0,0c0,0,0,0,0,0l0,0l0.6,0.4c0,0,0,0,0,0c0,0,0,0,0,0
							c0,0,0,0,0,0c0,0,0,0,0,0c0,0,0,0,0,0c0,0,0,0,0,0h0c0,0,0,0,0,0c0,0,0,0,0,0h0c0,0,0,0,0,0c0,0,0,0,0,0c0,0,0,0,0,0
							c0,0,0,0,0,0l0,0l0,0.1v0c0,0,0,0,0,0c0,0,0,0,0,0c0,0,0,0,0,0v0c0,0,0,0,0,0c0,0,0,0,0,0c0,0,0,0,0,0v0l0.5,0.3c0,0,0,0,0,0
							c0,0,0,0,0,0c0,0,0,0,0,0c0,0,0,0,0,0c0,0,0,0,0,0c0,0,0,0,0,0h0h0h0c0,0,0,0,0,0c0,0,0,0,0,0h0c0,0,0,0,0,0c0,0,0,0,0,0
							c0,0,0,0,0,0c0,0,0,0,0,0l0.5-0.3c0,0,0,0,0-0.1l0-0.2c0,0,0,0,0,0c0,0,0,0,0,0h0c0,0,0,0,0,0c0,0,0,0,0,0c0,0,0,0,0,0
							c0,0,0,0,0,0l0.5-0.3c0,0,0,0,0-0.1l0-0.1l0.2,0.1c0,0,0,0,0,0c0,0,0,0,0,0c0,0,0,0,0,0c0,0,0,0,0,0c0,0,0,0,0,0c0,0,0,0,0,0
							h0c0,0,0,0,0,0c0,0,0,0,0,0c0,0,0,0,0,0l0,0c0,0,0,0,0,0c0,0,0,0,0,0c0,0,0,0,0,0c0,0,0,0,0,0l0.5-0.3c0,0,0,0,0-0.1l0-0.1
							l0,0c0,0,0,0,0,0c0,0,0,0,0,0c0,0,0,0,0,0c0,0,0,0,0,0c0,0,0,0,0,0c0,0,0,0,0,0h0h0h0c0,0,0,0,0,0c0,0,0,0,0,0c0,0,0,0,0,0
							c0,0,0,0,0,0c0,0,0,0,0,0c0,0,0,0,0,0c0,0,0,0,0,0c0,0,0,0,0,0l0.5-0.3c0,0,0,0,0-0.1l0-0.1l0,0c0,0,0,0,0,0c0,0,0,0,0,0
							c0,0,0,0,0,0c0,0,0,0,0,0c0,0,0,0,0,0h0c0,0,0,0,0,0c0,0,0,0,0,0h0c0,0,0,0,0,0s0,0,0,0c0,0,0,0,0,0c0,0,0,0,0,0l0,0
							c0,0,0,0,0,0c0,0,0,0,0,0c0,0,0,0,0,0l0.5-0.3c0,0,0,0,0-0.1l0-0.2c0,0,0,0,0,0.1l-0.5,0.3c0,0,0,0,0,0h0c0,0,0,0,0,0h0
							c0,0,0,0,0,0c0,0,0,0,0,0c0,0,0,0,0,0l-1.3-0.8c0,0,0,0,0,0l0,0c0,0,0,0,0,0l0.4-0.2c0,0,0,0,0-0.1l0-0.1l0.5,0.3c0,0,0,0,0,0
							c0,0,0,0,0,0c0,0,0,0,0,0c0,0,0,0,0,0c0,0,0,0,0,0h0h0c0,0,0,0,0,0h0c0,0,0,0,0,0c0,0,0,0,0,0c0,0,0,0,0,0l0,0c0,0,0,0,0,0
							c0,0,0,0,0,0c0,0,0,0,0,0l0,0l0,0.1v0c0,0,0,0,0,0c0,0,0,0,0,0l0,0c0,0,0,0,0,0s0,0,0,0c0,0,0,0,0,0c0,0,0,0,0,0l0,0l0.6,0.4
							c0,0,0,0,0,0c0,0,0,0,0,0c0,0,0,0,0,0c0,0,0,0,0,0c0,0,0,0,0,0c0,0,0,0,0,0h0c0,0,0,0,0,0c0,0,0,0,0,0c0,0,0,0,0,0l0,0
							c0,0,0,0,0,0c0,0,0,0,0,0c0,0,0,0,0,0c0,0,0,0,0,0l0,0l0.5-0.3c0,0,0,0,0-0.1l0-0.1l0.3,0.2c0,0,0,0,0,0c0,0,0,0,0,0
							c0,0,0,0,0,0c0,0,0,0,0,0c0,0,0,0,0,0c0,0,0,0,0,0h0h0h0c0,0,0,0,0,0c0,0,0,0,0,0c0,0,0,0,0,0h0c0,0,0,0,0,0c0,0,0,0,0,0
							c0,0,0,0,0,0l0.5-0.3c0,0,0,0,0-0.1l0-0.2c0,0,0,0,0,0L36.3,63.4z M25.5,57.9l-0.6,0.4l0,0.2l0.2-0.1l0,0.1c0,0,0,0,0,0
							c0,0,0,0,0,0c0,0,0,0,0,0c0,0,0,0,0,0c0,0,0,0,0,0l0,0c0,0,0,0,0,0c0,0,0,0,0,0c0,0,0,0,0,0l0.3,0.2c0,0,0,0,0,0L24.8,59
							c0,0,0,0,0,0h0c0,0,0,0,0,0h0c0,0,0,0,0,0c0,0,0,0,0,0c0,0,0,0,0,0l-1.1-0.7c0,0,0,0,0,0c0,0,0,0,0,0c0,0,0,0,0,0l0,0.2v0v0
							c0,0,0,0,0,0c0,0,0,0,0,0c0,0,0,0,0,0c0,0,0,0,0,0v0c0,0,0,0,0,0c0,0,0,0,0,0h0l0.5,0.3c0,0,0,0,0,0L23.6,59c0,0,0,0,0,0
							c0,0,0,0,0,0c0,0,0,0,0,0h0c0,0,0,0,0,0c0,0,0,0,0,0c0,0,0,0,0,0l-0.8-0.5c0,0,0,0,0,0c0,0,0,0,0,0c0,0,0,0,0,0l0.4-0.2
							c0,0,0,0,0-0.1l0-0.1l0,0c0,0,0,0,0,0c0,0,0,0,0,0c0,0,0,0,0,0c0,0,0,0,0,0c0,0,0,0,0,0c0,0,0,0,0,0h0c0,0,0,0,0,0s0,0,0,0
							c0,0,0,0,0,0l0,0l0,0c0,0,0,0,0,0c0,0,0,0,0,0c0,0,0,0,0,0l0.5-0.3c0,0,0,0,0-0.1l0-0.1l0.2,0.1c0,0,0,0,0,0c0,0,0,0,0,0
							c0,0,0,0,0,0c0,0,0,0,0,0c0,0,0,0,0,0c0,0,0,0,0,0h0h0h0c0,0,0,0,0,0c0,0,0,0,0,0c0,0,0,0,0,0c0,0,0,0,0,0h0c0,0,0,0,0,0
							c0,0,0,0,0,0c0,0,0,0,0,0l0.5-0.3c0,0,0,0,0-0.1l0-0.1l0.5,0.3c0,0,0,0,0,0c0,0,0,0,0,0c0,0,0,0,0,0s0,0,0,0c0,0,0,0,0,0
							c0,0,0,0,0,0h0c0,0,0,0,0,0c0,0,0,0,0,0c0,0,0,0,0,0h0c0,0,0,0,0,0c0,0,0,0,0,0c0,0,0,0,0,0l0.1,0l0,0.1v0c0,0,0,0,0,0l0,0
							c0,0,0,0,0,0c0,0,0,0,0,0l0,0l0,0C25.4,57.9,25.4,57.9,25.5,57.9C25.4,57.9,25.4,57.9,25.5,57.9
							C25.4,57.9,25.4,57.9,25.5,57.9L25.5,57.9C25.5,57.9,25.5,57.9,25.5,57.9z"/>
					</g>
				</g>
				<g>
					<g>
						<path fill="#4C4DC3" d="M22.4,57.8C22.4,57.8,22.4,57.8,22.4,57.8C22.4,57.8,22.4,57.8,22.4,57.8
							C22.4,57.8,22.4,57.8,22.4,57.8L22.4,57.8C22.4,57.8,22.4,57.8,22.4,57.8C22.4,57.8,22.4,57.8,22.4,57.8
							C22.4,57.8,22.4,57.8,22.4,57.8L22.4,57.8L22.4,57.8l0-0.2L21.7,58c0,0,0,0,0,0l0.6,0.4c0,0,0,0,0,0c0,0,0,0,0,0c0,0,0,0,0,0
							h0c0,0,0,0,0,0l0,0c0,0,0,0,0,0l0.5-0.3c0,0,0,0,0,0L22.4,57.8L22.4,57.8z"/>
					</g>
				</g>
				<g>
					<g>
						<path fill="#4C4DC3" d="M23.3,57.5C23.3,57.5,23.3,57.5,23.3,57.5C23.3,57.5,23.3,57.5,23.3,57.5L23.3,57.5L23.3,57.5
							C23.3,57.5,23.3,57.5,23.3,57.5C23.3,57.4,23.3,57.4,23.3,57.5C23.3,57.4,23.3,57.4,23.3,57.5L23.3,57.5L23.3,57.5l0-0.2l0,0
							c0,0,0,0,0,0c0,0,0,0,0,0c0,0,0,0,0,0h0c0,0,0,0,0,0c0,0,0,0,0,0c0,0,0,0,0,0c0,0,0,0,0,0c0,0,0,0,0,0h0c0,0,0,0,0,0
							c0,0,0,0,0,0s0,0,0,0c0,0,0,0,0,0c0,0,0,0,0,0c0,0,0,0,0,0c0,0,0,0,0,0l-0.2-0.1l0,0.1c0,0,0,0,0,0.1l-0.4,0.2c0,0,0,0,0,0
							l0.6,0.4c0,0,0,0,0,0c0,0,0,0,0,0c0,0,0,0,0,0h0c0,0,0,0,0,0l0,0c0,0,0,0,0,0l0.5-0.3c0,0,0,0,0,0L23.3,57.5L23.3,57.5z"/>
					</g>
				</g>
				<g>
					<g>
						<path fill="#4C4DC3" d="M23.8,57C23.8,57,23.7,57.1,23.8,57l-0.4,0.3c0,0,0,0,0,0l0.6,0.4c0,0,0,0,0,0c0,0,0,0,0,0
							c0,0,0,0,0,0h0c0,0,0,0,0,0l0,0c0,0,0,0,0,0l0.5-0.3c0,0,0,0,0,0l-0.8-0.5L23.8,57z"/>
					</g>
				</g>
				<g>
					<g>
						<path fill="#4C4DC3" d="M24.9,59.1L24.9,59.1C24.8,59.1,24.8,59.1,24.9,59.1C24.8,59.2,24.8,59.2,24.9,59.1
							C24.8,59.2,24.8,59.2,24.9,59.1L24.9,59.1C24.8,59.2,24.8,59.2,24.9,59.1c-0.1,0-0.1,0-0.1,0c0,0,0,0,0,0c0,0,0,0,0,0
							c0,0,0,0,0,0h0c0,0,0,0,0,0c0,0,0,0,0,0c0,0,0,0,0,0c0,0,0,0,0,0c0,0,0,0,0,0c0,0,0,0,0,0c0,0,0,0,0,0l-0.6-0.4l0,0.1
							c0,0,0,0,0,0.1l-0.4,0.2c0,0,0,0,0,0l0,0c0,0,0,0,0,0l0.6,0.4c0,0,0,0,0,0c0,0,0,0,0,0c0,0,0,0,0,0h0c0,0,0,0,0,0l0,0
							c0,0,0,0,0,0l0.5-0.3c0,0,0,0,0,0c0,0,0,0,0,0c0,0,0,0,0,0v0v0L24.9,59.1z"/>
					</g>
				</g>
				<g>
					<g>
						<path fill="#4C4DC3" d="M25.3,60.4C25.3,60.4,25.3,60.4,25.3,60.4C25.3,60.4,25.3,60.4,25.3,60.4
							C25.3,60.4,25.3,60.4,25.3,60.4L25.3,60.4C25.3,60.3,25.3,60.3,25.3,60.4C25.3,60.3,25.3,60.3,25.3,60.4
							C25.3,60.3,25.3,60.3,25.3,60.4L25.3,60.4L25.3,60.4l0-0.2l0,0c0,0,0,0,0,0c0,0,0,0,0,0c0,0,0,0,0,0l0,0c0,0,0,0,0,0
							c0,0,0,0,0,0c0,0,0,0,0,0s0,0,0,0c0,0,0,0,0,0h0c0,0,0,0,0,0c0,0,0,0,0,0c0,0,0,0,0,0l0,0c0,0,0,0,0,0c0,0,0,0,0,0
							c0,0,0,0,0,0L24.7,60l0,0.1c0,0,0,0,0,0.1l-0.4,0.2c0,0,0,0,0,0l0.6,0.4c0,0,0,0,0,0c0,0,0,0,0,0c0,0,0,0,0,0h0c0,0,0,0,0,0h0
							c0,0,0,0,0,0l0.5-0.3c0,0,0,0,0,0L25.3,60.4L25.3,60.4z"/>
					</g>
				</g>
				<g>
					<g>
						<path fill="#4C4DC3" d="M26.1,60.9C26.1,60.9,26.1,60.9,26.1,60.9C26.1,60.9,26.1,60.9,26.1,60.9
							C26.1,60.9,26.1,60.9,26.1,60.9L26.1,60.9C26.1,60.9,26.1,60.9,26.1,60.9C26.1,60.8,26.1,60.8,26.1,60.9
							C26.1,60.8,26.1,60.8,26.1,60.9L26.1,60.9L26.1,60.9l0-0.2l0,0c0,0,0,0,0,0c0,0,0,0,0,0c0,0,0,0,0,0l0,0c0,0,0,0,0,0
							c0,0,0,0,0,0c0,0,0,0,0,0c0,0,0,0,0,0c0,0,0,0,0,0l0,0c0,0,0,0,0,0c0,0,0,0,0,0s0,0,0,0c0,0,0,0,0,0c0,0,0,0,0,0c0,0,0,0,0,0
							c0,0,0,0,0,0l-0.3-0.2l0,0.1c0,0,0,0,0,0.1l-0.4,0.2c0,0,0,0,0,0l0.6,0.4c0,0,0,0,0,0c0,0,0,0,0,0c0,0,0,0,0,0h0c0,0,0,0,0,0
							h0c0,0,0,0,0,0l0.5-0.3c0,0,0,0,0,0L26.1,60.9L26.1,60.9z"/>
					</g>
				</g>
				<g>
					<g>
						<path fill="#4C4DC3" d="M27,61.4C27,61.4,26.9,61.4,27,61.4C26.9,61.4,26.9,61.4,27,61.4C26.9,61.4,26.9,61.4,27,61.4L27,61.4
							C26.9,61.4,26.9,61.4,27,61.4C26.9,61.4,26.9,61.4,27,61.4C26.9,61.3,26.9,61.3,27,61.4L27,61.4L27,61.4l0-0.2l0,0
							c0,0,0,0,0,0c0,0,0,0,0,0c0,0,0,0,0,0l0,0c0,0,0,0,0,0c0,0,0,0,0,0c0,0,0,0,0,0s0,0,0,0c0,0,0,0,0,0h0c0,0,0,0,0,0
							c0,0,0,0,0,0c0,0,0,0,0,0c0,0,0,0,0,0c0,0,0,0,0,0c0,0,0,0,0,0c0,0,0,0,0,0L26.4,61l0,0.1c0,0,0,0,0,0.1l-0.4,0.2c0,0,0,0,0,0
							l0.6,0.4c0,0,0,0,0,0c0,0,0,0,0,0c0,0,0,0,0,0h0c0,0,0,0,0,0h0c0,0,0,0,0,0l0.5-0.3c0,0,0,0,0,0L27,61.4L27,61.4z"/>
					</g>
				</g>
				<g>
					<g>
						<path fill="#4C4DC3" d="M27.8,61.9C27.8,61.9,27.8,61.9,27.8,61.9C27.8,61.9,27.8,61.9,27.8,61.9
							C27.8,61.9,27.8,61.9,27.8,61.9L27.8,61.9C27.8,61.9,27.8,61.9,27.8,61.9C27.8,61.9,27.8,61.9,27.8,61.9
							C27.8,61.8,27.8,61.8,27.8,61.9L27.8,61.9L27.8,61.9l0-0.2l0,0c0,0,0,0,0,0c0,0,0,0,0,0c0,0,0,0,0,0h0c0,0,0,0,0,0
							c0,0,0,0,0,0c0,0,0,0,0,0s0,0,0,0c0,0,0,0,0,0l0,0c0,0,0,0,0,0c0,0,0,0,0,0c0,0,0,0,0,0c0,0,0,0,0,0c0,0,0,0,0,0c0,0,0,0,0,0
							c0,0,0,0,0,0l-0.3-0.2l0,0.1c0,0,0,0,0,0.1L26.8,62c0,0,0,0,0,0l0.6,0.4c0,0,0,0,0,0c0,0,0,0,0,0c0,0,0,0,0,0h0c0,0,0,0,0,0h0
							c0,0,0,0,0,0l0.5-0.3c0,0,0,0,0,0L27.8,61.9L27.8,61.9L27.8,61.9z"/>
					</g>
				</g>
				<g>
					<g>
						<path fill="#4C4DC3" d="M28.6,62.4C28.6,62.4,28.6,62.4,28.6,62.4C28.6,62.4,28.6,62.4,28.6,62.4
							C28.6,62.4,28.6,62.4,28.6,62.4L28.6,62.4C28.6,62.4,28.6,62.4,28.6,62.4C28.6,62.4,28.6,62.4,28.6,62.4
							C28.6,62.4,28.6,62.3,28.6,62.4C28.6,62.3,28.6,62.3,28.6,62.4L28.6,62.4l0-0.2l0,0c0,0,0,0,0,0c0,0,0,0,0,0c0,0,0,0,0,0h0
							c0,0,0,0,0,0c0,0,0,0,0,0c0,0,0,0,0,0s0,0,0,0h0h0c0,0,0,0,0,0c0,0,0,0,0,0c0,0,0,0,0,0c0,0,0,0,0,0c0,0,0,0,0,0c0,0,0,0,0,0
							c0,0,0,0,0,0L28.1,62l0,0.1c0,0,0,0,0,0.1l-0.4,0.2c0,0,0,0,0,0l0.6,0.4c0,0,0,0,0,0c0,0,0,0,0,0c0,0,0,0,0,0h0c0,0,0,0,0,0
							l0,0c0,0,0,0,0,0l0.5-0.3c0,0,0,0,0,0L28.6,62.4L28.6,62.4z"/>
					</g>
				</g>
				<g>
					<g>
						<path fill="#4C4DC3" d="M29.5,62.9C29.5,62.9,29.4,62.9,29.5,62.9C29.4,62.9,29.4,62.9,29.5,62.9
							C29.4,62.9,29.4,62.9,29.5,62.9L29.5,62.9C29.4,62.9,29.4,62.9,29.5,62.9C29.4,62.9,29.4,62.9,29.5,62.9
							C29.4,62.9,29.4,62.9,29.5,62.9C29.4,62.8,29.4,62.8,29.5,62.9L29.5,62.9l0-0.2l0,0c0,0,0,0,0,0c0,0,0,0,0,0c0,0,0,0,0,0l0,0
							c0,0,0,0,0,0c0,0,0,0,0,0c0,0,0,0,0,0c0,0,0,0,0,0h0h0h0c0,0,0,0,0,0c0,0,0,0,0,0c0,0,0,0,0,0c0,0,0,0,0,0c0,0,0,0,0,0
							c0,0,0,0,0,0l-0.3-0.2l0,0.1c0,0,0,0,0,0.1L28.4,63c0,0,0,0,0,0l0.6,0.4c0,0,0,0,0,0c0,0,0,0,0,0c0,0,0,0,0,0h0c0,0,0,0,0,0
							l0,0c0,0,0,0,0,0l0.5-0.3c0,0,0,0,0,0L29.5,62.9L29.5,62.9z"/>
					</g>
				</g>
				<g>
					<g>
						<path fill="#4C4DC3" d="M30.3,63.4C30.3,63.4,30.3,63.4,30.3,63.4C30.3,63.4,30.3,63.4,30.3,63.4
							C30.3,63.4,30.3,63.4,30.3,63.4L30.3,63.4C30.3,63.4,30.3,63.4,30.3,63.4C30.3,63.4,30.3,63.4,30.3,63.4
							C30.3,63.4,30.3,63.4,30.3,63.4L30.3,63.4L30.3,63.4l0-0.2l0,0c0,0,0,0,0,0c0,0,0,0,0,0c0,0,0,0,0,0h0c0,0,0,0,0,0
							c0,0,0,0,0,0c0,0,0,0,0,0c0,0,0,0,0,0c0,0,0,0,0,0h0c0,0,0,0,0,0c0,0,0,0,0,0c0,0,0,0,0,0c0,0,0,0,0,0c0,0,0,0,0,0
							c0,0,0,0,0,0c0,0,0,0,0,0l-0.3-0.2l0,0.1c0,0,0,0,0,0.1l-0.4,0.2c0,0,0,0,0,0l0.6,0.4c0,0,0,0,0,0c0,0,0,0,0,0c0,0,0,0,0,0h0
							c0,0,0,0,0,0h0c0,0,0,0,0,0l0.5-0.3c0,0,0,0,0,0L30.3,63.4L30.3,63.4L30.3,63.4z"/>
					</g>
				</g>
				<g>
					<g>
						<path fill="#4C4DC3" d="M31.1,63.9C31.1,63.9,31.1,63.9,31.1,63.9C31.1,63.9,31.1,63.9,31.1,63.9
							C31.1,63.9,31.1,63.9,31.1,63.9L31.1,63.9C31.1,63.9,31.1,63.9,31.1,63.9C31.1,63.9,31.1,63.9,31.1,63.9
							C31.1,63.9,31.1,63.9,31.1,63.9C31.1,63.9,31.1,63.9,31.1,63.9L31.1,63.9l0-0.2l0,0c0,0,0,0,0,0c0,0,0,0,0,0c0,0,0,0,0,0h0
							c0,0,0,0,0,0c0,0,0,0,0,0c0,0,0,0,0,0c0,0,0,0,0,0c0,0,0,0,0,0h0c0,0,0,0,0,0c0,0,0,0,0,0c0,0,0,0,0,0l0,0c0,0,0,0,0,0
							c0,0,0,0,0,0c0,0,0,0,0,0l-0.3-0.2l0,0.1c0,0,0,0,0,0.1L30.1,64c0,0,0,0,0,0l0.6,0.4c0,0,0,0,0,0c0,0,0,0,0,0c0,0,0,0,0,0h0
							c0,0,0,0,0,0l0,0c0,0,0,0,0,0l0.5-0.3c0,0,0,0,0,0L31.1,63.9L31.1,63.9z"/>
					</g>
				</g>
				<g>
					<g>
						<path fill="#4C4DC3" d="M32,64.4C32,64.4,32,64.4,32,64.4C31.9,64.4,31.9,64.4,32,64.4C31.9,64.4,31.9,64.4,32,64.4L32,64.4
							C31.9,64.4,31.9,64.4,32,64.4C31.9,64.4,31.9,64.4,32,64.4C31.9,64.4,31.9,64.4,32,64.4L32,64.4L32,64.4l0-0.2l-0.1,0
							c0,0,0,0,0,0c0,0,0,0,0,0c0,0,0,0,0,0h0c0,0,0,0,0,0c0,0,0,0,0,0c0,0,0,0,0,0c0,0,0,0,0,0c0,0,0,0,0,0h0c0,0,0,0,0,0
							c0,0,0,0,0,0c0,0,0,0,0,0c0,0,0,0,0,0c0,0,0,0,0,0c0,0,0,0,0,0c0,0,0,0,0,0l-0.3-0.2l0,0.1c0,0,0,0,0,0.1l-0.4,0.2
							c0,0,0,0,0,0l0.6,0.4c0,0,0,0,0,0c0,0,0,0,0,0c0,0,0,0,0,0h0c0,0,0,0,0,0h0c0,0,0,0,0,0l0.5-0.3c0,0,0,0,0,0L32,64.4L32,64.4z
							"/>
					</g>
				</g>
				<g>
					<g>
						<path fill="#4C4DC3" d="M32.9,62.4C32.9,62.4,32.9,62.4,32.9,62.4C32.9,62.4,32.9,62.4,32.9,62.4
							C32.8,62.4,32.8,62.4,32.9,62.4L32.9,62.4C32.8,62.4,32.8,62.4,32.9,62.4C32.8,62.4,32.8,62.4,32.9,62.4
							C32.8,62.4,32.8,62.4,32.9,62.4C32.8,62.4,32.8,62.4,32.9,62.4L32.9,62.4l0-0.2l0,0c0,0,0,0,0,0c0,0,0,0,0,0c0,0,0,0,0,0l0,0
							c0,0,0,0,0,0c0,0,0,0,0,0c0,0,0,0,0,0c0,0,0,0,0,0c0,0,0,0,0,0h0h0c0,0,0,0,0,0c0,0,0,0,0,0c0,0,0,0,0,0s0,0,0,0c0,0,0,0,0,0
							c0,0,0,0,0,0L32.2,62l0,0.1c0,0,0,0,0,0.1l-0.4,0.2c0,0,0,0,0,0l0.6,0.4c0,0,0,0,0,0c0,0,0,0,0,0c0,0,0,0,0,0h0c0,0,0,0,0,0h0
							c0,0,0,0,0,0L32.9,62.4C33,62.5,33,62.5,32.9,62.4L32.9,62.4L32.9,62.4z"/>
					</g>
				</g>
				<g>
					<g>
						<path fill="#4C4DC3" d="M32,61.9C32,61.9,32,61.9,32,61.9C32,61.9,32,61.9,32,61.9L32,61.9L32,61.9C32,61.9,32,61.9,32,61.9
							C32,61.9,32,61.9,32,61.9C32,61.9,32,61.9,32,61.9C32,61.9,32,61.9,32,61.9L32,61.9l0-0.2l0,0c0,0,0,0,0,0c0,0,0,0,0,0
							c0,0,0,0,0,0h0c0,0,0,0,0,0c0,0,0,0,0,0c0,0,0,0,0,0c0,0,0,0,0,0c0,0,0,0,0,0h0c0,0,0,0,0,0c0,0,0,0,0,0c0,0,0,0,0,0
							c0,0,0,0,0,0c0,0,0,0,0,0c0,0,0,0,0,0c0,0,0,0,0,0l-0.5-0.3l0,0.1c0,0,0,0,0,0.1l-0.4,0.2c0,0,0,0,0,0l0.6,0.4c0,0,0,0,0,0
							c0,0,0,0,0,0c0,0,0,0,0,0h0c0,0,0,0,0,0h0c0,0,0,0,0,0L32,61.9C32.1,62,32.1,62,32,61.9L32,61.9L32,61.9z"/>
					</g>
				</g>
				<g>
					<g>
						<path fill="#4C4DC3" d="M31.2,61.4C31.2,61.4,31.2,61.4,31.2,61.4C31.2,61.4,31.2,61.4,31.2,61.4L31.2,61.4L31.2,61.4
							C31.2,61.4,31.2,61.4,31.2,61.4C31.2,61.4,31.2,61.4,31.2,61.4C31.2,61.4,31.2,61.4,31.2,61.4C31.2,61.4,31.2,61.4,31.2,61.4
							L31.2,61.4l0-0.2l0,0c0,0,0,0,0,0c0,0,0,0,0,0c0,0,0,0,0,0h0c0,0,0,0,0,0c0,0,0,0,0,0c0,0,0,0,0,0c0,0,0,0,0,0c0,0,0,0,0,0
							l0,0h0c0,0,0,0,0,0c0,0,0,0,0,0c0,0,0,0,0,0c0,0,0,0,0,0s0,0,0,0c0,0,0,0,0,0L30.5,61l0,0.1c0,0,0,0,0,0.1L30,61.4
							c0,0,0,0,0,0l0.6,0.4c0,0,0,0,0,0c0,0,0,0,0,0c0,0,0,0,0,0h0c0,0,0,0,0,0h0c0,0,0,0,0,0L31.2,61.4
							C31.3,61.5,31.3,61.5,31.2,61.4L31.2,61.4L31.2,61.4z"/>
					</g>
				</g>
				<g>
					<g>
						<path fill="#4C4DC3" d="M30.4,60.9C30.4,60.9,30.4,60.9,30.4,60.9C30.4,60.9,30.4,60.9,30.4,60.9
							C30.4,60.9,30.4,60.9,30.4,60.9L30.4,60.9C30.4,60.9,30.4,60.9,30.4,60.9C30.3,60.9,30.3,60.9,30.4,60.9
							C30.3,60.9,30.3,60.9,30.4,60.9L30.4,60.9L30.4,60.9l0-0.2l-0.1,0c0,0,0,0,0,0c0,0,0,0,0,0c0,0,0,0,0,0h0c0,0,0,0,0,0
							c0,0,0,0,0,0c0,0,0,0,0,0c0,0,0,0,0,0c0,0,0,0,0,0h0c0,0,0,0,0,0c0,0,0,0,0,0c0,0,0,0,0,0c0,0,0,0,0,0c0,0,0,0,0,0
							c0,0,0,0,0,0c0,0,0,0,0,0l-0.5-0.3l0,0.1c0,0,0,0,0,0.1l-0.4,0.2c0,0,0,0,0,0l0.6,0.4c0,0,0,0,0,0c0,0,0,0,0,0c0,0,0,0,0,0h0
							c0,0,0,0,0,0h0c0,0,0,0,0,0L30.4,60.9C30.5,61,30.5,61,30.4,60.9L30.4,60.9L30.4,60.9z"/>
					</g>
				</g>
				<g>
					<g>
						<path fill="#4C4DC3" d="M29.5,60.4C29.5,60.4,29.5,60.4,29.5,60.4C29.5,60.4,29.5,60.4,29.5,60.4
							C29.5,60.4,29.5,60.4,29.5,60.4L29.5,60.4C29.5,60.4,29.5,60.4,29.5,60.4C29.5,60.4,29.5,60.4,29.5,60.4
							C29.5,60.4,29.5,60.3,29.5,60.4L29.5,60.4l0-0.2l0,0c0,0,0,0,0,0c0,0,0,0,0,0c0,0,0,0,0,0l0,0c0,0,0,0,0,0c0,0,0,0,0,0
							c0,0,0,0,0,0c0,0,0,0,0,0c0,0,0,0,0,0h0c0,0,0,0,0,0c0,0,0,0,0,0c0,0,0,0,0,0c0,0,0,0,0,0c0,0,0,0,0,0c0,0,0,0,0,0
							c0,0,0,0,0,0L28.8,60l0,0.1c0,0,0,0,0,0.1l-0.4,0.2c0,0,0,0,0,0l0.6,0.4c0,0,0,0,0,0c0,0,0,0,0,0c0,0,0,0,0,0h0c0,0,0,0,0,0
							l0,0c0,0,0,0,0,0L29.5,60.4C29.6,60.5,29.6,60.5,29.5,60.4L29.5,60.4C29.5,60.4,29.5,60.4,29.5,60.4z"/>
					</g>
				</g>
				<g>
					<g>
						<path fill="#4C4DC3" d="M28.7,59.9C28.7,59.9,28.7,59.9,28.7,59.9C28.7,59.9,28.7,59.9,28.7,59.9
							C28.7,59.9,28.7,59.9,28.7,59.9L28.7,59.9C28.7,59.9,28.7,59.9,28.7,59.9C28.7,59.9,28.7,59.9,28.7,59.9
							C28.7,59.9,28.7,59.9,28.7,59.9L28.7,59.9L28.7,59.9l0-0.2l0,0c0,0,0,0,0,0c0,0,0,0,0,0c0,0,0,0,0,0h0c0,0,0,0,0,0
							c0,0,0,0,0,0c0,0,0,0,0,0s0,0,0,0c0,0,0,0,0,0h0c0,0,0,0,0,0c0,0,0,0,0,0c0,0,0,0,0,0c0,0,0,0,0,0c0,0,0,0,0,0c0,0,0,0,0,0
							c0,0,0,0,0,0L28,59.5l0,0.1c0,0,0,0,0,0.1l-0.4,0.2c0,0,0,0,0,0l0.6,0.4c0,0,0,0,0,0c0,0,0,0,0,0c0,0,0,0,0,0h0c0,0,0,0,0,0
							l0,0c0,0,0,0,0,0L28.7,59.9C28.8,60,28.8,60,28.7,59.9L28.7,59.9L28.7,59.9z"/>
					</g>
				</g>
				<g>
					<g>
						<path fill="#4C4DC3" d="M27.9,59.4C27.9,59.4,27.9,59.4,27.9,59.4C27.9,59.4,27.9,59.4,27.9,59.4
							C27.9,59.4,27.9,59.4,27.9,59.4L27.9,59.4C27.9,59.4,27.9,59.4,27.9,59.4C27.9,59.4,27.9,59.4,27.9,59.4
							C27.8,59.4,27.8,59.3,27.9,59.4L27.9,59.4l0-0.2l0,0c0,0,0,0,0,0c0,0,0,0,0,0c0,0,0,0,0,0h0c0,0,0,0,0,0c0,0,0,0,0,0
							c0,0,0,0,0,0c0,0,0,0,0,0c0,0,0,0,0,0h0c0,0,0,0,0,0c0,0,0,0,0,0s0,0,0,0c0,0,0,0,0,0c0,0,0,0,0,0c0,0,0,0,0,0c0,0,0,0,0,0
							L27.2,59l0,0.1c0,0,0,0,0,0.1l-0.4,0.2c0,0,0,0,0,0l0.6,0.4c0,0,0,0,0,0c0,0,0,0,0,0c0,0,0,0,0,0h0c0,0,0,0,0,0l0,0
							c0,0,0,0,0,0L27.9,59.4C28,59.5,28,59.4,27.9,59.4L27.9,59.4L27.9,59.4z"/>
					</g>
				</g>
				<g>
					<g>
						<path fill="#4C4DC3" d="M27,58.9C27,58.9,27,58.9,27,58.9C27,58.9,27,58.9,27,58.9L27,58.9L27,58.9C27,58.9,27,58.9,27,58.9
							C27,58.9,27,58.9,27,58.9C27,58.8,27,58.8,27,58.9L27,58.9L27,58.9l0-0.2l0,0c0,0,0,0,0,0c0,0,0,0,0,0c0,0,0,0,0,0l0,0
							c0,0,0,0,0,0c0,0,0,0,0,0c0,0,0,0,0,0c0,0,0,0,0,0c0,0,0,0,0,0h0c0,0,0,0,0,0c0,0,0,0,0,0c0,0,0,0,0,0c0,0,0,0,0,0s0,0,0,0
							c0,0,0,0,0,0c0,0,0,0,0,0l-0.5-0.3l0,0.1c0,0,0,0,0,0.1l-0.4,0.2c0,0,0,0,0,0l0.6,0.4c0,0,0,0,0,0c0,0,0,0,0,0c0,0,0,0,0,0h0
							c0,0,0,0,0,0h0c0,0,0,0,0,0L27,58.9C27.1,59,27.1,58.9,27,58.9L27,58.9L27,58.9z"/>
					</g>
				</g>
				<g>
					<g>
						<path fill="#4C4DC3" d="M26.2,58.4C26.2,58.4,26.2,58.4,26.2,58.4C26.2,58.4,26.2,58.4,26.2,58.4L26.2,58.4L26.2,58.4
							C26.2,58.4,26.2,58.4,26.2,58.4C26.2,58.4,26.2,58.3,26.2,58.4C26.2,58.3,26.2,58.3,26.2,58.4L26.2,58.4L26.2,58.4l0-0.2l0,0
							c0,0,0,0,0,0c0,0,0,0,0,0c0,0,0,0,0,0l0,0c0,0,0,0,0,0c0,0,0,0,0,0c0,0,0,0,0,0c0,0,0,0,0,0c0,0,0,0,0,0h0c0,0,0,0,0,0
							c0,0,0,0,0,0c0,0,0,0,0,0c0,0,0,0,0,0c0,0,0,0,0,0c0,0,0,0,0,0c0,0,0,0,0,0l-0.5-0.3l0,0.1c0,0,0,0,0,0.1L25,58.3c0,0,0,0,0,0
							v0c0,0,0,0,0,0l0.6,0.4c0,0,0,0,0,0l0,0c0,0,0,0,0,0h0c0,0,0,0,0,0h0c0,0,0,0,0,0L26.2,58.4C26.3,58.4,26.3,58.4,26.2,58.4
							L26.2,58.4L26.2,58.4z"/>
					</g>
				</g>
				<g>
					<g>
						<path fill="#4C4DC3" d="M25.9,59C25.9,59,25.9,59,25.9,59C25.9,59,25.9,59,25.9,59C25.9,59,25.9,59,25.9,59L25.9,59
							C25.9,59,25.9,59,25.9,59C25.9,59,25.9,59,25.9,59C25.9,59,25.9,59,25.9,59L25.9,59L25.9,59l0-0.2l0,0c0,0,0,0,0,0
							c0,0,0,0,0,0c0,0,0,0,0,0l0,0c0,0,0,0,0,0c0,0,0,0,0,0c0,0,0,0,0,0c0,0,0,0,0,0c0,0,0,0,0,0h0c0,0,0,0,0,0c0,0,0,0,0,0
							s0,0,0,0l0,0c0,0,0,0,0,0c0,0,0,0,0,0c0,0,0,0,0,0l-0.3-0.2l0,0.1c0,0,0,0,0,0.1l-0.4,0.2c0,0,0,0,0,0l0.6,0.4c0,0,0,0,0,0
							c0,0,0,0,0,0c0,0,0,0,0,0h0c0,0,0,0,0,0h0c0,0,0,0,0,0l0.5-0.3c0,0,0,0,0,0L25.9,59L25.9,59z"/>
					</g>
				</g>
				<g>
					<g>
						<path fill="#4C4DC3" d="M26.5,60.3L26.5,60.3L26.5,60.3l0-0.1l0,0C26.5,60.2,26.5,60.2,26.5,60.3
							C26.5,60.2,26.5,60.2,26.5,60.3C26.5,60.2,26.5,60.2,26.5,60.3L26.5,60.3C26.5,60.2,26.5,60.2,26.5,60.3
							c-0.1-0.1-0.1-0.1-0.1-0.1c0,0,0,0,0,0c0,0,0,0,0,0h0h0c0,0,0,0,0,0c0,0,0,0,0,0s0,0,0,0c0,0,0,0,0,0c0,0,0,0,0,0c0,0,0,0,0,0
							c0,0,0,0,0,0l-0.6-0.4l0,0c0,0,0,0,0,0l0,0.1c0,0,0,0,0,0.1l-0.4,0.2c0,0,0,0,0,0l0.6,0.4c0,0,0,0,0,0c0,0,0,0,0,0
							c0,0,0,0,0,0h0c0,0,0,0,0,0h0c0,0,0,0,0,0L26.5,60.3C26.5,60.3,26.5,60.3,26.5,60.3C26.5,60.3,26.5,60.3,26.5,60.3
							C26.5,60.3,26.5,60.3,26.5,60.3z"/>
					</g>
				</g>
				<g>
					<g>
						<path fill="#4C4DC3" d="M27.3,60.7C27.3,60.7,27.3,60.7,27.3,60.7C27.3,60.7,27.3,60.7,27.3,60.7
							C27.3,60.7,27.3,60.7,27.3,60.7C27.3,60.7,27.3,60.7,27.3,60.7C27.3,60.7,27.3,60.7,27.3,60.7C27.3,60.7,27.3,60.7,27.3,60.7
							C27.3,60.7,27.3,60.7,27.3,60.7C27.3,60.7,27.2,60.7,27.3,60.7L27.3,60.7L27.3,60.7C27.2,60.7,27.2,60.7,27.3,60.7
							c-0.1,0-0.1,0-0.1,0c0,0,0,0,0,0c0,0,0,0,0,0c0,0,0,0,0,0c0,0,0,0,0,0c0,0,0,0,0,0l-0.6-0.4l0,0c0,0,0,0,0,0l0,0.1
							c0,0,0,0,0,0.1l-0.4,0.2c0,0,0,0,0,0l0.6,0.4c0,0,0,0,0,0c0,0,0,0,0,0c0,0,0,0,0,0h0c0,0,0,0,0,0h0c0,0,0,0,0,0l0.5-0.3
							c0,0,0,0,0,0c0,0,0,0,0,0s0,0,0,0v0L27.3,60.7L27.3,60.7z"/>
					</g>
				</g>
				<g>
					<g>
						<path fill="#4C4DC3" d="M28.2,61.3L28.2,61.3L28.2,61.3l0-0.1l0,0C28.2,61.2,28.1,61.2,28.2,61.3
							C28.1,61.2,28.1,61.2,28.2,61.3C28.1,61.2,28.1,61.2,28.2,61.3L28.2,61.3C28.1,61.2,28.1,61.2,28.2,61.3
							c-0.1-0.1-0.1-0.1-0.1-0.1c0,0,0,0,0,0c0,0,0,0,0,0c0,0,0,0,0,0h0c0,0,0,0,0,0c0,0,0,0,0,0c0,0,0,0,0,0c0,0,0,0,0,0
							c0,0,0,0,0,0c0,0,0,0,0,0c0,0,0,0,0,0l-0.6-0.4l0,0c0,0,0,0,0,0l0,0.1c0,0,0,0,0,0.1l-0.4,0.2c0,0,0,0,0,0l0.6,0.4
							c0,0,0,0,0,0c0,0,0,0,0,0c0,0,0,0,0,0h0c0,0,0,0,0,0h0c0,0,0,0,0,0L28.2,61.3C28.2,61.3,28.2,61.3,28.2,61.3
							C28.2,61.3,28.2,61.3,28.2,61.3C28.2,61.3,28.2,61.3,28.2,61.3z"/>
					</g>
				</g>
				<g>
					<g>
						<path fill="#4C4DC3" d="M29,61.8l0-0.1l-0.1,0C29,61.7,29,61.7,29,61.8C29,61.7,29,61.7,29,61.8C29,61.7,29,61.7,29,61.8
							C28.9,61.7,28.9,61.7,29,61.8C28.9,61.7,28.9,61.7,29,61.8c-0.1-0.1-0.1-0.1-0.1-0.1s0,0,0,0c0,0,0,0,0,0c0,0,0,0,0,0h0
							c0,0,0,0,0,0c0,0,0,0,0,0c0,0,0,0,0,0c0,0,0,0,0,0c0,0,0,0,0,0c0,0,0,0,0,0c0,0,0,0,0,0l-0.6-0.4l0,0c0,0,0,0,0,0l0,0.1
							c0,0,0,0,0,0.1l-0.4,0.2c0,0,0,0,0,0l0.6,0.4c0,0,0,0,0,0c0,0,0,0,0,0c0,0,0,0,0,0h0c0,0,0,0,0,0h0c0,0,0,0,0,0L29,61.8
							C29,61.8,29,61.8,29,61.8C29,61.8,29,61.8,29,61.8C29,61.8,29,61.8,29,61.8L29,61.8L29,61.8z"/>
					</g>
				</g>
				<g>
					<g>
						<path fill="#4C4DC3" d="M29.9,62.3L29.9,62.3l0-0.1l0,0c0,0,0,0,0,0C29.8,62.2,29.8,62.2,29.9,62.3
							C29.8,62.2,29.8,62.2,29.9,62.3L29.9,62.3C29.8,62.2,29.8,62.2,29.9,62.3c-0.1-0.1-0.1-0.1-0.1-0.1c0,0,0,0,0,0c0,0,0,0,0,0h0
							h0h0c0,0,0,0,0,0c0,0,0,0,0,0c0,0,0,0,0,0c0,0,0,0,0,0c0,0,0,0,0,0c0,0,0,0,0,0l-0.6-0.4h0c0,0,0,0,0,0l0,0.1c0,0,0,0,0,0.1
							l-0.4,0.2c0,0,0,0,0,0l0.6,0.4c0,0,0,0,0,0c0,0,0,0,0,0c0,0,0,0,0,0h0c0,0,0,0,0,0l0,0c0,0,0,0,0,0L29.9,62.3
							C29.9,62.3,29.9,62.3,29.9,62.3C29.9,62.3,29.9,62.3,29.9,62.3C29.9,62.3,29.9,62.3,29.9,62.3z"/>
					</g>
				</g>
				<g>
					<g>
						<path fill="#4C4DC3" d="M30.7,62.8L30.7,62.8l0-0.1l0,0c0,0,0,0,0,0C30.6,62.7,30.6,62.7,30.7,62.8
							C30.6,62.7,30.6,62.7,30.7,62.8L30.7,62.8C30.6,62.7,30.6,62.7,30.7,62.8c-0.1-0.1-0.1-0.1-0.1-0.1c0,0,0,0,0,0c0,0,0,0,0,0h0
							h0c0,0,0,0,0,0c0,0,0,0,0,0c0,0,0,0,0,0c0,0,0,0,0,0c0,0,0,0,0,0c0,0,0,0,0,0c0,0,0,0,0,0l-0.6-0.4l0,0c0,0,0,0,0,0l0,0.1
							c0,0,0,0,0,0.1l-0.4,0.2c0,0,0,0,0,0l0.6,0.4c0,0,0,0,0,0c0,0,0,0,0,0c0,0,0,0,0,0h0c0,0,0,0,0,0l0,0c0,0,0,0,0,0L30.7,62.8
							C30.7,62.8,30.7,62.8,30.7,62.8C30.7,62.8,30.7,62.8,30.7,62.8C30.7,62.8,30.7,62.8,30.7,62.8z"/>
					</g>
				</g>
				<g>
					<g>
						<path fill="#4C4DC3" d="M31.5,63.3L31.5,63.3L31.5,63.3l0-0.1l0,0c0,0,0,0,0,0C31.5,63.2,31.5,63.2,31.5,63.3
							C31.5,63.2,31.5,63.2,31.5,63.3C31.5,63.2,31.4,63.2,31.5,63.3C31.4,63.2,31.4,63.2,31.5,63.3c-0.1-0.1-0.1-0.1-0.1-0.1
							c0,0,0,0,0,0c0,0,0,0,0,0h0h0c0,0,0,0,0,0c0,0,0,0,0,0c0,0,0,0,0,0c0,0,0,0,0,0c0,0,0,0,0,0c0,0,0,0,0,0c0,0,0,0,0,0l-0.6-0.4
							l0,0c0,0,0,0,0,0l0,0.1c0,0,0,0,0,0.1l-0.4,0.2c0,0,0,0,0,0l0.6,0.4c0,0,0,0,0,0c0,0,0,0,0,0c0,0,0,0,0,0h0c0,0,0,0,0,0
							c0,0,0,0,0,0c0,0,0,0,0,0L31.5,63.3C31.5,63.3,31.5,63.3,31.5,63.3C31.5,63.3,31.5,63.3,31.5,63.3
							C31.5,63.3,31.5,63.3,31.5,63.3z"/>
					</g>
				</g>
				<g>
					<g>
						<path fill="#4C4DC3" d="M31.7,62.6C31.7,62.6,31.7,62.6,31.7,62.6C31.7,62.6,31.7,62.6,31.7,62.6
							C31.7,62.5,31.7,62.5,31.7,62.6L31.7,62.6C31.7,62.5,31.7,62.5,31.7,62.6C31.7,62.5,31.7,62.5,31.7,62.6
							C31.7,62.5,31.7,62.5,31.7,62.6C31.7,62.5,31.7,62.5,31.7,62.6L31.7,62.6l0-0.2l0,0c0,0,0,0,0,0c0,0,0,0,0,0c0,0,0,0,0,0h0
							c0,0,0,0,0,0c0,0,0,0,0,0c0,0,0,0,0,0c0,0,0,0,0,0c0,0,0,0,0,0h0c0,0,0,0,0,0c0,0,0,0,0,0c0,0,0,0,0,0c0,0,0,0,0,0s0,0,0,0
							c0,0,0,0,0,0c0,0,0,0,0,0l-0.3-0.2l0,0.1c0,0,0,0,0,0.1l-0.4,0.2c0,0,0,0,0,0l0.6,0.4c0,0,0,0,0,0c0,0,0,0,0,0c0,0,0,0,0,0h0
							c0,0,0,0,0,0h0c0,0,0,0,0,0l0.5-0.3c0,0,0,0,0,0L31.7,62.6L31.7,62.6z"/>
					</g>
				</g>
				<g>
					<g>
						<path fill="#4C4DC3" d="M30.9,62.1C30.9,62.1,30.9,62.1,30.9,62.1C30.9,62,30.9,62,30.9,62.1C30.9,62,30.9,62,30.9,62.1
							L30.9,62.1C30.9,62,30.9,62,30.9,62.1C30.9,62,30.9,62,30.9,62.1C30.9,62,30.9,62,30.9,62.1L30.9,62.1L30.9,62.1l0-0.2l0,0
							c0,0,0,0,0,0c0,0,0,0,0,0c0,0,0,0,0,0c0,0,0,0,0,0c0,0,0,0,0,0c0,0,0,0,0,0c0,0,0,0,0,0s0,0,0,0h0l0,0c0,0,0,0,0,0
							c0,0,0,0,0,0c0,0,0,0,0,0c0,0,0,0,0,0c0,0,0,0,0,0c0,0,0,0,0,0c0,0,0,0,0,0l-0.3-0.2l0,0.1c0,0,0,0,0,0.1l-0.4,0.2
							c0,0,0,0,0,0l0.6,0.4c0,0,0,0,0,0c0,0,0,0,0,0c0,0,0,0,0,0h0c0,0,0,0,0,0h0c0,0,0,0,0,0l0.5-0.3c0,0,0,0,0,0L30.9,62.1
							L30.9,62.1z"/>
					</g>
				</g>
				<g>
					<g>
						<path fill="#4C4DC3" d="M30.1,61.6C30.1,61.6,30,61.6,30.1,61.6C30,61.5,30,61.5,30.1,61.6C30,61.5,30,61.5,30.1,61.6
							L30.1,61.6C30,61.5,30,61.5,30.1,61.6C30,61.5,30,61.5,30.1,61.6C30,61.5,30,61.5,30.1,61.6L30.1,61.6L30.1,61.6l0-0.2l-0.1,0
							c0,0,0,0,0,0c0,0,0,0,0,0c0,0,0,0,0,0h0c0,0,0,0,0,0c0,0,0,0,0,0s0,0,0,0c0,0,0,0,0,0c0,0,0,0,0,0h0c0,0,0,0,0,0c0,0,0,0,0,0
							c0,0,0,0,0,0c0,0,0,0,0,0c0,0,0,0,0,0c0,0,0,0,0,0c0,0,0,0,0,0l-0.3-0.2l0,0.1c0,0,0,0,0,0.1l-0.4,0.2c0,0,0,0,0,0l0.6,0.4
							c0,0,0,0,0,0c0,0,0,0,0,0c0,0,0,0,0,0h0c0,0,0,0,0,0h0c0,0,0,0,0,0l0.5-0.3c0,0,0,0,0,0L30.1,61.6L30.1,61.6z"/>
					</g>
				</g>
				<g>
					<g>
						<path fill="#4C4DC3" d="M29.2,61.1C29.2,61.1,29.2,61,29.2,61.1C29.2,61,29.2,61,29.2,61.1L29.2,61.1L29.2,61.1
							C29.2,61,29.2,61,29.2,61.1C29.2,61,29.2,61,29.2,61.1C29.2,61,29.2,61,29.2,61.1L29.2,61.1l0-0.2l0,0c0,0,0,0,0,0
							c0,0,0,0,0,0c0,0,0,0,0,0h0c0,0,0,0,0,0c0,0,0,0,0,0c0,0,0,0,0,0c0,0,0,0,0,0c0,0,0,0,0,0h0c0,0,0,0,0,0c0,0,0,0,0,0
							c0,0,0,0,0,0c0,0,0,0,0,0c0,0,0,0,0,0c0,0,0,0,0,0c0,0,0,0,0,0l-0.3-0.2l0,0.1c0,0,0,0,0,0.1l-0.4,0.2c0,0,0,0,0,0l0.6,0.4
							c0,0,0,0,0,0c0,0,0,0,0,0c0,0,0,0,0,0h0c0,0,0,0,0,0l0,0c0,0,0,0,0,0l0.5-0.3c0,0,0,0,0,0L29.2,61.1L29.2,61.1z"/>
					</g>
				</g>
				<g>
					<g>
						<path fill="#4C4DC3" d="M28.4,60.6C28.4,60.5,28.4,60.5,28.4,60.6C28.4,60.5,28.4,60.5,28.4,60.6
							C28.4,60.5,28.4,60.5,28.4,60.6L28.4,60.6C28.4,60.5,28.4,60.5,28.4,60.6C28.4,60.5,28.4,60.5,28.4,60.6
							C28.4,60.5,28.4,60.5,28.4,60.6C28.4,60.5,28.4,60.5,28.4,60.6L28.4,60.6l0-0.2l0,0c0,0,0,0,0,0c0,0,0,0,0,0c0,0,0,0,0,0h0
							c0,0,0,0,0,0c0,0,0,0,0,0c0,0,0,0,0,0c0,0,0,0,0,0c0,0,0,0,0,0h0c0,0,0,0,0,0c0,0,0,0,0,0c0,0,0,0,0,0c0,0,0,0,0,0
							c0,0,0,0,0,0c0,0,0,0,0,0c0,0,0,0,0,0l-0.3-0.2l0,0.1c0,0,0,0,0,0.1l-0.4,0.2c0,0,0,0,0,0L28,61c0,0,0,0,0,0c0,0,0,0,0,0
							c0,0,0,0,0,0h0c0,0,0,0,0,0h0c0,0,0,0,0,0l0.5-0.3c0,0,0,0,0,0L28.4,60.6L28.4,60.6z"/>
					</g>
				</g>
				<g>
					<g>
						<path fill="#4C4DC3" d="M27.6,60C27.6,60,27.6,60,27.6,60C27.5,60,27.5,60,27.6,60L27.6,60L27.6,60C27.5,60,27.5,60,27.6,60
							C27.5,60,27.5,60,27.6,60C27.5,60,27.5,60,27.6,60C27.5,60,27.5,60,27.6,60L27.6,60l0-0.2l0,0c0,0,0,0,0,0c0,0,0,0,0,0
							c0,0,0,0,0,0h0c0,0,0,0,0,0c0,0,0,0,0,0s0,0,0,0c0,0,0,0,0,0c0,0,0,0,0,0h0c0,0,0,0,0,0c0,0,0,0,0,0c0,0,0,0,0,0c0,0,0,0,0,0
							c0,0,0,0,0,0c0,0,0,0,0,0c0,0,0,0,0,0L27,59.7l0,0.1c0,0,0,0,0,0.1l-0.4,0.2c0,0,0,0,0,0l0.6,0.4c0,0,0,0,0,0c0,0,0,0,0,0
							c0,0,0,0,0,0h0c0,0,0,0,0,0h0c0,0,0,0,0,0l0.5-0.3c0,0,0,0,0,0L27.6,60L27.6,60z"/>
					</g>
				</g>
				<g>
					<g>
						<path fill="#4C4DC3" d="M26.7,59.5C26.7,59.5,26.7,59.5,26.7,59.5C26.7,59.5,26.7,59.5,26.7,59.5
							C26.7,59.5,26.7,59.5,26.7,59.5L26.7,59.5C26.7,59.5,26.7,59.5,26.7,59.5C26.7,59.5,26.7,59.5,26.7,59.5
							C26.7,59.5,26.7,59.5,26.7,59.5L26.7,59.5L26.7,59.5l0-0.2l0,0c0,0,0,0,0,0c0,0,0,0,0,0c0,0,0,0,0,0h0c0,0,0,0,0,0
							c0,0,0,0,0,0s0,0,0,0s0,0,0,0c0,0,0,0,0,0l0,0c0,0,0,0,0,0c0,0,0,0,0,0c0,0,0,0,0,0c0,0,0,0,0,0c0,0,0,0,0,0c0,0,0,0,0,0
							c0,0,0,0,0,0l-0.3-0.2l0,0.1c0,0,0,0,0,0.1l-0.4,0.2c0,0,0,0,0,0l0.6,0.4c0,0,0,0,0,0c0,0,0,0,0,0c0,0,0,0,0,0h0c0,0,0,0,0,0
							c0,0,0,0,0,0c0,0,0,0,0,0l0.5-0.3c0,0,0,0,0,0L26.7,59.5C26.7,59.5,26.7,59.5,26.7,59.5z"/>
					</g>
				</g>
				<g>
					<g>
						<path fill="#4C4DC3" d="M32.6,63.1C32.5,63.1,32.5,63.1,32.6,63.1C32.5,63.1,32.5,63.1,32.6,63.1C32.5,63,32.5,63,32.6,63.1
							L32.6,63.1C32.5,63,32.5,63,32.6,63.1C32.5,63,32.5,63,32.6,63.1C32.5,63,32.5,63,32.6,63.1L32.6,63.1L32.6,63.1l0-0.2l0,0
							c0,0,0,0,0,0c0,0,0,0,0,0c0,0,0,0,0,0c0,0,0,0,0,0c0,0,0,0,0,0c0,0,0,0,0,0c0,0,0,0,0,0c0,0,0,0,0,0c0,0,0,0,0,0h0
							c0,0,0,0,0,0c0,0,0,0,0,0c0,0,0,0,0,0c0,0,0,0,0,0s0,0,0,0c0,0,0,0,0,0c0,0,0,0,0,0L32,62.7l0,0.1c0,0,0,0,0,0.1l-0.4,0.2
							c0,0,0,0,0,0l0.6,0.4c0,0,0,0,0,0c0,0,0,0,0,0c0,0,0,0,0,0h0c0,0,0,0,0,0h0c0,0,0,0,0,0l0.5-0.3c0,0,0,0,0,0L32.6,63.1
							L32.6,63.1z"/>
					</g>
				</g>
				<g>
					<g>
						<path fill="#4C4DC3" d="M32.4,63.8L32.4,63.8L32.4,63.8l0-0.1l0,0c0,0,0,0,0,0C32.3,63.7,32.3,63.7,32.4,63.8
							C32.3,63.7,32.3,63.7,32.4,63.8L32.4,63.8C32.3,63.7,32.3,63.7,32.4,63.8c-0.1-0.1-0.1-0.1-0.1-0.1c0,0,0,0,0,0s0,0,0,0
							c0,0,0,0,0,0h0c0,0,0,0,0,0c0,0,0,0,0,0c0,0,0,0,0,0c0,0,0,0,0,0c0,0,0,0,0,0c0,0,0,0,0,0c0,0,0,0,0,0l-0.6-0.4l0,0
							c0,0,0,0,0,0l0,0.1c0,0,0,0,0,0.1l-0.4,0.2c0,0,0,0,0,0l0.6,0.4c0,0,0,0,0,0c0,0,0,0,0,0c0,0,0,0,0,0h0c0,0,0,0,0,0l0,0
							c0,0,0,0,0,0L32.4,63.8C32.4,63.8,32.4,63.8,32.4,63.8C32.4,63.8,32.4,63.8,32.4,63.8C32.4,63.8,32.4,63.8,32.4,63.8z"/>
					</g>
				</g>
				<g>
					<g>
						<path fill="#4C4DC3" d="M25.7,59.6L25.7,59.6C25.7,59.6,25.7,59.7,25.7,59.6C25.6,59.7,25.6,59.7,25.7,59.6
							C25.6,59.7,25.6,59.7,25.7,59.6L25.7,59.6C25.6,59.7,25.6,59.7,25.7,59.6c-0.1,0-0.1,0-0.1,0c0,0,0,0,0,0s0,0,0,0c0,0,0,0,0,0
							h0c0,0,0,0,0,0c0,0,0,0,0,0s0,0,0,0c0,0,0,0,0,0c0,0,0,0,0,0c0,0,0,0,0,0c0,0,0,0,0,0l-0.6-0.4l0,0c0,0,0,0,0,0l0,0.1
							c0,0,0,0,0,0.1l-0.4,0.2c0,0,0,0,0,0l0.6,0.4c0,0,0,0,0,0c0,0,0,0,0,0c0,0,0,0,0,0h0c0,0,0,0,0,0h0c0,0,0,0,0,0l0.5-0.3
							c0,0,0,0,0,0c0,0,0,0,0,0c0,0,0,0,0,0v0v0L25.7,59.6z"/>
					</g>
				</g>
				<g>
					<g>
						<path fill="#4C4DC3" d="M26.4,57.6C26.4,57.6,26.4,57.6,26.4,57.6C26.4,57.6,26.4,57.6,26.4,57.6
							C26.3,57.6,26.3,57.6,26.4,57.6L26.4,57.6C26.3,57.6,26.3,57.6,26.4,57.6C26.3,57.6,26.3,57.6,26.4,57.6
							C26.3,57.6,26.3,57.6,26.4,57.6L26.4,57.6L26.4,57.6l0-0.2l-0.1,0c0,0,0,0,0,0c0,0,0,0,0,0c0,0,0,0,0,0h0c0,0,0,0,0,0
							c0,0,0,0,0,0c0,0,0,0,0,0c0,0,0,0,0,0c0,0,0,0,0,0h0c0,0,0,0,0,0c0,0,0,0,0,0c0,0,0,0,0,0c0,0,0,0,0,0c0,0,0,0,0,0
							c0,0,0,0,0,0c0,0,0,0,0,0l-0.3-0.2l0,0.1c0,0,0,0,0,0.1l-0.4,0.2v0c0,0,0,0,0,0l0.6,0.4c0,0,0,0,0,0c0,0,0,0,0,0c0,0,0,0,0,0
							h0c0,0,0,0,0,0h0c0,0,0,0,0,0l0.5-0.3c0,0,0,0,0,0L26.4,57.6L26.4,57.6z"/>
					</g>
				</g>
				<g>
					<g>
						<path fill="#4C4DC3" d="M27.2,58.1C27.2,58.1,27.2,58.1,27.2,58.1C27.2,58.1,27.2,58.1,27.2,58.1L27.2,58.1L27.2,58.1
							C27.2,58.1,27.2,58.1,27.2,58.1C27.2,58.1,27.2,58.1,27.2,58.1C27.2,58.1,27.2,58.1,27.2,58.1L27.2,58.1L27.2,58.1l0-0.2l0,0
							c0,0,0,0,0,0c0,0,0,0,0,0c0,0,0,0,0,0c0,0,0,0,0,0c0,0,0,0,0,0c0,0,0,0,0,0c0,0,0,0,0,0c0,0,0,0,0,0c0,0,0,0,0,0h0
							c0,0,0,0,0,0c0,0,0,0,0,0c0,0,0,0,0,0c0,0,0,0,0,0c0,0,0,0,0,0c0,0,0,0,0,0c0,0,0,0,0,0l-0.3-0.2l0,0.1c0,0,0,0,0,0.1
							l-0.4,0.2c0,0,0,0,0,0l0.6,0.4c0,0,0,0,0,0c0,0,0,0,0,0c0,0,0,0,0,0h0c0,0,0,0,0,0h0c0,0,0,0,0,0l0.5-0.3c0,0,0,0,0,0
							L27.2,58.1L27.2,58.1L27.2,58.1z"/>
					</g>
				</g>
				<g>
					<g>
						<path fill="#4C4DC3" d="M28,58.6C28,58.6,28,58.6,28,58.6C28,58.6,28,58.6,28,58.6C28,58.6,28,58.6,28,58.6L28,58.6
							C28,58.6,28,58.6,28,58.6C28,58.6,28,58.6,28,58.6C28,58.6,28,58.6,28,58.6L28,58.6L28,58.6l0-0.2l0,0c0,0,0,0,0,0
							c0,0,0,0,0,0c0,0,0,0,0,0h0c0,0,0,0,0,0c0,0,0,0,0,0c0,0,0,0,0,0c0,0,0,0,0,0c0,0,0,0,0,0h0c0,0,0,0,0,0c0,0,0,0,0,0
							c0,0,0,0,0,0c0,0,0,0,0,0c0,0,0,0,0,0c0,0,0,0,0,0c0,0,0,0,0,0l-0.3-0.2l0,0.1c0,0,0,0,0,0.1L27,58.7c0,0,0,0,0,0l0.6,0.4
							c0,0,0,0,0,0c0,0,0,0,0,0c0,0,0,0,0,0h0c0,0,0,0,0,0l0,0c0,0,0,0,0,0l0.5-0.3c0,0,0,0,0,0L28,58.6L28,58.6z"/>
					</g>
				</g>
				<g>
					<g>
						<path fill="#4C4DC3" d="M28.9,59.1C28.9,59.1,28.9,59.1,28.9,59.1C28.8,59.1,28.8,59.1,28.9,59.1
							C28.8,59.1,28.8,59.1,28.9,59.1L28.9,59.1C28.8,59.1,28.8,59.1,28.9,59.1C28.8,59.1,28.8,59.1,28.9,59.1
							C28.8,59.1,28.8,59.1,28.9,59.1C28.8,59.1,28.8,59.1,28.9,59.1L28.9,59.1l0-0.2l0,0c0,0,0,0,0,0c0,0,0,0,0,0c0,0,0,0,0,0l0,0
							c0,0,0,0,0,0c0,0,0,0,0,0s0,0,0,0c0,0,0,0,0,0c0,0,0,0,0,0h0c0,0,0,0,0,0c0,0,0,0,0,0c0,0,0,0,0,0l0,0c0,0,0,0,0,0
							c0,0,0,0,0,0c0,0,0,0,0,0l-0.3-0.2l0,0.1c0,0,0,0,0,0.1l-0.4,0.2c0,0,0,0,0,0l0.6,0.4c0,0,0,0,0,0c0,0,0,0,0,0c0,0,0,0,0,0h0
							c0,0,0,0,0,0h0c0,0,0,0,0,0l0.5-0.3c0,0,0,0,0,0L28.9,59.1C28.9,59.1,28.9,59.1,28.9,59.1z"/>
					</g>
				</g>
				<g>
					<g>
						<path fill="#4C4DC3" d="M29.7,59.6C29.7,59.6,29.7,59.6,29.7,59.6C29.7,59.6,29.7,59.6,29.7,59.6
							C29.7,59.6,29.7,59.6,29.7,59.6L29.7,59.6C29.7,59.6,29.7,59.6,29.7,59.6C29.7,59.6,29.7,59.6,29.7,59.6
							C29.7,59.6,29.7,59.6,29.7,59.6L29.7,59.6L29.7,59.6l0-0.2l0,0c0,0,0,0,0,0c0,0,0,0,0,0c0,0,0,0,0,0h0c0,0,0,0,0,0
							c0,0,0,0,0,0c0,0,0,0,0,0c0,0,0,0,0,0c0,0,0,0,0,0l0,0c0,0,0,0,0,0c0,0,0,0,0,0s0,0,0,0c0,0,0,0,0,0c0,0,0,0,0,0c0,0,0,0,0,0
							c0,0,0,0,0,0l-0.3-0.2l0,0.1c0,0,0,0,0,0.1l-0.4,0.2c0,0,0,0,0,0l0.6,0.4c0,0,0,0,0,0c0,0,0,0,0,0c0,0,0,0,0,0h0c0,0,0,0,0,0
							h0c0,0,0,0,0,0l0.5-0.3c0,0,0,0,0,0L29.7,59.6L29.7,59.6z"/>
					</g>
				</g>
				<g>
					<g>
						<path fill="#4C4DC3" d="M30.5,60.1C30.5,60.1,30.5,60.1,30.5,60.1C30.5,60.1,30.5,60.1,30.5,60.1L30.5,60.1L30.5,60.1
							C30.5,60.1,30.5,60.1,30.5,60.1C30.5,60.1,30.5,60.1,30.5,60.1C30.5,60.1,30.5,60.1,30.5,60.1C30.5,60.1,30.5,60.1,30.5,60.1
							L30.5,60.1l0-0.2l0,0c0,0,0,0,0,0c0,0,0,0,0,0c0,0,0,0,0,0l0,0c0,0,0,0,0,0c0,0,0,0,0,0c0,0,0,0,0,0c0,0,0,0,0,0c0,0,0,0,0,0
							h0c0,0,0,0,0,0c0,0,0,0,0,0c0,0,0,0,0,0c0,0,0,0,0,0c0,0,0,0,0,0c0,0,0,0,0,0c0,0,0,0,0,0L30,59.8l0,0.1c0,0,0,0,0,0.1
							l-0.4,0.2c0,0,0,0,0,0l0.6,0.4c0,0,0,0,0,0c0,0,0,0,0,0c0,0,0,0,0,0h0c0,0,0,0,0,0l0,0c0,0,0,0,0,0l0.5-0.3c0,0,0,0,0,0
							L30.5,60.1L30.5,60.1z"/>
					</g>
				</g>
				<g>
					<g>
						<path fill="#4C4DC3" d="M31.4,60.7C31.4,60.6,31.4,60.6,31.4,60.7C31.3,60.6,31.3,60.6,31.4,60.7
							C31.3,60.6,31.3,60.6,31.4,60.7L31.4,60.7C31.3,60.6,31.3,60.6,31.4,60.7C31.3,60.6,31.3,60.6,31.4,60.7
							C31.3,60.6,31.3,60.6,31.4,60.7L31.4,60.7L31.4,60.7l0-0.2l0,0c0,0,0,0,0,0c0,0,0,0,0,0c0,0,0,0,0,0c0,0,0,0,0,0c0,0,0,0,0,0
							c0,0,0,0,0,0c0,0,0,0,0,0c0,0,0,0,0,0c0,0,0,0,0,0l0,0c0,0,0,0,0,0c0,0,0,0,0,0c0,0,0,0,0,0c0,0,0,0,0,0c0,0,0,0,0,0s0,0,0,0
							c0,0,0,0,0,0l-0.3-0.2l0,0.1c0,0,0,0,0,0.1l-0.4,0.2c0,0,0,0,0,0l0.6,0.4c0,0,0,0,0,0c0,0,0,0,0,0c0,0,0,0,0,0h0c0,0,0,0,0,0
							h0c0,0,0,0,0,0l0.5-0.3c0,0,0,0,0,0L31.4,60.7L31.4,60.7z"/>
					</g>
				</g>
				<g>
					<g>
						<path fill="#4C4DC3" d="M32.2,61.2C32.2,61.1,32.2,61.1,32.2,61.2C32.2,61.1,32.2,61.1,32.2,61.2L32.2,61.2L32.2,61.2
							C32.2,61.1,32.2,61.1,32.2,61.2C32.2,61.1,32.2,61.1,32.2,61.2C32.2,61.1,32.2,61.1,32.2,61.2L32.2,61.2L32.2,61.2l0-0.2l0,0
							c0,0,0,0,0,0c0,0,0,0,0,0c0,0,0,0,0,0h0c0,0,0,0,0,0c0,0,0,0,0,0c0,0,0,0,0,0s0,0,0,0c0,0,0,0,0,0h0c0,0,0,0,0,0c0,0,0,0,0,0
							c0,0,0,0,0,0c0,0,0,0,0,0c0,0,0,0,0,0c0,0,0,0,0,0c0,0,0,0,0,0l-0.3-0.2l0,0.1c0,0,0,0,0,0.1l-0.4,0.2c0,0,0,0,0,0l0.6,0.4
							c0,0,0,0,0,0c0,0,0,0,0,0c0,0,0,0,0,0h0c0,0,0,0,0,0l0,0c0,0,0,0,0,0l0.5-0.3c0,0,0,0,0,0L32.2,61.2L32.2,61.2L32.2,61.2z"/>
					</g>
				</g>
				<g>
					<g>
						<path fill="#4C4DC3" d="M33,61.7C33,61.7,33,61.6,33,61.7C33,61.6,33,61.6,33,61.7C33,61.6,33,61.6,33,61.7L33,61.7
							C33,61.6,33,61.6,33,61.7C33,61.6,33,61.6,33,61.7C33,61.6,33,61.6,33,61.7L33,61.7L33,61.7l0-0.2l0,0c0,0,0,0,0,0
							c0,0,0,0,0,0c0,0,0,0,0,0h0c0,0,0,0,0,0c0,0,0,0,0,0c0,0,0,0,0,0c0,0,0,0,0,0c0,0,0,0,0,0h0c0,0,0,0,0,0c0,0,0,0,0,0
							c0,0,0,0,0,0c0,0,0,0,0,0c0,0,0,0,0,0c0,0,0,0,0,0c0,0,0,0,0,0l-0.3-0.2l0,0.1c0,0,0,0,0,0.1L32,61.7c0,0,0,0,0,0l0.6,0.4
							c0,0,0,0,0,0c0,0,0,0,0,0c0,0,0,0,0,0h0c0,0,0,0,0,0h0c0,0,0,0,0,0l0.5-0.3c0,0,0,0,0,0L33,61.7L33,61.7z"/>
					</g>
				</g>
				<g>
					<g>
						<path fill="#4C4DC3" d="M33.9,62.2C33.9,62.2,33.9,62.2,33.9,62.2C33.8,62.1,33.8,62.1,33.9,62.2
							C33.8,62.1,33.8,62.1,33.9,62.2L33.9,62.2C33.8,62.1,33.8,62.1,33.9,62.2C33.8,62.1,33.8,62.1,33.9,62.2
							C33.8,62.1,33.8,62.1,33.9,62.2L33.9,62.2L33.9,62.2l0-0.2l0,0c0,0,0,0,0,0c0,0,0,0,0,0c0,0,0,0,0,0l0,0c0,0,0,0,0,0
							c0,0,0,0,0,0c0,0,0,0,0,0c0,0,0,0,0,0h0l0,0c0,0,0,0,0,0c0,0,0,0,0,0c0,0,0,0,0,0c0,0,0,0,0,0c0,0,0,0,0,0c0,0,0,0,0,0
							c0,0,0,0,0,0l-0.3-0.2l0,0.1c0,0,0,0,0,0.1l-0.4,0.2c0,0,0,0,0,0l0.6,0.4c0,0,0,0,0,0c0,0,0,0,0,0c0,0,0,0,0,0l0,0
							c0,0,0,0,0,0l0,0c0,0,0,0,0,0l0.5-0.3c0,0,0,0,0,0L33.9,62.2L33.9,62.2z"/>
					</g>
				</g>
				<g>
					<g>
						<path fill="#4C4DC3" d="M35.5,63.2C35.5,63.2,35.5,63.2,35.5,63.2C35.5,63.2,35.5,63.2,35.5,63.2
							C35.5,63.1,35.5,63.1,35.5,63.2L35.5,63.2C35.5,63.1,35.5,63.1,35.5,63.2C35.5,63.1,35.5,63.1,35.5,63.2
							C35.5,63.1,35.5,63.1,35.5,63.2L35.5,63.2L35.5,63.2l0-0.2l0,0c0,0,0,0,0,0c0,0,0,0,0,0c0,0,0,0,0,0l0,0c0,0,0,0,0,0
							c0,0,0,0,0,0s0,0,0,0c0,0,0,0,0,0h0h0c0,0,0,0,0,0c0,0,0,0,0,0c0,0,0,0,0,0c0,0,0,0,0,0c0,0,0,0,0,0c0,0,0,0,0,0c0,0,0,0,0,0
							L35,62.8l0,0.1c0,0,0,0,0,0.1l-0.4,0.2c0,0,0,0,0,0l0.6,0.4c0,0,0,0,0,0c0,0,0,0,0,0c0,0,0,0,0,0h0c0,0,0,0,0,0c0,0,0,0,0,0
							c0,0,0,0,0,0l0.5-0.3c0,0,0,0,0,0L35.5,63.2L35.5,63.2z"/>
					</g>
				</g>
				<g>
					<g>
						<path fill="#4C4DC3" d="M34.7,62.7C34.7,62.7,34.7,62.7,34.7,62.7C34.7,62.6,34.7,62.6,34.7,62.7
							C34.7,62.6,34.7,62.6,34.7,62.7L34.7,62.7C34.7,62.6,34.7,62.6,34.7,62.7C34.7,62.6,34.7,62.6,34.7,62.7
							C34.7,62.6,34.7,62.6,34.7,62.7L34.7,62.7l0-0.2l0,0c0,0,0,0,0,0c0,0,0,0,0,0c0,0,0,0,0,0h0c0,0,0,0,0,0c0,0,0,0,0,0
							c0,0,0,0,0,0c0,0,0,0,0,0c0,0,0,0,0,0h0c0,0,0,0,0,0c0,0,0,0,0,0c0,0,0,0,0,0c0,0,0,0,0,0c0,0,0,0,0,0c0,0,0,0,0,0
							c0,0,0,0,0,0l-0.3-0.2l0,0.1c0,0,0,0,0,0.1l-0.4,0.2c0,0,0,0,0,0l0.6,0.4c0,0,0,0,0,0c0,0,0,0,0,0c0,0,0,0,0,0h0c0,0,0,0,0,0
							h0c0,0,0,0,0,0l0.5-0.3c0,0,0,0,0,0L34.7,62.7L34.7,62.7z"/>
					</g>
				</g>
				<g>
					<g>
						<path fill="#4C4DC3" d="M33.7,62.9C33.7,62.9,33.7,62.9,33.7,62.9C33.7,62.9,33.7,62.9,33.7,62.9
							C33.7,62.9,33.7,62.9,33.7,62.9L33.7,62.9C33.7,62.9,33.7,62.9,33.7,62.9C33.7,62.9,33.7,62.9,33.7,62.9
							C33.7,62.9,33.7,62.9,33.7,62.9C33.7,62.9,33.7,62.9,33.7,62.9L33.7,62.9l0-0.2l0,0c0,0,0,0,0,0c0,0,0,0,0,0c0,0,0,0,0,0l0,0
							c0,0,0,0,0,0c0,0,0,0,0,0c0,0,0,0,0,0s0,0,0,0h0h0h0c0,0,0,0,0,0c0,0,0,0,0,0c0,0,0,0,0,0c0,0,0,0,0,0c0,0,0,0,0,0
							c0,0,0,0,0,0L33,62.5l0,0.1c0,0,0,0,0,0.1l-0.4,0.2c0,0,0,0,0,0l0.6,0.4c0,0,0,0,0,0c0,0,0,0,0,0c0,0,0,0,0,0h0c0,0,0,0,0,0h0
							c0,0,0,0,0,0L33.7,62.9C33.8,63,33.8,63,33.7,62.9L33.7,62.9L33.7,62.9z"/>
					</g>
				</g>
				<g>
					<g>
						<path fill="#4C4DC3" d="M33.4,63.6C33.4,63.6,33.4,63.6,33.4,63.6C33.4,63.6,33.4,63.6,33.4,63.6
							C33.4,63.6,33.4,63.6,33.4,63.6L33.4,63.6C33.4,63.6,33.4,63.6,33.4,63.6C33.4,63.6,33.4,63.5,33.4,63.6
							C33.4,63.5,33.4,63.5,33.4,63.6L33.4,63.6L33.4,63.6l0-0.2l-0.1,0c0,0,0,0,0,0c0,0,0,0,0,0c0,0,0,0,0,0l0,0c0,0,0,0,0,0
							c0,0,0,0,0,0c0,0,0,0,0,0s0,0,0,0c0,0,0,0,0,0h0c0,0,0,0,0,0c0,0,0,0,0,0c0,0,0,0,0,0c0,0,0,0,0,0s0,0,0,0c0,0,0,0,0,0
							c0,0,0,0,0,0l-0.3-0.2l0,0.1c0,0,0,0,0,0.1l-0.4,0.2c0,0,0,0,0,0L33,64c0,0,0,0,0,0c0,0,0,0,0,0c0,0,0,0,0,0c0,0,0,0,0,0
							c0,0,0,0,0,0l0,0c0,0,0,0,0,0l0.5-0.3c0,0,0,0,0,0L33.4,63.6L33.4,63.6L33.4,63.6z"/>
					</g>
				</g>
				<g>
					<g>
						<path fill="#4C4DC3" d="M33.7,63.9C33.7,63.9,33.6,63.9,33.7,63.9l-0.4,0.3c0,0,0,0,0,0l0.7,0.4c0,0,0,0,0,0c0,0,0,0,0,0
							c0,0,0,0,0,0h0c0,0,0,0,0,0h0c0,0,0,0,0,0l0.5-0.3c0,0,0,0,0,0l-0.9-0.6L33.7,63.9z"/>
					</g>
				</g>
				<g>
					<g>
						<path fill="#4C4DC3" d="M33.2,64.3C33.2,64.3,33.2,64.3,33.2,64.3C33.2,64.3,33.2,64.3,33.2,64.3
							C33.2,64.3,33.2,64.3,33.2,64.3L33.2,64.3C33.2,64.3,33.2,64.3,33.2,64.3C33.2,64.3,33.2,64.3,33.2,64.3
							C33.2,64.3,33.2,64.3,33.2,64.3L33.2,64.3L33.2,64.3l0-0.2l0,0c0,0,0,0,0,0c0,0,0,0,0,0c0,0,0,0,0,0l0,0c0,0,0,0,0,0
							c0,0,0,0,0,0c0,0,0,0,0,0s0,0,0,0h0h0c0,0,0,0,0,0c0,0,0,0,0,0c0,0,0,0,0,0c0,0,0,0,0,0c0,0,0,0,0,0c0,0,0,0,0,0c0,0,0,0,0,0
							l-0.6-0.4l0,0c0,0,0,0,0,0l0,0.1c0,0,0,0,0,0.1l-0.4,0.2c0,0,0,0,0,0v0c0,0,0,0,0,0l1.3,0.8c0,0,0,0,0,0c0,0,0,0,0,0
							c0,0,0,0,0,0h0c0,0,0,0,0,0h0c0,0,0,0,0,0l0.5-0.3c0,0,0,0,0,0L33.2,64.3L33.2,64.3z"/>
					</g>
				</g>
				<g>
					<g>
						<path fill="#4C4DC3" d="M32.2,64.7C32.2,64.7,32.2,64.7,32.2,64.7L31.8,65c0,0,0,0,0,0l0.6,0.4c0,0,0,0,0,0c0,0,0,0,0,0
							c0,0,0,0,0,0h0c0,0,0,0,0,0l0,0c0,0,0,0,0,0l0.5-0.3c0,0,0,0,0,0l-0.8-0.5L32.2,64.7z"/>
					</g>
				</g>
				<g>
					<g>
						<path fill="#4C4DC3" d="M32.5,65.5C32.5,65.5,32.5,65.5,32.5,65.5L32.5,65.5C32.5,65.5,32.5,65.5,32.5,65.5
							C32.4,65.5,32.4,65.5,32.5,65.5C32.4,65.5,32.4,65.5,32.5,65.5C32.4,65.5,32.4,65.5,32.5,65.5C32.4,65.5,32.4,65.5,32.5,65.5
							C32.4,65.5,32.4,65.5,32.5,65.5C32.4,65.5,32.4,65.5,32.5,65.5l-0.7-0.4v0c0,0,0,0,0,0l0,0.1c0,0,0,0,0,0.1l-0.4,0.2
							c0,0,0,0,0,0l0.5,0.3c0,0,0,0,0,0c0,0,0,0,0,0c0,0,0,0,0,0h0c0,0,0,0,0,0l0,0c0,0,0,0,0,0L32.5,65.5
							C32.5,65.6,32.5,65.5,32.5,65.5L32.5,65.5C32.5,65.5,32.5,65.5,32.5,65.5z"/>
					</g>
				</g>
				<g>
					<g>
						<path fill="#4C4DC3" d="M31.8,65.1L31.8,65.1L31.8,65.1l0-0.1l0,0c0,0,0,0,0,0C31.7,65,31.7,65,31.8,65.1
							C31.7,65,31.7,65,31.8,65.1L31.8,65.1C31.7,65,31.7,65,31.8,65.1C31.7,65,31.7,65,31.7,65c0,0,0,0,0,0s0,0,0,0c0,0,0,0,0,0h0
							c0,0,0,0,0,0c0,0,0,0,0,0c0,0,0,0,0,0c0,0,0,0,0,0c0,0,0,0,0,0c0,0,0,0,0,0c0,0,0,0,0,0L31,64.7l0,0c0,0,0,0,0,0l0,0.1
							c0,0,0,0,0,0.1l-0.4,0.2c0,0,0,0,0,0l0.6,0.4c0,0,0,0,0,0c0,0,0,0,0,0c0,0,0,0,0,0h0c0,0,0,0,0,0c0,0,0,0,0,0c0,0,0,0,0,0
							L31.8,65.1C31.8,65.1,31.8,65.1,31.8,65.1C31.8,65.1,31.8,65.1,31.8,65.1C31.8,65.1,31.8,65.1,31.8,65.1z"/>
					</g>
				</g>
				<g>
					<g>
						<path fill="#4C4DC3" d="M30.9,64.6l0-0.1l0,0C30.9,64.5,30.9,64.5,30.9,64.6C30.9,64.5,30.9,64.5,30.9,64.6
							C30.8,64.5,30.8,64.5,30.9,64.6L30.9,64.6C30.8,64.5,30.8,64.5,30.9,64.6c-0.1-0.1-0.1-0.1-0.1-0.1c0,0,0,0,0,0c0,0,0,0,0,0
							c0,0,0,0,0,0h0c0,0,0,0,0,0c0,0,0,0,0,0c0,0,0,0,0,0c0,0,0,0,0,0c0,0,0,0,0,0c0,0,0,0,0,0c0,0,0,0,0,0l-0.6-0.4l0,0
							c0,0,0,0,0,0l0,0.1c0,0,0,0,0,0.1l-0.4,0.2c0,0,0,0,0,0l0.6,0.4c0,0,0,0,0,0c0,0,0,0,0,0c0,0,0,0,0,0h0c0,0,0,0,0,0h0
							c0,0,0,0,0,0L30.9,64.6C30.9,64.6,30.9,64.6,30.9,64.6C30.9,64.6,30.9,64.6,30.9,64.6C30.9,64.6,30.9,64.6,30.9,64.6
							L30.9,64.6L30.9,64.6L30.9,64.6z"/>
					</g>
				</g>
				<g>
					<g>
						<path fill="#4C4DC3" d="M30.1,64.1L30.1,64.1L30.1,64.1l0-0.1l0,0c0,0,0,0,0,0C30,64,30,64,30.1,64.1C30,64,30,64,30.1,64.1
							L30.1,64.1C30,64,30,64,30.1,64.1C30,64,30,64,30,64c0,0,0,0,0,0c0,0,0,0,0,0h0h0c0,0,0,0,0,0c0,0,0,0,0,0c0,0,0,0,0,0
							c0,0,0,0,0,0c0,0,0,0,0,0c0,0,0,0,0,0c0,0,0,0,0,0l-0.6-0.4l0,0c0,0,0,0,0,0l0,0.1c0,0,0,0,0,0.1L28.8,64c0,0,0,0,0,0l0.6,0.4
							c0,0,0,0,0,0c0,0,0,0,0,0c0,0,0,0,0,0h0c0,0,0,0,0,0h0c0,0,0,0,0,0L30.1,64.1C30.1,64.1,30.1,64.1,30.1,64.1
							C30.1,64.1,30.1,64.1,30.1,64.1C30.1,64.1,30.1,64.1,30.1,64.1z"/>
					</g>
				</g>
				<g>
					<g>
						<path fill="#4C4DC3" d="M29.3,63.5L29.3,63.5C29.2,63.5,29.2,63.5,29.3,63.5C29.2,63.5,29.2,63.5,29.3,63.5
							C29.2,63.5,29.2,63.5,29.3,63.5L29.3,63.5C29.2,63.5,29.2,63.5,29.3,63.5c-0.1,0-0.1,0-0.1,0c0,0,0,0,0,0c0,0,0,0,0,0
							c0,0,0,0,0,0h0c0,0,0,0,0,0s0,0,0,0s0,0,0,0c0,0,0,0,0,0c0,0,0,0,0,0c0,0,0,0,0,0c0,0,0,0,0,0l-0.6-0.4l0,0c0,0,0,0,0,0l0,0.1
							c0,0,0,0,0,0.1L28,63.5c0,0,0,0,0,0l0.6,0.4c0,0,0,0,0,0c0,0,0,0,0,0c0,0,0,0,0,0h0c0,0,0,0,0,0l0,0c0,0,0,0,0,0l0.5-0.3
							c0,0,0,0,0,0c0,0,0,0,0,0c0,0,0,0,0,0v0v0L29.3,63.5z"/>
					</g>
				</g>
				<g>
					<g>
						<path fill="#4C4DC3" d="M28.4,63.1C28.4,63.1,28.4,63.1,28.4,63.1L28.4,63.1l0-0.1l0,0c0,0,0,0,0,0C28.4,63,28.4,63,28.4,63.1
							C28.3,63,28.3,63,28.4,63.1L28.4,63.1C28.3,63,28.3,63,28.4,63.1C28.3,63,28.3,63,28.3,63c0,0,0,0,0,0c0,0,0,0,0,0h0h0
							c0,0,0,0,0,0c0,0,0,0,0,0c0,0,0,0,0,0c0,0,0,0,0,0c0,0,0,0,0,0c0,0,0,0,0,0c0,0,0,0,0,0l-0.6-0.4l0,0c0,0,0,0,0,0c0,0,0,0,0,0
							c0,0,0,0,0,0v0c0,0,0,0,0,0c0,0,0,0,0,0c0,0,0,0,0,0c0,0,0,0,0,0v0l0-0.1l-0.1,0c0,0,0,0,0,0c0,0,0,0,0,0c0,0,0,0,0,0l0,0
							c0,0,0,0,0,0c0,0,0,0,0,0c0,0,0,0,0,0c0,0,0,0,0,0h0h0h0c0,0,0,0,0,0c0,0,0,0,0,0c0,0,0,0,0,0c0,0,0,0,0,0c0,0,0,0,0,0
							c0,0,0,0,0,0l-0.6-0.4h0c0,0,0,0,0,0c0,0,0,0,0,0c0,0,0,0,0,0h0c0,0,0,0,0,0c0,0,0,0,0,0c0,0,0,0,0,0v0v0l0-0.1l0,0
							c0,0,0,0,0,0c0,0,0,0,0,0c0,0,0,0,0,0h0c0,0,0,0,0,0c0,0,0,0,0,0s0,0,0,0s0,0,0,0c0,0,0,0,0,0h0c0,0,0,0,0,0c0,0,0,0,0,0
							c0,0,0,0,0,0c0,0,0,0,0,0c0,0,0,0,0,0c0,0,0,0,0,0c0,0,0,0,0,0L26,61.6l0,0c0,0,0,0,0,0c0,0,0,0,0,0c0,0,0,0,0,0l0,0
							c0,0,0,0,0,0c0,0,0,0,0,0c0,0,0,0,0,0l0,0v0l0-0.1l0,0c0,0,0,0,0,0c0,0,0,0,0,0c0,0,0,0,0,0h0c0,0,0,0,0,0c0,0,0,0,0,0
							c0,0,0,0,0,0c0,0,0,0,0,0h0h0c0,0,0,0,0,0c0,0,0,0,0,0c0,0,0,0,0,0c0,0,0,0,0,0c0,0,0,0,0,0c0,0,0,0,0,0c0,0,0,0,0,0l-0.6-0.4
							l0,0c0,0,0,0,0,0c0,0,0,0,0,0c0,0,0,0,0,0l0,0c0,0,0,0,0,0c0,0,0,0,0,0c0,0,0,0,0,0v0v0l0-0.1l0,0c0,0,0,0,0,0c0,0,0,0,0,0
							c0,0,0,0,0,0h0c0,0,0,0,0,0c0,0,0,0,0,0c0,0,0,0,0,0c0,0,0,0,0,0h0h0c0,0,0,0,0,0c0,0,0,0,0,0c0,0,0,0,0,0c0,0,0,0,0,0
							c0,0,0,0,0,0c0,0,0,0,0,0c0,0,0,0,0,0l-0.6-0.4h0c0,0,0,0,0,0l0,0.1c0,0,0,0,0,0.1L23.8,61c0,0,0,0,0,0l3.9,2.4c0,0,0,0,0,0
							c0,0,0,0,0,0c0,0,0,0,0,0h0c0,0,0,0,0,0l0,0c0,0,0,0,0,0L28.4,63.1C28.4,63.1,28.4,63.1,28.4,63.1
							C28.4,63.1,28.4,63.1,28.4,63.1C28.4,63.1,28.4,63.1,28.4,63.1z"/>
					</g>
				</g>
				<g>
					<g>
						<path fill="#4C4DC3" d="M24.3,60.5L24.3,60.5C24.2,60.5,24.2,60.5,24.3,60.5C24.2,60.5,24.2,60.5,24.3,60.5
							C24.2,60.5,24.2,60.5,24.3,60.5L24.3,60.5C24.2,60.5,24.2,60.5,24.3,60.5c-0.1,0-0.1,0-0.1,0c0,0,0,0,0,0c0,0,0,0,0,0
							c0,0,0,0,0,0h0c0,0,0,0,0,0c0,0,0,0,0,0c0,0,0,0,0,0c0,0,0,0,0,0c0,0,0,0,0,0c0,0,0,0,0,0c0,0,0,0,0,0l-0.6-0.4l0,0.1
							c0,0,0,0,0,0.1L23,60.5c0,0,0,0,0,0l0.6,0.4c0,0,0,0,0,0c0,0,0,0,0,0c0,0,0,0,0,0h0c0,0,0,0,0,0l0,0c0,0,0,0,0,0l0.5-0.3
							c0,0,0,0,0,0c0,0,0,0,0,0c0,0,0,0,0,0v0v0L24.3,60.5z"/>
					</g>
				</g>
				<g>
					<g>
						<path fill="#4C4DC3" d="M23.1,59.9C23.1,59.9,23.1,59.9,23.1,59.9C23.1,59.9,23.1,59.9,23.1,59.9L23.1,59.9L23.1,59.9
							C23.1,59.9,23.1,59.9,23.1,59.9C23.1,59.9,23.1,59.9,23.1,59.9C23.1,59.9,23.1,59.9,23.1,59.9L23.1,59.9L23.1,59.9l0-0.2
							l-0.1,0c0,0,0,0,0,0c0,0,0,0,0,0c0,0,0,0,0,0h0c0,0,0,0,0,0c0,0,0,0,0,0c0,0,0,0,0,0c0,0,0,0,0,0h0h0c0,0,0,0,0,0c0,0,0,0,0,0
							c0,0,0,0,0,0c0,0,0,0,0,0c0,0,0,0,0,0c0,0,0,0,0,0c0,0,0,0,0,0l-0.2-0.1l0,0.1c0,0,0,0,0,0.1L22.2,60c0,0,0,0,0,0v0
							c0,0,0,0,0,0l0.6,0.4c0,0,0,0,0,0c0,0,0,0,0,0c0,0,0,0,0,0h0c0,0,0,0,0,0c0,0,0,0,0,0c0,0,0,0,0,0l0.5-0.3c0,0,0,0,0,0
							L23.1,59.9L23.1,59.9z"/>
					</g>
				</g>
				<g>
					<g>
						<path fill="#4C4DC3" d="M24.5,59.9C24.5,59.9,24.5,59.9,24.5,59.9C24.4,59.9,24.4,59.9,24.5,59.9
							C24.4,59.9,24.4,59.8,24.5,59.9L24.5,59.9C24.4,59.8,24.4,59.8,24.5,59.9C24.4,59.8,24.4,59.8,24.5,59.9
							C24.4,59.8,24.4,59.8,24.5,59.9L24.5,59.9L24.5,59.9l0-0.2l0,0c0,0,0,0,0,0c0,0,0,0,0,0c0,0,0,0,0,0h0c0,0,0,0,0,0
							c0,0,0,0,0,0c0,0,0,0,0,0c0,0,0,0,0,0c0,0,0,0,0,0h0c0,0,0,0,0,0c0,0,0,0,0,0c0,0,0,0,0,0c0,0,0,0,0,0c0,0,0,0,0,0
							c0,0,0,0,0,0c0,0,0,0,0,0l-0.6-0.4l0,0c0,0,0,0,0,0c0,0,0,0,0,0c0,0,0,0,0,0h0c0,0,0,0,0,0c0,0,0,0,0,0c0,0,0,0,0,0v0v0l0-0.1
							l-0.1,0c0,0,0,0,0,0c0,0,0,0,0,0c0,0,0,0,0,0l0,0c0,0,0,0,0,0c0,0,0,0,0,0c0,0,0,0,0,0c0,0,0,0,0,0h0h0c0,0,0,0,0,0
							c0,0,0,0,0,0c0,0,0,0,0,0c0,0,0,0,0,0c0,0,0,0,0,0c0,0,0,0,0,0c0,0,0,0,0,0l-0.5-0.3l0,0.1c0,0,0,0,0,0.1l-0.4,0.2
							c0,0,0,0,0,0v0c0,0,0,0,0,0l0.3,0.2c0,0,0,0,0,0c0,0,0,0,0,0c0,0,0,0,0,0h0c0,0,0,0,0,0l0,0c0,0,0,0,0,0l0.5-0.3
							c0,0,0,0,0-0.1l0,0.2c0,0,0,0,0,0.1l-0.4,0.2c0,0,0,0,0,0v0c0,0,0,0,0,0l1,0.6c0,0,0,0,0,0c0,0,0,0,0,0c0,0,0,0,0,0h0
							c0,0,0,0,0,0c0,0,0,0,0,0c0,0,0,0,0,0l0.5-0.3c0,0,0,0,0,0L24.5,59.9L24.5,59.9z"/>
					</g>
				</g>
				<g>
					<g>
						<path fill="#4C4DC3" d="M22.6,58.7C22.6,58.7,22.6,58.7,22.6,58.7C22.6,58.7,22.6,58.7,22.6,58.7
							C22.6,58.7,22.6,58.7,22.6,58.7L22.6,58.7C22.6,58.7,22.6,58.7,22.6,58.7C22.6,58.7,22.6,58.7,22.6,58.7
							C22.6,58.7,22.6,58.7,22.6,58.7L22.6,58.7l0-0.2l-0.1,0c0,0,0,0,0,0c0,0,0,0,0,0c0,0,0,0,0,0h0c0,0,0,0,0,0c0,0,0,0,0,0
							c0,0,0,0,0,0c0,0,0,0,0,0c0,0,0,0,0,0h0c0,0,0,0,0,0c0,0,0,0,0,0c0,0,0,0,0,0c0,0,0,0,0,0s0,0,0,0c0,0,0,0,0,0c0,0,0,0,0,0
							l0,0l0,0.1c0,0,0,0,0,0.1L21.9,59c0,0,0,0,0,0l0.3,0.2c0,0,0,0,0,0c0,0,0,0,0,0c0,0,0,0,0,0h0c0,0,0,0,0,0c0,0,0,0,0,0
							c0,0,0,0,0,0l0.5-0.3c0,0,0,0,0,0L22.6,58.7L22.6,58.7z"/>
					</g>
				</g>
				<g>
					<g>
						<path fill="#4C4DC3" d="M21.7,58.2C21.7,58.2,21.7,58.2,21.7,58.2C21.7,58.2,21.7,58.2,21.7,58.2
							C21.7,58.2,21.7,58.2,21.7,58.2L21.7,58.2C21.7,58.2,21.7,58.2,21.7,58.2C21.7,58.2,21.7,58.2,21.7,58.2
							C21.7,58.2,21.7,58.2,21.7,58.2L21.7,58.2L21.7,58.2l0-0.2l0,0c0,0,0,0,0,0c0,0,0,0,0,0c0,0,0,0,0,0h0c0,0,0,0,0,0
							c0,0,0,0,0,0c0,0,0,0,0,0c0,0,0,0,0,0c0,0,0,0,0,0h0h0c0,0,0,0,0,0c0,0,0,0,0,0c0,0,0,0,0,0c0,0,0,0,0,0c0,0,0,0,0,0
							c0,0,0,0,0,0l0,0l0,0.1c0,0,0,0,0,0.1L21,58.4c0,0,0,0,0,0l0.7,0.4c0,0,0,0,0,0c0,0,0,0,0,0c0,0,0,0,0,0l0,0c0,0,0,0,0,0l0,0
							c0,0,0,0,0,0l0.5-0.3c0,0,0,0,0,0L21.7,58.2L21.7,58.2z"/>
					</g>
				</g>
				<g>
					<g>
						<g>
							<path fill="#61A1F0" d="M24.5,55.6c0,0-0.1,0-0.2,0l-0.5,0.3c0,0-0.1,0.1,0,0.1l0.6,0.4c0,0,0.1,0,0.2,0l0.5-0.3
								c0,0,0.1-0.1,0-0.1L24.5,55.6z"/>
						</g>
					</g>
				</g>
				<g>
					<g>
						<g>
							<path fill="#61A1F0" d="M25.4,56.1c0,0-0.1,0-0.2,0l-0.5,0.3c0,0-0.1,0.1,0,0.1l0.6,0.4c0,0,0.1,0,0.2,0l0.5-0.3
								c0,0,0.1-0.1,0-0.1L25.4,56.1z"/>
						</g>
					</g>
				</g>
				<g>
					<g>
						<g>
							<path fill="#61A1F0" d="M26.2,56.6c0,0-0.1,0-0.2,0l-0.5,0.3c0,0-0.1,0.1,0,0.1l0.6,0.4c0,0,0.1,0,0.2,0l0.5-0.3
								c0,0,0-0.1,0-0.1L26.2,56.6z"/>
						</g>
					</g>
				</g>
				<g>
					<g>
						<g>
							<path fill="#61A1F0" d="M27,57.1c0,0-0.1,0-0.2,0l-0.5,0.3c0,0-0.1,0.1,0,0.1l0.6,0.4c0,0,0.1,0,0.2,0l0.5-0.3
								c0,0,0.1-0.1,0-0.1L27,57.1z"/>
						</g>
					</g>
				</g>
				<g>
					<g>
						<g>
							<path fill="#61A1F0" d="M27.9,57.6c0,0-0.1,0-0.2,0l-0.5,0.3c0,0-0.1,0.1,0,0.1l0.6,0.4c0,0,0.1,0,0.2,0l0.5-0.3
								c0,0,0-0.1,0-0.1L27.9,57.6z"/>
						</g>
					</g>
				</g>
				<g>
					<g>
						<g>
							<path fill="#61A1F0" d="M28.7,58.1c0,0-0.1,0-0.2,0L28,58.4c0,0-0.1,0.1,0,0.1l0.6,0.4c0,0,0.1,0,0.2,0l0.5-0.3
								c0,0,0-0.1,0-0.1L28.7,58.1z"/>
						</g>
					</g>
				</g>
				<g>
					<g>
						<g>
							<path fill="#61A1F0" d="M29.5,58.6c0,0-0.1,0-0.2,0l-0.5,0.3c0,0-0.1,0.1,0,0.1l0.6,0.4c0,0,0.1,0,0.2,0l0.5-0.3
								c0,0,0.1-0.1,0-0.1L29.5,58.6z"/>
						</g>
					</g>
				</g>
				<g>
					<g>
						<g>
							<path fill="#61A1F0" d="M30.4,59.1c0,0-0.1,0-0.2,0l-0.5,0.3c0,0-0.1,0.1,0,0.1l0.6,0.4c0,0,0.1,0,0.2,0l0.5-0.3
								c0,0,0.1-0.1,0-0.1L30.4,59.1z"/>
						</g>
					</g>
				</g>
				<g>
					<g>
						<g>
							<path fill="#61A1F0" d="M31.2,59.6c0,0-0.1,0-0.2,0l-0.5,0.3c0,0-0.1,0.1,0,0.1l0.6,0.4c0,0,0.1,0,0.2,0l0.5-0.3
								c0,0,0.1-0.1,0-0.1L31.2,59.6z"/>
						</g>
					</g>
				</g>
				<g>
					<g>
						<g>
							<path fill="#61A1F0" d="M32,60.1c0,0-0.1,0-0.2,0l-0.5,0.3c0,0-0.1,0.1,0,0.1l0.6,0.4c0,0,0.1,0,0.2,0l0.5-0.3
								c0,0,0-0.1,0-0.1L32,60.1z"/>
						</g>
					</g>
				</g>
				<g>
					<g>
						<g>
							<path fill="#61A1F0" d="M32.8,60.6c0,0-0.1,0-0.2,0l-0.5,0.3c0,0-0.1,0.1,0,0.1l0.6,0.4c0,0,0.1,0,0.2,0l0.5-0.3
								c0,0,0.1-0.1,0-0.1L32.8,60.6z"/>
						</g>
					</g>
				</g>
				<g>
					<g>
						<g>
							<path fill="#61A1F0" d="M33.7,61.1c0,0-0.1,0-0.2,0L33,61.4c0,0-0.1,0.1,0,0.1l0.6,0.4c0,0,0.1,0,0.2,0l0.5-0.3
								c0,0,0.1-0.1,0-0.1L33.7,61.1z"/>
						</g>
					</g>
				</g>
				<g>
					<g>
						<g>
							<path fill="#61A1F0" d="M34.5,61.6c0,0-0.1,0-0.2,0l-0.5,0.3c0,0-0.1,0.1,0,0.1l0.6,0.4c0,0,0.1,0,0.2,0l0.5-0.3
								c0,0,0-0.1,0-0.1L34.5,61.6z"/>
						</g>
					</g>
				</g>
				<g>
					<g>
						<g>
							<path fill="#61A1F0" d="M35.3,62.1c0,0-0.1,0-0.2,0l-0.5,0.3c0,0-0.1,0.1,0,0.1l0.6,0.4c0,0,0.1,0,0.2,0l0.5-0.3
								c0,0,0.1-0.1,0-0.1L35.3,62.1z"/>
						</g>
					</g>
				</g>
				<g>
					<g>
						<g>
							<path fill="#61A1F0" d="M36.2,62.6c0,0-0.1,0-0.2,0l-0.5,0.3c0,0-0.1,0.1,0,0.1l0.6,0.4c0,0,0.1,0,0.2,0l0.5-0.3
								c0,0,0-0.1,0-0.1L36.2,62.6z"/>
						</g>
					</g>
				</g>
				<g>
					<g>
						<g>
							<path fill="#61A1F0" d="M23.8,56c0,0-0.1,0-0.2,0l-0.5,0.3c0,0-0.1,0.1,0,0.1l2,1.2c0,0,0.1,0,0.2,0l0.5-0.3
								c0,0,0.1-0.1,0-0.1L23.8,56z"/>
						</g>
					</g>
				</g>
				<g>
					<g>
						<g>
							<path fill="#61A1F0" d="M26,57.3c0,0-0.1,0-0.2,0l-0.5,0.3c0,0,0,0.1,0,0.1l0.6,0.4c0,0,0.1,0,0.2,0l0.5-0.3
								c0,0,0.1-0.1,0-0.1L26,57.3z"/>
						</g>
					</g>
				</g>
				<g>
					<g>
						<g>
							<path fill="#61A1F0" d="M26.9,57.8c0,0-0.1,0-0.2,0l-0.5,0.3c0,0-0.1,0.1,0,0.1l0.6,0.4c0,0,0.1,0,0.2,0l0.5-0.3
								c0,0,0-0.1,0-0.1L26.9,57.8z"/>
						</g>
					</g>
				</g>
				<g>
					<g>
						<g>
							<path fill="#61A1F0" d="M27.7,58.3c0,0-0.1,0-0.2,0l-0.5,0.3c0,0-0.1,0.1,0,0.1l0.6,0.4c0,0,0.1,0,0.2,0l0.5-0.3
								c0,0,0.1-0.1,0-0.1L27.7,58.3z"/>
						</g>
					</g>
				</g>
				<g>
					<g>
						<g>
							<path fill="#61A1F0" d="M28.5,58.8c0,0-0.1,0-0.2,0l-0.5,0.3c0,0,0,0.1,0,0.1l0.6,0.4c0,0,0.1,0,0.2,0l0.5-0.3
								c0,0,0.1-0.1,0-0.1L28.5,58.8z"/>
						</g>
					</g>
				</g>
				<g>
					<g>
						<g>
							<path fill="#61A1F0" d="M29.4,59.4c0,0-0.1,0-0.2,0l-0.5,0.3c0,0-0.1,0.1,0,0.1l0.6,0.4c0,0,0.1,0,0.2,0l0.5-0.3
								c0,0,0.1-0.1,0-0.1L29.4,59.4z"/>
						</g>
					</g>
				</g>
				<g>
					<g>
						<g>
							<path fill="#61A1F0" d="M30.2,59.9c0,0-0.1,0-0.2,0l-0.5,0.3c0,0,0,0.1,0,0.1l0.6,0.4c0,0,0.1,0,0.2,0l0.5-0.3
								c0,0,0-0.1,0-0.1L30.2,59.9z"/>
						</g>
					</g>
				</g>
				<g>
					<g>
						<g>
							<path fill="#61A1F0" d="M31,60.4c0,0-0.1,0-0.2,0l-0.5,0.3c0,0-0.1,0.1,0,0.1l0.6,0.4c0,0,0.1,0,0.2,0l0.5-0.3
								c0,0,0.1-0.1,0-0.1L31,60.4z"/>
						</g>
					</g>
				</g>
				<g>
					<g>
						<g>
							<path fill="#61A1F0" d="M31.9,60.9c0,0-0.1,0-0.2,0l-0.5,0.3c0,0-0.1,0.1,0,0.1l0.6,0.4c0,0,0.1,0,0.2,0l0.5-0.3
								c0,0,0.1-0.1,0-0.1L31.9,60.9z"/>
						</g>
					</g>
				</g>
				<g>
					<g>
						<g>
							<path fill="#61A1F0" d="M32.7,61.4c0,0-0.1,0-0.2,0l-0.5,0.3c0,0,0,0.1,0,0.1l0.6,0.4c0,0,0.1,0,0.2,0l0.5-0.3
								c0,0,0.1-0.1,0-0.1L32.7,61.4z"/>
						</g>
					</g>
				</g>
				<g>
					<g>
						<g>
							<path fill="#61A1F0" d="M33.5,61.9c0,0-0.1,0-0.2,0l-0.5,0.3c0,0-0.1,0.1,0,0.1l0.6,0.4c0,0,0.1,0,0.2,0l0.5-0.3
								c0,0,0.1-0.1,0-0.1L33.5,61.9z"/>
						</g>
					</g>
				</g>
				<g>
					<g>
						<g>
							<path fill="#61A1F0" d="M34.4,62.4c0,0-0.1,0-0.2,0l-0.5,0.3c0,0-0.1,0.1,0,0.1l0.6,0.4c0,0,0.1,0,0.2,0l0.5-0.3
								c0,0,0.1-0.1,0-0.1L34.4,62.4z"/>
						</g>
					</g>
				</g>
				<g>
					<g>
						<g>
							<path fill="#61A1F0" d="M35.2,62.9c0,0-0.1,0-0.2,0l-0.5,0.3c0,0,0,0.1,0,0.1l0.6,0.4c0,0,0.1,0,0.2,0l0.5-0.3
								c0,0,0.1-0.1,0-0.1L35.2,62.9z"/>
						</g>
					</g>
				</g>
				<g>
					<g>
						<g>
							<path fill="#61A1F0" d="M23.1,56.4c0,0-0.1,0-0.2,0l-0.5,0.3c0,0-0.1,0.1,0,0.1l0.6,0.4c0,0,0.1,0,0.2,0l0.5-0.3
								c0,0,0.1-0.1,0-0.1L23.1,56.4z"/>
						</g>
					</g>
				</g>
				<g>
					<g>
						<g>
							<path fill="#61A1F0" d="M24,56.9c0,0-0.1,0-0.2,0l-0.5,0.3c0,0-0.1,0.1,0,0.1l0.6,0.4c0,0,0.1,0,0.2,0l0.5-0.3
								c0,0,0.1-0.1,0-0.1L24,56.9z"/>
						</g>
					</g>
				</g>
				<g>
					<g>
						<g>
							<path fill="#61A1F0" d="M22.4,56.8c0,0-0.1,0-0.2,0L21,57.5c0,0-0.1,0.1,0,0.1l0.4,0.3c0,0,0.1,0,0.2,0l1.2-0.7
								c0,0,0.1-0.1,0-0.1L22.4,56.8z"/>
						</g>
					</g>
				</g>
				<g>
					<g>
						<g>
							<path fill="#61A1F0" d="M23.1,57.3c0,0-0.1,0-0.2,0l-0.5,0.3c0,0-0.1,0.1,0,0.1l0.6,0.4c0,0,0.1,0,0.2,0l0.5-0.3
								c0,0,0.1-0.1,0-0.1L23.1,57.3z"/>
						</g>
					</g>
				</g>
				<g>
					<g>
						<g>
							<path fill="#61A1F0" d="M25.7,58c0,0-0.1,0-0.2,0l-0.5,0.3c0,0-0.1,0.1,0,0.1l0.6,0.4c0,0,0.1,0,0.2,0l0.5-0.3
								c0,0,0.1-0.1,0-0.1L25.7,58z"/>
						</g>
					</g>
				</g>
				<g>
					<g>
						<g>
							<path fill="#61A1F0" d="M24.9,57.5c0,0-0.1,0-0.2,0L24,57.9L23.8,58l-0.3,0.2c0,0-0.1,0.1,0,0.1l1.1,0.7c0,0,0.1,0,0.2,0
								l0.5-0.3c0,0,0.1-0.1,0-0.1l-0.5-0.3l0.6-0.4c0,0,0.1-0.1,0-0.1L24.9,57.5z"/>
						</g>
					</g>
				</g>
				<g>
					<g>
						<g>
							<path fill="#61A1F0" d="M26.6,58.5c0,0-0.1,0-0.2,0l-0.5,0.3c0,0,0,0.1,0,0.1l0.6,0.4c0,0,0.1,0,0.2,0l0.5-0.3
								c0,0,0.1-0.1,0-0.1L26.6,58.5z"/>
						</g>
					</g>
				</g>
				<g>
					<g>
						<g>
							<path fill="#61A1F0" d="M27.4,59c0,0-0.1,0-0.2,0l-0.5,0.3c0,0-0.1,0.1,0,0.1l0.6,0.4c0,0,0.1,0,0.2,0l0.5-0.3
								c0,0,0.1-0.1,0-0.1L27.4,59z"/>
						</g>
					</g>
				</g>
				<g>
					<g>
						<g>
							<path fill="#61A1F0" d="M28.2,59.5c0,0-0.1,0-0.2,0l-0.5,0.3c0,0,0,0.1,0,0.1l0.6,0.4c0,0,0.1,0,0.2,0l0.5-0.3
								c0,0,0.1-0.1,0-0.1L28.2,59.5z"/>
						</g>
					</g>
				</g>
				<g>
					<g>
						<g>
							<path fill="#61A1F0" d="M29,60c0,0-0.1,0-0.2,0l-0.5,0.3c0,0-0.1,0.1,0,0.1l0.6,0.4c0,0,0.1,0,0.2,0l0.5-0.3c0,0,0-0.1,0-0.1
								L29,60z"/>
						</g>
					</g>
				</g>
				<g>
					<g>
						<g>
							<path fill="#61A1F0" d="M29.9,60.5c0,0-0.1,0-0.2,0l-0.5,0.3c0,0-0.1,0.1,0,0.1l0.6,0.4c0,0,0.1,0,0.2,0l0.5-0.3
								c0,0,0.1-0.1,0-0.1L29.9,60.5z"/>
						</g>
					</g>
				</g>
				<g>
					<g>
						<g>
							<path fill="#61A1F0" d="M30.7,61c0,0-0.1,0-0.2,0l-0.5,0.3c0,0,0,0.1,0,0.1l0.6,0.4c0,0,0.1,0,0.2,0l0.5-0.3
								c0,0,0.1-0.1,0-0.1L30.7,61z"/>
						</g>
					</g>
				</g>
				<g>
					<g>
						<g>
							<path fill="#61A1F0" d="M31.5,61.5c0,0-0.1,0-0.2,0l-0.5,0.3c0,0-0.1,0.1,0,0.1l0.6,0.4c0,0,0.1,0,0.2,0l0.5-0.3
								c0,0,0.1-0.1,0-0.1L31.5,61.5z"/>
						</g>
					</g>
				</g>
				<g>
					<g>
						<g>
							<path fill="#61A1F0" d="M32.4,62c0,0-0.1,0-0.2,0l-0.5,0.3c0,0-0.1,0.1,0,0.1l0.6,0.4c0,0,0.1,0,0.2,0l0.5-0.3
								c0,0,0.1-0.1,0-0.1L32.4,62z"/>
						</g>
					</g>
				</g>
				<g>
					<g>
						<g>
							<path fill="#61A1F0" d="M33.2,62.5c0,0-0.1,0-0.2,0l-0.5,0.3c0,0,0,0.1,0,0.1l0.6,0.4c0,0,0.1,0,0.2,0l0.5-0.3
								c0,0,0.1-0.1,0-0.1L33.2,62.5z"/>
						</g>
					</g>
				</g>
				<g>
					<g>
						<g>
							<path fill="#61A1F0" d="M34.1,63c0,0-0.1,0-0.2,0l-0.5,0.3c0,0-0.1,0.1,0,0.1l1.3,0.8c0,0,0.1,0,0.2,0l0.5-0.3
								c0,0,0.1-0.1,0-0.1L34.1,63z"/>
						</g>
					</g>
				</g>
				<g>
					<g>
						<g>
							<path fill="#61A1F0" d="M25.6,58.8c0,0-0.1,0-0.2,0L24.9,59c0,0-0.1,0.1,0,0.1l0.6,0.4c0,0,0.1,0,0.2,0l0.5-0.3
								c0,0,0.1-0.1,0-0.1L25.6,58.8z"/>
						</g>
					</g>
				</g>
				<g>
					<g>
						<g>
							<path fill="#61A1F0" d="M26.4,59.3c0,0-0.1,0-0.2,0l-0.5,0.3c0,0-0.1,0.1,0,0.1l0.6,0.4c0,0,0.1,0,0.2,0l0.5-0.3
								c0,0,0.1-0.1,0-0.1L26.4,59.3z"/>
						</g>
					</g>
				</g>
				<g>
					<g>
						<g>
							<path fill="#61A1F0" d="M27.2,59.8c0,0-0.1,0-0.2,0L26.6,60c0,0-0.1,0.1,0,0.1l0.6,0.4c0,0,0.1,0,0.2,0l0.5-0.3
								c0,0,0-0.1,0-0.1L27.2,59.8z"/>
						</g>
					</g>
				</g>
				<g>
					<g>
						<g>
							<path fill="#61A1F0" d="M28.1,60.3c0,0-0.1,0-0.2,0l-0.5,0.3c0,0-0.1,0.1,0,0.1L28,61c0,0,0.1,0,0.2,0l0.5-0.3
								c0,0,0-0.1,0-0.1L28.1,60.3z"/>
						</g>
					</g>
				</g>
				<g>
					<g>
						<g>
							<path fill="#61A1F0" d="M28.9,60.8c0,0-0.1,0-0.2,0L28.2,61c0,0-0.1,0.1,0,0.1l0.6,0.4c0,0,0.1,0,0.2,0l0.5-0.3
								c0,0,0.1-0.1,0-0.1L28.9,60.8z"/>
						</g>
					</g>
				</g>
				<g>
					<g>
						<g>
							<path fill="#61A1F0" d="M29.7,61.3c0,0-0.1,0-0.2,0l-0.5,0.3c0,0-0.1,0.1,0,0.1l0.6,0.4c0,0,0.1,0,0.2,0l0.5-0.3
								c0,0,0-0.1,0-0.1L29.7,61.3z"/>
						</g>
					</g>
				</g>
				<g>
					<g>
						<g>
							<path fill="#61A1F0" d="M30.6,61.8c0,0-0.1,0-0.2,0L29.9,62c0,0-0.1,0.1,0,0.1l0.6,0.4c0,0,0.1,0,0.2,0l0.5-0.3
								c0,0,0.1-0.1,0-0.1L30.6,61.8z"/>
						</g>
					</g>
				</g>
				<g>
					<g>
						<g>
							<path fill="#61A1F0" d="M31.4,62.3c0,0-0.1,0-0.2,0l-0.5,0.3c0,0-0.1,0.1,0,0.1l0.6,0.4c0,0,0.1,0,0.2,0l0.5-0.3
								c0,0,0.1-0.1,0-0.1L31.4,62.3z"/>
						</g>
					</g>
				</g>
				<g>
					<g>
						<g>
							<path fill="#61A1F0" d="M32.2,62.8c0,0-0.1,0-0.2,0l-0.5,0.3c0,0-0.1,0.1,0,0.1l0.6,0.4c0,0,0.1,0,0.2,0l0.5-0.3
								c0,0,0.1-0.1,0-0.1L32.2,62.8z"/>
						</g>
					</g>
				</g>
				<g>
					<g>
						<g>
							<path fill="#61A1F0" d="M33.1,63.3c0,0-0.1,0-0.2,0l-0.5,0.3c0,0-0.1,0.1,0,0.1L33,64c0,0,0.1,0,0.2,0l0.5-0.3
								c0,0,0.1-0.1,0-0.1L33.1,63.3z"/>
						</g>
					</g>
				</g>
				<g>
					<g>
						<g>
							<path fill="#61A1F0" d="M33.9,63.8c0,0-0.1,0-0.2,0l-0.5,0.3c0,0-0.1,0.1,0,0.1l0.7,0.4c0,0,0.1,0,0.2,0l0.5-0.3
								c0,0,0-0.1,0-0.1L33.9,63.8z"/>
						</g>
					</g>
				</g>
				<g>
					<g>
						<g>
							<path fill="#61A1F0" d="M22.4,57.7c0,0-0.1,0-0.2,0l-0.5,0.3c0,0-0.1,0.1,0,0.1l0.6,0.4c0,0,0.1,0,0.2,0l0.5-0.3
								c0,0,0.1-0.1,0-0.1L22.4,57.7z"/>
						</g>
					</g>
				</g>
				<g>
					<g>
						<g>
							<path fill="#61A1F0" d="M23.3,58.2c0,0-0.1,0-0.2,0l-0.5,0.3c0,0-0.1,0.1,0,0.1l0.8,0.5c0,0,0.1,0,0.2,0l0.5-0.3
								c0,0,0.1-0.1,0-0.1L23.3,58.2z"/>
						</g>
					</g>
				</g>
				<g>
					<g>
						<g>
							<path fill="#61A1F0" d="M24.3,58.8c0,0-0.1,0-0.2,0l-0.5,0.3c0,0-0.1,0.1,0,0.1l0.6,0.4c0,0,0.1,0,0.2,0l0.5-0.3
								c0,0,0.1-0.1,0-0.1L24.3,58.8z"/>
						</g>
					</g>
				</g>
				<g>
					<g>
						<g>
							<path fill="#61A1F0" d="M25.1,59.3c0,0-0.1,0-0.2,0l-0.5,0.3c0,0,0,0.1,0,0.1l0.6,0.4c0,0,0.1,0,0.2,0l0.5-0.3
								c0,0,0.1-0.1,0-0.1L25.1,59.3z"/>
						</g>
					</g>
				</g>
				<g>
					<g>
						<g>
							<path fill="#61A1F0" d="M26,59.8c0,0-0.1,0-0.2,0l-0.5,0.3c0,0-0.1,0.1,0,0.1l0.6,0.4c0,0,0.1,0,0.2,0l0.5-0.3
								c0,0,0.1-0.1,0-0.1L26,59.8z"/>
						</g>
					</g>
				</g>
				<g>
					<g>
						<g>
							<path fill="#61A1F0" d="M26.8,60.3c0,0-0.1,0-0.2,0l-0.5,0.3c0,0,0,0.1,0,0.1l0.6,0.4c0,0,0.1,0,0.2,0l0.5-0.3
								c0,0,0.1-0.1,0-0.1L26.8,60.3z"/>
						</g>
					</g>
				</g>
				<g>
					<g>
						<g>
							<path fill="#61A1F0" d="M27.6,60.8c0,0-0.1,0-0.2,0L27,61.1c0,0-0.1,0.1,0,0.1l0.6,0.4c0,0,0.1,0,0.2,0l0.5-0.3
								c0,0,0.1-0.1,0-0.1L27.6,60.8z"/>
						</g>
					</g>
				</g>
				<g>
					<g>
						<g>
							<path fill="#61A1F0" d="M28.4,61.3c0,0-0.1,0-0.2,0l-0.5,0.3c0,0-0.1,0.1,0,0.1l0.6,0.4c0,0,0.1,0,0.2,0l0.5-0.3
								c0,0,0.1-0.1,0-0.1L28.4,61.3z"/>
						</g>
					</g>
				</g>
				<g>
					<g>
						<g>
							<path fill="#61A1F0" d="M29.3,61.9c0,0-0.1,0-0.2,0l-0.5,0.3c0,0-0.1,0.1,0,0.1l0.6,0.4c0,0,0.1,0,0.2,0l0.5-0.3
								c0,0,0.1-0.1,0-0.1L29.3,61.9z"/>
						</g>
					</g>
				</g>
				<g>
					<g>
						<g>
							<path fill="#61A1F0" d="M30.1,62.4c0,0-0.1,0-0.2,0l-0.5,0.3c0,0-0.1,0.1,0,0.1l0.6,0.4c0,0,0.1,0,0.2,0l0.5-0.3
								c0,0,0.1-0.1,0-0.1L30.1,62.4z"/>
						</g>
					</g>
				</g>
				<g>
					<g>
						<g>
							<path fill="#61A1F0" d="M30.9,62.9c0,0-0.1,0-0.2,0l-0.5,0.3c0,0-0.1,0.1,0,0.1l0.6,0.4c0,0,0.1,0,0.2,0l0.5-0.3
								c0,0,0.1-0.1,0-0.1L30.9,62.9z"/>
						</g>
					</g>
				</g>
				<g>
					<g>
						<g>
							<path fill="#61A1F0" d="M31.8,63.4c0,0-0.1,0-0.2,0l-0.5,0.3c0,0,0,0.1,0,0.1l0.6,0.4c0,0,0.1,0,0.2,0l0.5-0.3
								c0,0,0.1-0.1,0-0.1L31.8,63.4z"/>
						</g>
					</g>
				</g>
				<g>
					<g>
						<g>
							<path fill="#61A1F0" d="M32.6,63.9c0,0-0.1,0-0.2,0L32,64.1c0,0-0.1,0.1,0,0.1l1.3,0.8c0,0,0.1,0,0.2,0l0.5-0.3
								c0,0,0.1-0.1,0-0.1L32.6,63.9z"/>
						</g>
					</g>
				</g>
				<g>
					<g>
						<g>
							<path fill="#61A1F0" d="M20.9,57.7c0,0-0.1,0-0.2,0l-1.2,0.7c0,0-0.1,0.1,0,0.1l0.4,0.3c0,0,0.1,0,0.2,0l1.2-0.7
								c0,0,0.1-0.1,0-0.1L20.9,57.7z"/>
						</g>
					</g>
				</g>
				<g>
					<g>
						<g>
							<path fill="#61A1F0" d="M21.6,58.1c0,0-0.1,0-0.2,0L21,58.3c0,0-0.1,0.1,0,0.1l0.7,0.4c0,0,0.1,0,0.2,0l0.5-0.3
								c0,0,0.1-0.1,0-0.1L21.6,58.1z"/>
						</g>
					</g>
				</g>
				<g>
					<g>
						<g>
							<path fill="#61A1F0" d="M22.5,58.6c0,0-0.1,0-0.2,0l-0.5,0.3c0,0,0,0.1,0,0.1l0.3,0.2c0,0,0.1,0,0.2,0l0.5-0.3
								c0,0,0.1-0.1,0-0.1L22.5,58.6z"/>
						</g>
					</g>
				</g>
				<g>
					<g>
						<g>
							<path fill="#61A1F0" d="M23.1,59c0,0-0.1,0-0.2,0l-0.5,0.3c0,0-0.1,0.1,0,0.1l0.3,0.2c0,0,0.1,0,0.2,0l0.5-0.3
								c0,0,0.1-0.1,0-0.1L23.1,59z"/>
						</g>
					</g>
				</g>
				<g>
					<g>
						<g>
							<path fill="#61A1F0" d="M23.7,59.4c0,0-0.1,0-0.2,0l-0.5,0.3c0,0-0.1,0.1,0,0.1l1,0.6c0,0,0.1,0,0.2,0l0.5-0.3
								c0,0,0.1-0.1,0-0.1L23.7,59.4z"/>
						</g>
					</g>
				</g>
				<g>
					<g>
						<g>
							<path fill="#61A1F0" d="M25,60.1c0,0-0.1,0-0.2,0l-0.5,0.3c0,0-0.1,0.1,0,0.1l0.6,0.4c0,0,0.1,0,0.2,0l0.5-0.3
								c0,0,0.1-0.1,0-0.1L25,60.1z"/>
						</g>
					</g>
				</g>
				<g>
					<g>
						<g>
							<path fill="#61A1F0" d="M25.8,60.6c0,0-0.1,0-0.2,0l-0.5,0.3c0,0,0,0.1,0,0.1l0.6,0.4c0,0,0.1,0,0.2,0l0.5-0.3
								c0,0,0.1-0.1,0-0.1L25.8,60.6z"/>
						</g>
					</g>
				</g>
				<g>
					<g>
						<g>
							<path fill="#61A1F0" d="M26.6,61.1c0,0-0.1,0-0.2,0L26,61.4c0,0-0.1,0.1,0,0.1l0.6,0.4c0,0,0.1,0,0.2,0l0.5-0.3
								c0,0,0-0.1,0-0.1L26.6,61.1z"/>
						</g>
					</g>
				</g>
				<g>
					<g>
						<g>
							<path fill="#61A1F0" d="M27.4,61.6c0,0-0.1,0-0.2,0l-0.5,0.3c0,0-0.1,0.1,0,0.1l0.6,0.4c0,0,0.1,0,0.2,0l0.5-0.3
								c0,0,0.1-0.1,0-0.1L27.4,61.6z"/>
						</g>
					</g>
				</g>
				<g>
					<g>
						<g>
							<path fill="#61A1F0" d="M28.3,62.1c0,0-0.1,0-0.2,0l-0.5,0.3c0,0,0,0.1,0,0.1l0.6,0.4c0,0,0.1,0,0.2,0l0.5-0.3
								c0,0,0.1-0.1,0-0.1L28.3,62.1z"/>
						</g>
					</g>
				</g>
				<g>
					<g>
						<g>
							<path fill="#61A1F0" d="M29.1,62.6c0,0-0.1,0-0.2,0l-0.5,0.3c0,0-0.1,0.1,0,0.1l0.6,0.4c0,0,0.1,0,0.2,0l0.5-0.3
								c0,0,0.1-0.1,0-0.1L29.1,62.6z"/>
						</g>
					</g>
				</g>
				<g>
					<g>
						<g>
							<path fill="#61A1F0" d="M29.9,63.1c0,0-0.1,0-0.2,0l-0.5,0.3c0,0,0,0.1,0,0.1l0.6,0.4c0,0,0.1,0,0.2,0l0.5-0.3
								c0,0,0.1-0.1,0-0.1L29.9,63.1z"/>
						</g>
					</g>
				</g>
				<g>
					<g>
						<g>
							<path fill="#61A1F0" d="M30.8,63.6c0,0-0.1,0-0.2,0l-0.5,0.3c0,0,0,0.1,0,0.1l0.6,0.4c0,0,0.1,0,0.2,0l0.5-0.3
								c0,0,0.1-0.1,0-0.1L30.8,63.6z"/>
						</g>
					</g>
				</g>
				<g>
					<g>
						<g>
							<path fill="#61A1F0" d="M31.6,64.1c0,0-0.1,0-0.2,0L31,64.4c0,0-0.1,0.1,0,0.1l0.6,0.4c0,0,0.1,0,0.2,0l0.5-0.3
								c0,0,0.1-0.1,0-0.1L31.6,64.1z"/>
						</g>
					</g>
				</g>
				<g>
					<g>
						<g>
							<path fill="#61A1F0" d="M32.4,64.6c0,0-0.1,0-0.2,0l-0.5,0.3c0,0,0,0.1,0,0.1l0.6,0.4c0,0,0.1,0,0.2,0l0.5-0.3
								c0,0,0.1-0.1,0-0.1L32.4,64.6z"/>
						</g>
					</g>
				</g>
				<g>
					<g>
						<g>
							<path fill="#61A1F0" d="M21.2,58.7c0,0-0.1,0-0.2,0l-0.5,0.3c0,0-0.1,0.1,0,0.1l0.6,0.4c0,0,0.1,0,0.2,0l0.5-0.3
								c0,0,0.1-0.1,0-0.1L21.2,58.7z"/>
						</g>
					</g>
				</g>
				<g>
					<g>
						<g>
							<path fill="#61A1F0" d="M22,59.2c0,0-0.1,0-0.2,0l-0.5,0.3c0,0-0.1,0.1,0,0.1l0.6,0.4c0,0,0.1,0,0.2,0l0.5-0.3
								c0,0,0-0.1,0-0.1L22,59.2z"/>
						</g>
					</g>
				</g>
				<g>
					<g>
						<g>
							<path fill="#61A1F0" d="M22.8,59.7c0,0-0.1,0-0.2,0l-0.5,0.3c0,0-0.1,0.1,0,0.1l0.6,0.4c0,0,0.1,0,0.2,0l0.5-0.3
								c0,0,0.1-0.1,0-0.1L22.8,59.7z"/>
						</g>
					</g>
				</g>
				<g>
					<g>
						<g>
							<path fill="#61A1F0" d="M23.7,60.2c0,0-0.1,0-0.2,0L23,60.4c0,0-0.1,0.1,0,0.1l0.6,0.4c0,0,0.1,0,0.2,0l0.5-0.3
								c0,0,0-0.1,0-0.1L23.7,60.2z"/>
						</g>
					</g>
				</g>
				<g>
					<g>
						<g>
							<path fill="#61A1F0" d="M24.5,60.7c0,0-0.1,0-0.2,0l-0.5,0.3c0,0-0.1,0.1,0,0.1l3.9,2.4c0,0,0.1,0,0.2,0l0.5-0.3
								c0,0,0.1-0.1,0-0.1L24.5,60.7z"/>
						</g>
					</g>
				</g>
				<g>
					<g>
						<g>
							<path fill="#61A1F0" d="M28.7,63.2c0,0-0.1,0-0.2,0L28,63.5c0,0-0.1,0.1,0,0.1l0.6,0.4c0,0,0.1,0,0.2,0l0.5-0.3
								c0,0,0.1-0.1,0-0.1L28.7,63.2z"/>
						</g>
					</g>
				</g>
				<g>
					<g>
						<g>
							<path fill="#61A1F0" d="M29.5,63.7c0,0-0.1,0-0.2,0L28.9,64c0,0-0.1,0.1,0,0.1l0.6,0.4c0,0,0.1,0,0.2,0l0.5-0.3
								c0,0,0.1-0.1,0-0.1L29.5,63.7z"/>
						</g>
					</g>
				</g>
				<g>
					<g>
						<g>
							<path fill="#61A1F0" d="M30.3,64.2c0,0-0.1,0-0.2,0l-0.5,0.3c0,0-0.1,0.1,0,0.1l0.6,0.4c0,0,0.1,0,0.2,0l0.5-0.3
								c0,0,0.1-0.1,0-0.1L30.3,64.2z"/>
						</g>
					</g>
				</g>
				<g>
					<g>
						<g>
							<path fill="#61A1F0" d="M31.2,64.7c0,0-0.1,0-0.2,0L30.5,65c0,0-0.1,0.1,0,0.1l0.6,0.4c0,0,0.1,0,0.2,0l0.5-0.3
								c0,0,0.1-0.1,0-0.1L31.2,64.7z"/>
						</g>
					</g>
				</g>
				<g>
					<g>
						<g>
							<path fill="#61A1F0" d="M32,65.2c0,0-0.1,0-0.2,0l-0.5,0.3c0,0-0.1,0.1,0,0.1l0.5,0.3c0,0,0.1,0,0.2,0l0.5-0.3
								c0,0,0-0.1,0-0.1L32,65.2z"/>
						</g>
					</g>
				</g>
			</g>
			<g>
				<g>
					<g>
						<polygon fill="#827C7B" points="25.2,53 25.8,52.7 26.1,44.1 25.5,44.4 						"/>
					</g>
				</g>
			</g>
			<g>
				<g>
					<g>
						<polygon fill="#D2C8C6" points="25.6,53.7 38,61.2 38.6,60.9 26.1,53.4 						"/>
					</g>
				</g>
			</g>
			<g>
				<g>
					<g>
						<polygon fill="#1E5D9D" points="25.9,44.1 38.4,51.6 39,51.3 26.5,43.8 						"/>
					</g>
				</g>
			</g>
			<g>
				<g>
					<g>
						<path fill="#61A1F0" d="M32.1,47.4c0,0.1,0.1,0.2,0.1,0.2c0.1,0,0.1,0,0.1-0.1c0-0.1-0.1-0.2-0.1-0.2
							C32.1,47.3,32.1,47.3,32.1,47.4z"/>
					</g>
				</g>
			</g>
			<g>
				<g>
					<polygon fill="#132146" points="32.2,47.6 32.3,47.6 32.3,47.6 					"/>
				</g>
			</g>
			<g>
				<g>
					<path fill="#132146" d="M32.9,47.2C32.9,47.2,32.9,47.2,32.9,47.2C32.9,47.1,32.9,47.1,32.9,47.2
						C32.9,47.1,32.9,47.1,32.9,47.2C32.9,47.1,32.9,47.1,32.9,47.2C32.9,47.1,32.9,47.1,32.9,47.2C32.9,47.1,32.9,47.1,32.9,47.2
						C32.9,47.1,32.9,47.1,32.9,47.2c0-0.1,0-0.1,0-0.1c0,0,0,0,0,0s0,0,0,0c0,0,0,0,0,0c0,0,0,0,0,0c0,0,0,0,0,0c0,0,0,0,0,0
						c0,0,0,0,0,0c0,0,0,0,0,0c0,0,0,0,0,0c0,0,0,0,0,0s0,0,0,0c0,0,0,0,0,0c0,0,0,0,0,0c0,0,0,0,0,0h0l-0.3,0.2l-0.3,0.1v0
						c0,0,0,0,0,0.1c0,0,0,0,0,0c0,0,0,0,0,0c0,0,0,0,0,0s0,0,0,0c0,0,0,0,0,0c0,0,0,0,0,0c0,0,0,0,0,0c0,0,0,0,0,0c0,0,0,0,0,0
						c0,0,0,0,0,0c0,0,0,0,0,0c0,0,0,0,0,0c0,0,0,0,0,0c0,0,0,0,0,0c0,0,0,0,0,0c0,0,0,0,0,0c0,0,0,0,0,0c0,0,0,0,0,0c0,0,0,0,0,0h0
						l0,0l0,0l0,0c0,0,0,0,0,0c0,0,0,0,0,0c0,0,0,0,0,0c0,0,0,0,0,0c0,0,0,0,0,0l0,0l0.1-0.1l0.4-0.3v0
						C32.9,47.3,32.9,47.3,32.9,47.2C32.9,47.2,32.9,47.2,32.9,47.2C32.9,47.2,32.9,47.2,32.9,47.2z"/>
				</g>
			</g>
			<g>
				<g>
					<path fill="#FFFFFF" d="M38.9,51.1L25.5,43c-0.2-0.1-0.4,0-0.4,0.2l-0.4,10.9c0,0.2,0.1,0.5,0.3,0.6l13.4,8.1
						c0.2,0.1,0.4,0,0.4-0.2l0.4-10.9C39.2,51.5,39.1,51.2,38.9,51.1z M32.2,47.6c-0.1,0-0.1-0.1-0.1-0.2s0.1-0.1,0.1-0.1
						c0.1,0,0.1,0.1,0.1,0.2C32.3,47.6,32.3,47.7,32.2,47.6z"/>
				</g>
			</g>
			<g>
				<g>
					<g>
						<path fill="#9B6A99" d="M38.4,51.6l-12.5-7.5c-0.2-0.1-0.4,0-0.4,0.2L25.2,53c0,0.3,0.2,0.6,0.4,0.7L38,61.2
							c0.2,0.1,0.4,0,0.4-0.2l0.3-8.6C38.8,52.1,38.6,51.8,38.4,51.6z"/>
					</g>
				</g>
			</g>
			<g>
				<g>
					<path fill="#D1DDFF" d="M39.8,51.2C39.8,51.2,39.8,51.2,39.8,51.2C39.8,51.2,39.8,51.2,39.8,51.2
						C39.8,51.2,39.8,51.2,39.8,51.2c0-0.1,0-0.1,0-0.1c0,0,0,0,0,0v0c0,0,0,0,0,0s0,0,0-0.1c0,0,0,0,0,0c0,0,0,0,0,0
						c0,0,0-0.1,0-0.1c0,0,0,0,0,0c0,0,0,0,0,0s0,0,0,0c0,0,0,0,0-0.1c0,0,0,0,0,0c0,0,0,0,0,0c0,0,0,0,0,0c0,0,0,0,0,0
						c0,0,0,0-0.1,0l-13.4-8.1c0,0-0.1,0-0.1,0c0,0-0.1,0-0.1,0c0,0,0,0,0,0c0,0,0,0,0,0h0c0,0,0,0,0,0c0,0,0,0,0,0c0,0,0,0,0,0
						c0,0,0,0,0,0L25.3,43c0,0,0,0,0.1,0c0,0,0,0,0,0c0,0,0,0,0.1,0l0,0c0,0,0,0,0.1,0c0,0,0.1,0,0.1,0l13.4,8.1c0,0,0,0,0.1,0
						c0,0,0,0,0,0c0,0,0,0,0,0c0,0,0,0,0,0c0,0,0,0,0,0.1c0,0,0,0,0,0c0,0,0,0.1,0,0.1l0,0c0,0,0,0.1,0,0.1v0c0,0,0,0.1,0,0.1
						c0,0,0,0,0,0c0,0,0,0.1,0,0.1c0,0,0,0,0,0c0,0,0,0.1,0,0.1l-0.4,10.9c0,0.1,0,0.2-0.1,0.2l0.6-0.3c0.1,0,0.1-0.1,0.1-0.2
						l0.4-10.9C39.8,51.3,39.8,51.3,39.8,51.2C39.8,51.3,39.8,51.2,39.8,51.2z"/>
				</g>
			</g>
		</g>
		<g>
			<g>
				<path fill="#D1E7F4" d="M17.2,48.1c-2.9-1.6-4.6-2.7-4.6-2.7s-1-0.5-2.1-0.6c-0.9-0.1-1.9,0-2.7,0.7c-4.5,4,0.3,13.9,0.3,17.8
					c0,0,6,6,10.6,1.7l0.8-6.6c0,0,2-0.5,2-2.8C21.6,53.3,19.1,49.1,17.2,48.1z"/>
			</g>
		</g>
		<g>
			<g>
				<linearGradient id="SVGID_4_" gradientUnits="userSpaceOnUse" x1="24.763" y1="73.6517" x2="19.4165" y2="55.4735">
					<stop  offset="6.277398e-04" style="stop-color:#FF928D"/>
					<stop  offset="0.9981" style="stop-color:#FFB49D"/>
				</linearGradient>
				<path fill="url(#SVGID_4_)" d="M18,64.4c0,0,0.4-3.9,0.8-7.1c0.3-2.8,0.2-5.7-0.7-6.6c0,0,0-0.1-0.1-0.1
					c-0.7-0.6-3.2-1.4-3.8,2.1C13.6,56.2,11.7,68,17,68.1c0.3,0,0.7,0,1,0c0.1,0,0.2,0,0.3,0c0.2,0,0.3,0,0.5,0c0.3,0,0.5,0,0.8-0.1
					c0.1,0,0.3,0,0.4,0c1.1-0.1,10.4-3.4,10.5-3.4l-2.1-2.1L18,64.4z"/>
			</g>
		</g>
		<g>
			<g>
				<path fill="#61A1F0" d="M13.9,52.8c0.4-0.7,1.5-1.4,2.6-1.4c1.2,0,2.5,1.2,2.8,2.1c-0.1-1-0.6-2.3-1.3-3
					C17.1,49.6,14.5,49.4,13.9,52.8z"/>
			</g>
		</g>
		<g>
			<g>
				<linearGradient id="SVGID_5_" gradientUnits="userSpaceOnUse" x1="17.4371" y1="19.2709" x2="14.9421" y2="43.865">
					<stop  offset="6.277398e-04" style="stop-color:#FF928D"/>
					<stop  offset="0.9981" style="stop-color:#FFB49D"/>
				</linearGradient>
				<path fill="url(#SVGID_5_)" d="M21.1,35.4c-0.5-2.8-2.8-4.1-5.7-4.1c-3.1,0-5.6,2.5-5.6,5.6c0,0,0,0.1,0,0.1h0v3.1
					c0,2.4,6.3,5.8,7,5.8c0.4,0,0.7-0.1,1-0.4c1.9-1.5,3.7-4.7,3.4-7C21,37.3,21.3,36.4,21.1,35.4z"/>
			</g>
		</g>
		<g>
			<g>
				<linearGradient id="SVGID_6_" gradientUnits="userSpaceOnUse" x1="23.2557" y1="30.8854" x2="6.5032" y2="56.5487">
					<stop  offset="0" style="stop-color:#934B60"/>
					<stop  offset="0.9981" style="stop-color:#412648"/>
				</linearGradient>
				<path fill="url(#SVGID_6_)" d="M17.7,36.6c1.2-0.8,3.5-1.1,3.5-3.6c0-1.2-3-4.3-6.6-4.3c-2.2,0-6.1,1.6-7.4,5.7
					c-1.8,6-0.7,18.7-0.7,23.4c0,6.6,5.6,6.2,5.6,4.4c0-9.3,1.8-13.8,3.9-13.8c1.8,0,4.7,2.5,5.6,6.9c0.3-4.3-1.7-6.2-3.3-9.1
					C16.1,42.4,16.3,37.5,17.7,36.6z"/>
			</g>
		</g>
		<g>
			<g>
				<linearGradient id="SVGID_7_" gradientUnits="userSpaceOnUse" x1="27.4752" y1="62.0028" x2="33.986" y2="62.0028">
					<stop  offset="6.277398e-04" style="stop-color:#FF928D"/>
					<stop  offset="0.9981" style="stop-color:#FFB49D"/>
				</linearGradient>
				<path fill="url(#SVGID_7_)" d="M33.2,60c0,0-1.3,0.9-2,1.2c-0.4,0.2-1.2,0.1-1.2,0c-0.1-0.2,0.4-1,0.4-1s1.2-0.3,1.3-0.3
					c0.4-0.1,0.7-0.5,0.6-0.8l-2,0.1c0,0-0.6,0.1-1,0.5c-0.4,0.4-1.2,2.3-1.2,2.3l-0.6,0.6l2.4,2c0.2-0.1,0.6-0.1,0.6-0.1
					c0,0,2.3-0.6,3-1.6c0.6-1,0.4-1.2,0.5-2.4C34.1,59.4,33.2,60,33.2,60z"/>
			</g>
		</g>
	</g>
</g>
</svg>
