<?xml version="1.0" encoding="utf-8"?>
<!-- Generator: Adobe Illustrator 23.0.4, SVG Export Plug-In . SVG Version: 6.00 Build 0)  -->
<svg version="1.1" baseProfile="tiny" xmlns="http://www.w3.org/2000/svg" xmlns:xlink="http://www.w3.org/1999/xlink" x="0px"
	 y="0px" viewBox="0 0 87 87" xml:space="preserve">
<g id="Layer_1">
	<rect x="8.4" y="8.4" fill="#9FC3ED" width="50.5" height="36.5"/>
	<path fill="#FD792A" d="M43.1,54.9c0.1-0.7,0.3-1.5,0.7-2.1l5.9,5.9c-0.7,0.3-1.4,0.6-2.1,0.7l-5.2,0.7L43.1,54.9z"/>
	
		<rect x="43.9" y="37.5" transform="matrix(0.7071 -0.7071 0.7071 0.7071 -12.0939 54.9949)" fill="#FD792A" width="32.9" height="9.1"/>
	<path fill="#FD792A" d="M76.4,19.6c0.9-0.9,2-1.3,3.2-1.3c2.5,0,4.6,2,4.6,4.6c0,1.2-0.5,2.4-1.3,3.2l-3.3,3.3L79,29.9l-1.8,1.8
		l-6.4-6.4L76.4,19.6z"/>
	<linearGradient id="SVGID_1_" gradientUnits="userSpaceOnUse" x1="11.1831" y1="-1.6162" x2="71.5209" y2="102.0454">
		<stop  offset="0" style="stop-color:#9B6A99"/>
		<stop  offset="1" style="stop-color:#043175"/>
	</linearGradient>
	<path fill="url(#SVGID_1_)" d="M67.4,69.3V45.5L81,31.9l0.5-0.5c0.3-0.3,0.7-0.5,1.1-0.5c0.9,0,1.6,0.7,1.6,1.6
		c0,0.4-0.2,0.8-0.5,1.1L72,45.3l2,2l11.8-11.8c0.8-0.8,1.3-1.9,1.3-3.1c0-1.8-1.1-3.3-2.6-4l0.5-0.5c1.4-1.4,2.2-3.2,2.2-5.2
		c0-4.1-3.3-7.4-7.4-7.4c-2,0-3.8,0.8-5.2,2.2l-7.1,7.1V0H0v87h49.7L67.4,69.3z M50.5,82.2v-12h12L50.5,82.2z M50.5,41.5V16.8h8.4
		v16.3L50.5,41.5z M58.9,14H42.1V8.4h16.8V14z M39.3,14H19.6V8.4h19.6V14z M16.8,14H8.4V8.4h8.4V14z M8.4,16.8h8.4v28.1H8.4V16.8z
		 M19.6,16.8h8.4v28.1h-8.4V16.8z M30.9,16.8h8.4v28.1h-8.4V16.8z M42.1,16.8h5.6v27.5l-0.6,0.6h-5L42.1,16.8z M43.1,54.9
		c0.1-0.7,0.3-1.5,0.7-2.1l5.9,5.9c-0.7,0.3-1.4,0.6-2.1,0.7l-5.2,0.7L43.1,54.9z M51.9,57l-6.4-6.4l23.3-23.3l6.4,6.4L51.9,57z
		 M76.4,19.6c0.9-0.9,2-1.3,3.2-1.3c2.5,0,4.6,2,4.6,4.6c0,1.2-0.5,2.4-1.3,3.2l-3.3,3.3L79,29.9l-1.8,1.8l-6.4-6.4L76.4,19.6z
		 M2.8,2.8h61.7v24.7l-2.8,2.8V5.6H5.6v42.1h38.7l-1.2,1.2c-1.5,1.5-2.5,3.5-2.8,5.6L39,63.4l8.9-1.3c2.1-0.3,4.1-1.3,5.6-2.8
		l11.1-11.1v19.1H47.7v16.8H2.8V2.8z M19.6,61.7v1.4c0,0.8,0.6,1.4,1.4,1.4c2.3,0,4.2,1.9,4.2,4.2V73h-2.8v2.8h-2.8v-3.1
		c-1.6-0.6-2.8-2.1-2.8-4h2.8c0,0.8,0.6,1.4,1.4,1.4h1.4v-1.4c0-0.8-0.6-1.4-1.4-1.4c-2.3,0-4.2-1.9-4.2-4.2v-4.2h2.8v-2.8h2.8v3.1
		c1.6,0.6,2.8,2.1,2.8,4h-2.8c0-0.8-0.6-1.4-1.4-1.4L19.6,61.7z M14,66c0,0.8-0.6,1.4-1.4,1.4c-0.8,0-1.4-0.6-1.4-1.4
		c0-0.8,0.6-1.4,1.4-1.4C13.4,64.5,14,65.2,14,66z M29.5,64.5c0.8,0,1.4,0.6,1.4,1.4c0,0.8-0.6,1.4-1.4,1.4c-0.8,0-1.4-0.6-1.4-1.4
		C28.1,65.2,28.7,64.5,29.5,64.5z M21,50.5c-8.5,0-15.4,6.9-15.4,15.4S12.5,81.4,21,81.4S36.5,74.5,36.5,66S29.6,50.5,21,50.5z
		 M21,78.6c-7,0-12.6-5.7-12.6-12.6c0-7,5.7-12.6,12.6-12.6S33.7,59,33.7,66C33.7,72.9,28,78.6,21,78.6z M42.1,78.6h2.8v2.8h-2.8
		V78.6z M42.1,73h2.8v2.8h-2.8V73z M44.9,67.4v2.8h-2.8v-2.8H44.9z"/>
</g>
<g id="Layer_2">
</g>
</svg>
