<?xml version="1.0" encoding="utf-8"?>
<!-- Generator: Adobe Illustrator 23.0.4, SVG Export Plug-In . SVG Version: 6.00 Build 0)  -->
<svg version="1.1" id="Layer_35" xmlns="http://www.w3.org/2000/svg" xmlns:xlink="http://www.w3.org/1999/xlink" x="0px" y="0px"
	 viewBox="0 0 512 512" style="enable-background:new 0 0 512 512;" xml:space="preserve">
<style type="text/css">
	.st0{fill:url(#SVGID_1_);}
</style>
<linearGradient id="SVGID_1_" gradientUnits="userSpaceOnUse" x1="81.7538" y1="121.6318" x2="499.0263" y2="538.9043">
	<stop  offset="0" style="stop-color:#9B6A99"/>
	<stop  offset="1" style="stop-color:#043175"/>
</linearGradient>
<path class="st0" d="M400,392c0,14.9-10.2,27.3-24,30.9V440h-16v-17.1c-13.8-3.6-24-16-24-30.9c0-17.6,14.4-32,32-32
	S400,374.4,400,392z M384,392c0-8.8-7.2-16-16-16s-16,7.2-16,16s7.2,16,16,16S384,400.8,384,392z M504,144
	c0,52.8-31.4,101.2-78.9,123.3c4.4,8.7,6.9,18.4,6.9,28.7v33.5c9.3,3.3,16,12.1,16,22.5v48c0,39.7-32.3,72-72,72h-16
	c-14.4,0-27.8-4.3-39.1-11.6c4.6,11.1,7.1,23.2,7.1,35.6v8H8v-8c0-37.2,22-70.9,56.1-85.8l62.3-27.3c5.8-2.5,9.6-8.3,9.6-14.7v-6.2
	c-12.2-8.4-22.2-19.6-29.1-32.5C80.8,318.1,64,292.8,64,264v-47.2c0-26.1,17.7-49,42.7-55.8c11.7-20.5,33.3-33,57.1-33h4.2
	c24.3,0,46.7,8.4,64.4,22.5c-0.1-2.2-0.4-4.3-0.4-6.5C232,69,293,8,368,8S504,69,504,144L504,144z M98,305c-1.3-6.1-2-12.5-2-18.9
	v-38h15.6c8.8,0,17.4-3,24.2-8.5l14.4-11.5c9.7-7.7,21.8-12,34.2-12c11.8,0,23.4,3.9,32.9,11l22.7,17v42c0,6.5-0.7,12.8-2,18.9
	c11.2-10.4,18-24.9,18-41v-32c0-48.5-39.5-88-88-88h-4.2c-19,0-36.1,10.6-44.6,27.6l-1.8,3.5l-3.8,0.8C94.1,179.7,80,197,80,216.8
	V264C80,280,86.8,294.6,98,305L98,305z M229.1,329.6c-6.9,13-16.9,24.1-29.1,32.5v6.2c0,6.4,3.8,12.1,9.6,14.7l62.3,27.3
	c7.1,3.1,13.6,7,19.5,11.6c-2.2-6.9-3.4-14.2-3.4-21.8v-48c0-10.4,6.7-19.2,16-22.5V296c0-10.3,2.5-20.1,6.9-28.7
	c-14.6-6.7-27.6-15.9-38.9-27.1V264C272,292.8,255.2,318.1,229.1,329.6L229.1,329.6z M320,296v32h16v-32c0-17.6,14.4-32,32-32
	s32,14.4,32,32v32h16v-32c0-26.5-21.5-48-48-48S320,269.5,320,296z M384,296c0-8.8-7.2-16-16-16s-16,7.2-16,16v32h32V296z
	 M155.1,488h25.8l-10.7-32h-4.5L155.1,488z M179.6,422.9L168,411.3l-11.6,11.6l8.5,17.1h6.1L179.6,422.9z M201.7,396.8
	c-3.4-1.7-6.3-3.9-8.8-6.5L180,400.7l16.1,16.1L201.7,396.8z M168,359.7c33.1-9.2,56-39.2,56-73.7v-34l-16.3-12.2
	c-13.7-10.3-34.1-9.9-47.5,0.8L145.8,252c-9.6,7.7-21.6,11.9-33.8,12v22C112,320.5,134.9,350.5,168,359.7L168,359.7z M151.8,370.9
	c-0.1,1.8-0.4,3.5-0.8,5.2l17,13.6l17-13.6c-0.4-1.7-0.7-3.4-0.8-5.2c-4.6,2-9.3,3.6-14.3,4.8l-1.9,0.5l-1.9-0.5
	C161.1,374.5,156.4,372.9,151.8,370.9z M132.8,397.6l-1.7,0.7l7.8,19.4l17.1-17.1l-12.9-10.3C140.2,393.4,136.8,395.9,132.8,397.6
	L132.8,397.6z M24.4,488h41l6.7-33.6l15.7,3.1L81.8,488h56.5l13.1-39.4l-6.9-13.8l-11.4,11.4l-16.6-41.5l-46,20.1
	C44.7,436.2,27.3,460.4,24.4,488L24.4,488z M311.6,488c-2.8-27.6-20.3-51.8-46.1-63.1l-49-21.4L204,447.3l-12.4-12.4l-6.9,13.8
	l13.1,39.4h56.5l-6.1-30.4l15.7-3.1l6.7,33.6L311.6,488z M432,352c0-4.4-3.6-8-8-8H312c-4.4,0-8,3.6-8,8v48c0,30.9,25.1,56,56,56h16
	c30.9,0,56-25.1,56-56V352z M488,144c0-66.2-53.8-120-120-120S248,77.8,248,144c0,8.3,1,16.8,2.9,25.4c9.6,12.7,16.4,27.7,19.4,44
	c12.6,17.8,29.8,31.6,49.8,40.4c4-4.5,8.6-8.5,13.7-11.7C293.2,227.8,264,189.3,264,144c0-57.3,46.7-104,104-104s104,46.7,104,104
	c0,45.3-29.2,83.8-69.7,98.1c5.1,3.2,9.7,7.2,13.7,11.7C459.3,234.8,488,191.4,488,144z M456,144c0-48.5-39.5-88-88-88
	s-88,39.5-88,88s39.5,88,88,88S456,192.5,456,144z M368,104c8.8,0,16,7.2,16,16h16c0-14.9-10.2-27.3-24-30.9V72h-16v16h0
	c-13.3,0-24,15.7-24,29v2c0,17.6,14.4,33,32,33c8.8,0,16,7.2,16,16v0c0,8.8-7.2,16-16,16h0c-8.8,0-16-7.2-16-16h-16
	c0,14.9,10.2,27.3,24,30.9V216h16v-16h0c13.3,0,24-13.7,24-27v-4c0-17.6-14.4-33-32-33c-8.8,0-16-7.2-16-16v0
	C352,111.2,359.2,104,368,104L368,104z"/>
</svg>
