<?xml version="1.0" encoding="utf-8"?>
<!-- Generator: Adobe Illustrator 23.0.4, SVG Export Plug-In . SVG Version: 6.00 Build 0)  -->
<svg version="1.1" id="Layer_35" xmlns="http://www.w3.org/2000/svg" xmlns:xlink="http://www.w3.org/1999/xlink" x="0px" y="0px"
	 viewBox="0 0 512 512" style="enable-background:new 0 0 512 512;" xml:space="preserve">
<style type="text/css">
	.st0{fill:url(#SVGID_1_);}
</style>
<linearGradient id="SVGID_1_" gradientUnits="userSpaceOnUse" x1="119.771" y1="107.229" x2="515.658" y2="503.116">
	<stop  offset="0" style="stop-color:#9B6A99"/>
	<stop  offset="1" style="stop-color:#043175"/>
</linearGradient>
<path class="st0" d="M376,72c8.8,0,16,7.2,16,16h16c0-14.9-10.2-27.3-24-30.9V40h-16v16h0c-13.3,0-24,15.7-24,29v2
	c0,17.6,14.4,33,32,33c8.8,0,16,7.2,16,16v0c0,8.8-7.2,16-16,16h0c-8.8,0-16-7.2-16-16h-16c0,14.9,10.2,27.3,24,30.9V184h16v-16h0
	c13.3,0,24-13.7,24-27v-4c0-17.6-14.4-33-32-33c-8.8,0-16-7.2-16-16v0C360,79.2,367.2,72,376,72L376,72z M72,184h160v144H72V184z
	 M88,312h32v-80H88V312z M168,232v80h16v-80H168z M152,232h-16v80h16V232z M216,312v-80h-16v80H216z M216,200h-80v16h80V200z
	 M88,200v16h32v-16H88z M248,264h16v-16h-16V264z M360,248h-80v16h80V248z M248,296h112v-16H248V296z M248,328h112v-16H248V328z
	 M504,112c0,49.1-34.2,90.2-80,101.1V384c0,22.1-17.9,40-40,40h-32h-48h-19.1l16,32H328c13.2,0,24,10.8,24,24s-10.8,24-24,24H104
	c-13.2,0-24-10.8-24-24s10.8-24,24-24h27.1l16-32H48c-22.1,0-40-17.9-40-40V160c0-22.1,17.9-40,40-40h200v-8C248,54.7,294.7,8,352,8
	h48C457.3,8,504,54.7,504,112z M248,216v-48H56v176h320V216H248z M328,472H104c-4.4,0-8,3.6-8,8s3.6,8,8,8h224c4.4,0,8-3.6,8-8
	S332.4,472,328,472z M267.1,424H164.9L141,471.9l150.1,0.1L267.1,424z M304,408h48 M374.5,408h9.5c13.2,0,24-10.8,24-24V215.6
	c-2.6,0.2-5.3,0.4-8,0.4h-8v128c0,8.8-7.2,16-16,16H56c-8.8,0-16-7.2-16-16V168c0-8.8,7.2-16,16-16h192v-16H48
	c-13.2,0-24,10.8-24,24v224c0,13.2,10.8,24,24,24h233.5 M488,112c0-48.5-39.5-88-88-88h-48c-48.5,0-88,39.5-88,88v88h136
	C448.5,200,488,160.5,488,112z"/>
</svg>
