<?xml version="1.0" encoding="utf-8"?>
<!-- Generator: Adobe Illustrator 23.0.4, SVG Export Plug-In . SVG Version: 6.00 Build 0)  -->
<svg version="1.1" id="Layer_35" xmlns="http://www.w3.org/2000/svg" xmlns:xlink="http://www.w3.org/1999/xlink" x="0px" y="0px"
	 viewBox="0 0 512 512" style="enable-background:new 0 0 512 512;" xml:space="preserve">
<style type="text/css">
	.st0{fill:url(#SVGID_1_);}
</style>
<linearGradient id="SVGID_1_" gradientUnits="userSpaceOnUse" x1="140.756" y1="114.244" x2="459.5891" y2="433.077">
	<stop  offset="0" style="stop-color:#9B6A99"/>
	<stop  offset="1" style="stop-color:#043175"/>
</linearGradient>
<path class="st0" d="M448,80h56v8c0,39.7-32.3,72-72,72h-43.3c-3.7,6.4-11.8,18.8-24.3,32H384c22.1,0,40,17.9,40,40v8h-40
	c-18.8,0-34.5-13.1-38.8-30.6c-16.8,12.9-38.5,24.1-65.2,28.5V264h8c13.2,0,24,10.8,24,24c0,6.2-2.4,11.7-6.2,16
	c3.8,4.3,6.2,9.8,6.2,16s-2.4,11.7-6.2,16c3.8,4.3,6.2,9.8,6.2,16s-2.4,11.7-6.2,16c3.8,4.3,6.2,9.8,6.2,16c0,13.2-10.8,24-24,24h-8
	v11.5l43.3,26l26.8-13.4H400v16h-46.1l-14.4,7.2l18.1,10.9l17,25.5l-13.3,8.9l-15-22.5L264,428.5V408h-8h-8v20.9l-72.1,36l36.5,24.4
	l-8.9,13.3l-46-30.7h-39.8l-41.9-25.1l8.2-13.7l38.1,22.9h35.9l73.9-36.9V408h-28.7c-8.7,0-17.3-2-25-5.9L158.1,392H136v16H40V264
	h96v16h22.1l20.2-10.1c7.7-3.9,16.4-5.9,25.1-5.9H232v-26.1c-26.8-4.4-48.4-15.6-65.2-28.5c-4.2,17.5-20,30.6-38.8,30.6H88v-8
	c0-22.1,17.9-40,40-40h19.6c-12.6-13.2-20.6-25.6-24.3-32H80c-39.7,0-72-32.3-72-72v-8h56c38.9,0,70.7,31.1,71.9,69.8
	c4.8,8.7,36,60.5,96.1,71.9v-8.6c-45.8-10.9-80-52-80-101.1C152,54.7,198.7,8,256,8s104,46.7,104,104c0,49.1-34.2,90.2-80,101.1v8.6
	c60.3-11.4,91.3-63.2,96.1-71.9C377.3,111.1,409.1,80,448,80L448,80z M119.4,144c-3.9-27.1-27.3-48-55.4-48H24.6
	c3.9,27.1,27.3,48,55.4,48H119.4z M150.6,208H128c-10.4,0-19.3,6.7-22.6,16H128C138.4,224,147.3,217.3,150.6,208z M256,200
	c48.5,0,88-39.5,88-88s-39.5-88-88-88s-88,39.5-88,88S207.5,200,256,200z M120,280h-16v16H88v-16H56v112h32h16h16V280z M203.3,392
	h30.1c-0.9-2.5-1.5-5.2-1.5-8c0-6.2,2.4-11.7,6.2-16c-3.8-4.3-6.2-9.8-6.2-16c0-4.3,1.3-8.4,3.4-12c-2.1-3.6-3.4-7.6-3.4-12v-16
	h-12.8c-11.5,10.3-26.2,16-41.8,16H176v-16h1.4c12.5,0,24.2-4.8,33-13.7l2.3-2.3H248v32c0,4.4,3.6,8,8,8c4.4,0,8-3.6,8-8v-40
	c0-4.4-3.6-8-8-8h-52.7c-6.2,0-12.4,1.5-17.9,4.2L161.9,296H136v80h25.9l23.6,11.8C191,390.5,197.2,392,203.3,392z M288,312h-8v16h8
	c4.4,0,8-3.6,8-8S292.4,312,288,312z M288,344h-14.2c-4.4,4.9-10.7,8-17.8,8c-2.7,0-5.3-0.6-7.7-1.4c-0.1,0.5-0.3,0.9-0.3,1.4
	c0,4.4,3.6,8,8,8h32c4.4,0,8-3.6,8-8S292.4,344,288,344z M296,384c0-4.4-3.6-8-8-8h-32c-4.4,0-8,3.6-8,8s3.6,8,8,8h8h24
	C292.4,392,296,388.4,296,384z M288,280h-9.5c0.9,2.5,1.5,5.2,1.5,8v8h8c4.4,0,8-3.6,8-8S292.4,280,288,280z M264,264v-48.4
	c-2.6,0.2-5.3,0.4-8,0.4s-5.4-0.2-8-0.4V264h8H264z M384,208h-22.6c3.3,9.3,12.2,16,22.6,16h22.6C403.3,214.7,394.4,208,384,208z
	 M487.4,96H448c-28.2,0-51.5,20.9-55.4,48H432C460.2,144,483.5,123.1,487.4,96z M257,70c8.8,0,16,7.2,16,16h16
	c0-14.9-10.2-27.3-24-30.9V38h-16v16h0c-13.3,0-24,15.7-24,29v2c0,17.6,14.4,33,32,33c8.8,0,16,7.2,16,16v0c0,8.8-7.2,16-16,16h0
	c-8.8,0-16-7.2-16-16h-16c0,14.9,10.2,27.3,24,30.9V182h16v-16h0c13.3,0,24-13.7,24-27v-4c0-17.6-14.4-33-32-33c-8.8,0-16-7.2-16-16
	v0C241,77.2,248.2,70,257,70L257,70z"/>
</svg>
