<?xml version="1.0" encoding="utf-8"?>
<!-- Generator: Adobe Illustrator 23.0.4, SVG Export Plug-In . SVG Version: 6.00 Build 0)  -->
<svg version="1.1" id="Layer_35" xmlns="http://www.w3.org/2000/svg" xmlns:xlink="http://www.w3.org/1999/xlink" x="0px" y="0px"
	 viewBox="0 0 512 512" style="enable-background:new 0 0 512 512;" xml:space="preserve">
<style type="text/css">
	.st0{fill:url(#SVGID_1_);}
</style>
<linearGradient id="SVGID_1_" gradientUnits="userSpaceOnUse" x1="38.5" y1="38.5" x2="493.5703" y2="493.5703">
	<stop  offset="0" style="stop-color:#9B6A99"/>
	<stop  offset="1" style="stop-color:#043175"/>
</linearGradient>
<path class="st0" d="M378.4,256c0,67.5-54.9,122.4-122.4,122.4S133.6,323.5,133.6,256S188.5,133.6,256,133.6S378.4,188.5,378.4,256z
	 M362.1,256c0-58.5-47.6-106.1-106.1-106.1S149.9,197.5,149.9,256S197.5,362.1,256,362.1S362.1,314.5,362.1,256z M488,256h16v101.3
	c0,8.6-2.8,17.1-8,24l-16,21.3V504H352V386.7l-6.2-8.3C320.6,396.9,289.6,408,256,408c-59.6,0-111.1-34.5-136-84.5V336
	c0,13.2-10.8,24-24,24c-11.1,0-20.3-7.6-23.1-17.8c-2.8,1.1-5.8,1.8-8.9,1.8c-13.2,0-24-10.8-24-24v-68.4c-4.7,2.8-10.1,4.4-16,4.4
	H8V154.7c0-8.6,2.8-17.1,8-24l16-21.3V8h128v117.3l6.2,8.3c25.2-18.5,56.2-29.6,89.8-29.6c59.6,0,111.1,34.5,136,84.5V176
	c0-13.2,10.8-24,24-24c11.1,0,20.3,7.6,23.1,17.8c2.8-1.1,5.8-1.8,8.9-1.8c13.2,0,24,10.8,24,24v68.4C476.7,257.7,482.1,256,488,256
	z M104,256c0-44.5,19.3-84.4,49.8-112.2l-9.8-13.1V24H48v90.7l-19.2,25.6c-3.1,4.1-4.8,9.2-4.8,14.4V240c8.8,0,16-7.2,16-16v-16
	v-20.9l16.7-8.3c10.5-5.2,18.1-14.7,20.9-26.1l2.6-10.6l15.5,3.9l-2.6,10.6c-4,15.9-14.6,29.2-29.3,36.5l-7.8,3.9V208v16v96
	c0,4.4,3.6,8,8,8s8-3.6,8-8v-56v-8h16v8v56v16c0,4.4,3.6,8,8,8s8-3.6,8-8V256z M256,392c75,0,136-61,136-136s-61-136-136-136
	s-136,61-136,136S181,392,256,392z M488,272c-8.8,0-16,7.2-16,16v16v20.9l-16.7,8.3c-10.5,5.2-18.1,14.7-20.9,26.1l-2.6,10.6
	l-15.5-3.9l2.6-10.6c4-15.9,14.6-29.2,29.3-36.5l7.8-3.9V304v-16v-96c0-4.4-3.6-8-8-8s-8,3.6-8,8v56v8h-16v-8v-56v-16
	c0-4.4-3.6-8-8-8s-8,3.6-8,8v80c0,44.5-19.3,84.4-49.8,112.2l9.8,13.1V488h96v-90.7l19.2-25.6c3.1-4.1,4.8-9.2,4.8-14.4V272z
	 M363.2,96.7c4.4,3,8.8,6.2,13,9.6l10-12.5c-4.6-3.7-9.3-7.2-14.1-10.4L363.2,96.7z M220.3,51.2c45.9-7.9,94.7-0.2,135.6,22.2
	l-7.7,14C310.6,67,265.9,59.8,223.7,66.9C222.3,78.7,212.2,88,200,88c-13.2,0-24-10.8-24-24s10.8-24,24-24
	C208.5,40,216,44.5,220.3,51.2z M208,64c0-4.4-3.6-8-8-8s-8,3.6-8,8s3.6,8,8,8S208,68.4,208,64z M135.8,405.7l-10,12.5
	c4.6,3.7,9.3,7.2,14.1,10.4l8.9-13.3C144.4,412.3,140,409.1,135.8,405.7z M256,464c-34.9,0-69.4-8.8-99.8-25.5l7.7-14
	c37.5,20.6,82.3,27.7,124.4,20.6c1.4-11.9,11.5-21.1,23.7-21.1c13.2,0,24,10.8,24,24s-10.8,24-24,24c-8.5,0-15.9-4.5-20.2-11.1
	C280,462.9,268,464,256,464L256,464z M304,448c0,4.4,3.6,8,8,8s8-3.6,8-8s-3.6-8-8-8S304,443.6,304,448z M208.7,253.1l0.5-13.6h-0.6
	l-11.3,22.8h-2.4L183,239.5h-0.5l0.6,12.2v47.9H170v-87.3h14l12.1,24.2h0.4l12-24.2h13.9v87.3h-13.8V253.1z M248.8,254.9l-20-42.5
	h16.2l10.3,23.7l2.3,6.4l2.2-6.4l10.5-23.7h15.7L265.6,255l20.9,44.7h-16.2l-10.8-24.9l-2.7-6.7l-2.6,6.7l-11.3,24.9h-15.7
	L248.8,254.9z M305.8,248h-0.5l0.6,10.4v41.3h-13.1v-87.3h12.1l24.4,53.4h0.5l-0.9-10.5v-42.9h13.1v87.3H330L305.8,248z"/>
</svg>
