<?xml version="1.0" encoding="utf-8"?>
<!-- Generator: Adobe Illustrator 23.0.4, SVG Export Plug-In . SVG Version: 6.00 Build 0)  -->
<svg version="1.1" id="Layer_35" xmlns="http://www.w3.org/2000/svg" xmlns:xlink="http://www.w3.org/1999/xlink" x="0px" y="0px"
	 viewBox="0 0 512 512" style="enable-background:new 0 0 512 512;" xml:space="preserve">
<style type="text/css">
	.st0{fill:url(#SVGID_1_);}
</style>
<linearGradient id="SVGID_1_" gradientUnits="userSpaceOnUse" x1="31.1545" y1="31.8455" x2="496.687" y2="497.378">
	<stop  offset="0" style="stop-color:#9B6A99"/>
	<stop  offset="1" style="stop-color:#043175"/>
</linearGradient>
<path class="st0" d="M72,424h115.1l-16,32H144c-13.2,0-24,10.8-24,24s10.8,24,24,24h224c13.2,0,24-10.8,24-24s-10.8-24-24-24h-27.1
	l-16-32H360h48h32c22.1,0,40-17.9,40-40V144c0-22.1-17.9-40-40-40h-40V48c0-22.1-17.9-40-40-40H88C65.9,8,48,25.9,48,48v40h64v16H72
	c-22.1,0-40,17.9-40,40v240C32,406.1,49.9,424,72,424z M376,480c0,4.4-3.6,8-8,8H144c-4.4,0-8-3.6-8-8c0-4.4,3.6-8,8-8h36.9l24-48
	h102.1l24,48H368C372.4,472,376,475.6,376,480z M408,408h-48 M384,322.4V344h-21.6C370.8,338.1,378.1,330.8,384,322.4z M400,152h32
	v192h-32V152z M312,344H128V48c0-9-3.1-17.3-8.2-24H360c13.2,0,24,10.8,24,24v208v16C384,311.7,351.7,344,312,344z M112,344H80V152
	h32V344z M64,72V48c0-13.2,10.8-24,24-24s24,10.8,24,24v24H64z M337.5,408H72c-13.2,0-24-10.8-24-24V144c0-13.2,10.8-24,24-24h40v16
	H80c-8.8,0-16,7.2-16,16v192c0,8.8,7.2,16,16,16h352c8.8,0,16-7.2,16-16V152c0-8.8-7.2-16-16-16h-32v-16h40c13.2,0,24,10.8,24,24
	v240c0,13.2-10.8,24-24,24h-9.5 M208,328h-64v-16h64V328z M208,296h-64v-16h64V296z M283.9,296h-64v-16h64V296z M364.6,296h-64v-16
	h64V296z M364.6,264H144v-16h220.6V264z M364.6,232H144v-16h220.6V232z M364.6,200H144v-16h220.6V200z M160,56h-16V40h16V56z
	 M160,88h-16V72h16V88z M160,120h-16v-16h16V120z M209.4,78.3L188.4,42h17l10.9,20.2l2.4,5.4l2.3-5.4L232.1,42h16.5l-21.4,36.4
	l22,38.1h-17l-11.4-21.3l-2.9-5.7l-2.8,5.7l-11.9,21.3h-16.5L209.4,78.3z M292.8,76.8l0.5-11.6h-0.6l-11.9,19.5h-2.6l-12.5-19.5
	h-0.5l0.6,10.4v40.9H252V42h14.8l12.8,20.6h0.4L292.6,42h14.7v74.5h-14.6V76.8z M351.4,86.2h13.2v30.3h-49V42h14.6v61.5h21.2V86.2z"
	/>
</svg>
